<?xml version="1.0" encoding="UTF-8" standalone="no"?>
<svg
   xmlns:osb="http://www.openswatchbook.org/uri/2009/osb"
   xmlns:dc="http://purl.org/dc/elements/1.1/"
   xmlns:cc="http://creativecommons.org/ns#"
   xmlns:rdf="http://www.w3.org/1999/02/22-rdf-syntax-ns#"
   xmlns:svg="http://www.w3.org/2000/svg"
   xmlns="http://www.w3.org/2000/svg"
   xmlns:xlink="http://www.w3.org/1999/xlink"
   xmlns:sodipodi="http://sodipodi.sourceforge.net/DTD/sodipodi-0.dtd"
   xmlns:inkscape="http://www.inkscape.org/namespaces/inkscape"
   id="Layer_1"
   data-name="Layer 1"
   viewBox="0 0 232.55 231.14"
   version="1.1"
   sodipodi:docname="tutorial2.svg"
   inkscape:version="0.92.5 (2060ec1f9f, 2020-04-08)">
  <metadata
     id="metadata49">
    <rdf:RDF>
      <cc:Work
         rdf:about="">
        <dc:format>image/svg+xml</dc:format>
        <dc:type
           rdf:resource="http://purl.org/dc/dcmitype/StillImage" />
      </cc:Work>
    </rdf:RDF>
  </metadata>
  <sodipodi:namedview
     pagecolor="#ffffff"
     bordercolor="#666666"
     borderopacity="1"
     objecttolerance="10"
     gridtolerance="10"
     guidetolerance="10"
     inkscape:pageopacity="0"
     inkscape:pageshadow="2"
     inkscape:window-width="1848"
     inkscape:window-height="1016"
     id="namedview47"
     showgrid="false"
     inkscape:zoom="2.8284271"
     inkscape:cx="93.254615"
     inkscape:cy="115.16425"
     inkscape:window-x="72"
     inkscape:window-y="27"
     inkscape:window-maximized="1"
     inkscape:current-layer="Layer_1" />
  <defs
     id="defs4">
    <linearGradient
       id="linearGradient936"
       inkscape:collect="always">
      <stop
         id="stop932"
         offset="0"
         style="stop-color:#512da8;stop-opacity:1;" />
      <stop
         style="stop-color:#1565c0;stop-opacity:1"
         offset="0.28202957"
         id="stop942" />
      <stop
         style="stop-color:#42a5f5;stop-opacity:1"
         offset="0.51470786"
         id="stop938" />
      <stop
         id="stop940"
         offset="0.83942455"
         style="stop-color:#f57c00;stop-opacity:1" />
      <stop
         id="stop934"
         offset="1"
         style="stop-color:#ffc107;stop-opacity:1" />
    </linearGradient>
    <linearGradient
       inkscape:collect="always"
       id="linearGradient976">
      <stop
         style="stop-color:#512da8;stop-opacity:1;"
         offset="0"
         id="stop972" />
      <stop
         style="stop-color:#ffc107;stop-opacity:1"
         offset="1"
         id="stop974" />
    </linearGradient>
    <linearGradient
       id="linearGradient964"
       osb:paint="gradient">
      <stop
         style="stop-color:#512da8;stop-opacity:1"
         offset="0"
         id="stop960" />
      <stop
         style="stop-color:#ffc107;stop-opacity:1"
         offset="1"
         id="stop962" />
    </linearGradient>
    <style
       id="style2">.cls-1{fill:#42a5f5;}.cls-2{fill:#1e88e5;}.cls-3{fill:#1565c0;}.cls-4{fill:#6d44c6;}.cls-5{fill:#f57c00;}.cls-6{fill:#512da8;}.cls-7{fill:#ff9800;}.cls-8{fill:#ffc107;}.cls-9{fill:#815fe0;}</style>
    <clipPath
       id="_clipPath_5whuutb0iqX0aqXRgqjUDsYleFglFfil">
      <rect
         id="rect2"
         height="219"
         width="203"
         x="0"
         y="0" />
    </clipPath>
    <linearGradient
       gradientTransform="translate(0.8727806,36.705571)"
       inkscape:collect="always"
       xlink:href="#linearGradient976"
       id="linearGradient978-1"
       x1="1.9635631"
       y1="188.20152"
       x2="228.98605"
       y2="188.20152"
       gradientUnits="userSpaceOnUse" />
    <linearGradient
       inkscape:collect="always"
       xlink:href="#linearGradient936"
       id="linearGradient930"
       x1="147.13049"
       y1="135.03514"
       x2="162.16426"
       y2="89.482094"
       gradientUnits="userSpaceOnUse"
       gradientTransform="translate(36)" />
  </defs>
  <g
     id="g894">
    <path
       style="fill:#42a5f5;stroke-width:0.25102568"
       inkscape:connector-curvature="0"
       id="path6"
       d="m 38.828525,94.9637 a 2.4776234,2.4776234 0 0 1 -0.0326,-0.38407 l -5.99198,-0.87608 a 2.7939157,2.7939157 0 0 1 -1.95549,2.17137 l 0.70036,6.35095 a 2.7788542,2.7788542 0 0 1 1.29278,0.4393 l 6.44383,-6.62708 a 2.7788542,2.7788542 0 0 1 -0.45686,-1.07439 z"
       class="cls-1" />
    <path
       style="fill:#1e88e5;stroke-width:0.25102568"
       inkscape:connector-curvature="0"
       id="path8"
       d="m 30.466865,102.34636 -0.69534,-6.36601 a 2.7939157,2.7939157 0 0 1 -1.45344,-0.58238 l -6.82539,7.65629 a 2.7612824,2.7612824 0 0 1 0.82085,1.41327 h 6.23799 a 2.7914055,2.7914055 0 0 1 1.91533,-2.12117 z"
       class="cls-2" />
    <path
       style="fill:#1565c0;stroke-width:0.25102568"
       inkscape:connector-curvature="0"
       id="path10"
       d="M 11.278461,104.45247 16.55,117.93255 a 2.7914055,2.7914055 0 0 1 2.781364,1.41829 l 6.642141,-2.19899 a 2.776344,2.776344 0 0 1 0.55728,-2.03581 l -5.98195,-7.37765 a 2.532849,2.532849 0 0 1 -0.43929,0.12803 2.806467,2.806467 0 0 1 -3.275886,-2.23664 2.8416106,2.8416106 0 0 1 -0.02762,-0.75308 L 12.2198,103.42829 a 2.7612824,2.7612824 0 0 1 -0.941346,1.02418 z"
       class="cls-3" />
    <path
       style="fill:#6d44c6;stroke-width:0.25102568"
       inkscape:connector-curvature="0"
       id="path12"
       d="m 35.853875,123.63836 a 2.8014465,2.8014465 0 0 1 2.081,-1.72204 c 0.0753,-0.015 0.14811,0 0.2209,-0.02 l 0.77567,-9.303 a 2.7813645,2.7813645 0 0 1 -1.31035,-0.91123 l -6.29573,4.04904 a 2.776344,2.776344 0 0 1 0.16819,0.55979 2.796426,2.796426 0 0 1 -5.19623,1.87767 l -6.644648,2.20652 c 0,0.0828 0.01757,0.16567 0.02008,0.25103 z"
       class="cls-4" />
    <path
       style="fill:#1e88e5;stroke-width:0.25102568"
       inkscape:connector-curvature="0"
       id="path14"
       d="m 22.910995,88.58012 a 2.786385,2.786385 0 0 1 -1.56389,-0.15815 l -9.44359,11.871 a 2.7612824,2.7612824 0 0 1 0.627564,1.28777 2.8039568,2.8039568 0 0 1 0.01757,0.83089 l 4.553605,1.43838 a 2.7612824,2.7612824 0 0 1 3.456621,-1.34801 l 7.05132,-7.91735 a 2.8491414,2.8491414 0 0 1 -0.32885,-0.86353 2.776344,2.776344 0 0 1 0.57736,-2.25923 l -3.61728,-3.54197 a 2.7612824,2.7612824 0 0 1 -1.33043,0.6602 z"
       class="cls-2" />
    <path
       style="fill:#1e88e5;stroke-width:0.25102568"
       inkscape:connector-curvature="0"
       id="path16"
       d="m 41.775565,97.22795 -1.22249,10.02847 a 2.8014465,2.8014465 0 0 1 1.67685,1.30785 l 8.16838,-1.90278 a 2.7813645,2.7813645 0 0 1 0.50205,-1.70948 l -7.80439,-8.1508 a 2.3696824,2.3696824 0 0 1 -1.31286,0.42674 z"
       class="cls-2" />
    <path
       style="fill:#f57c00;stroke-width:0.25102568"
       inkscape:connector-curvature="0"
       id="path18"
       d="m 43.690895,86.06071 -18.51565,0.32634 a 2.7412004,2.7412004 0 0 1 -0.25103,0.81332 l 3.79049,3.69258 a 2.7612824,2.7612824 0 0 1 4.08921,1.85508 l 6.16017,0.90621 a 2.7612824,2.7612824 0 0 1 3.44156,-1.75718 l 2.25923,-4.26744 a 2.776344,2.776344 0 0 1 -0.97398,-1.56891 z"
       class="cls-5" />
    <path
       style="fill:#1565c0;stroke-width:0.25102568"
       inkscape:connector-curvature="0"
       id="path20"
       d="m 33.428965,106.81964 a 2.7612824,2.7612824 0 0 1 -1.61159,0.95139 2.8918158,2.8918158 0 0 1 -0.60245,0.0452 l -1.45093,6.40367 a 2.806467,2.806467 0 0 1 0.96644,0.62756 l 6.39614,-4.11431 c -0.0251,-0.0879 -0.0602,-0.1707 -0.0778,-0.25102 a 2.7612824,2.7612824 0 0 1 0.15564,-1.54883 z"
       class="cls-3" />
    <path
       style="fill:#1e88e5;stroke-width:0.25102568"
       inkscape:connector-curvature="0"
       id="path22"
       d="m 39.481195,107.17359 1.22751,-10.07617 a 2.8215286,2.8215286 0 0 1 -0.66522,-0.31881 l -6.44382,6.62708 a 2.7336696,2.7336696 0 0 1 0.35394,2.46005 l 3.83066,2.13623 a 2.7612824,2.7612824 0 0 1 1.50615,-0.81834 c 0.0603,-0.005 0.12551,-0.003 0.19078,-0.01 z"
       class="cls-2" />
    <path
       style="fill:#1565c0;stroke-width:0.25102568"
       inkscape:connector-curvature="0"
       id="path24"
       d="m 27.334065,114.40312 a 2.7813645,2.7813645 0 0 1 0.88612,-0.34139 2.894326,2.894326 0 0 1 0.48448,-0.0426 l 1.46097,-6.44634 a 2.796426,2.796426 0 0 1 -1.61912,-2.0308 h -6.19531 a 2.796426,2.796426 0 0 1 -0.87608,1.64422 z"
       class="cls-3" />
    <path
       style="fill:#512da8;stroke-width:0.25102568"
       inkscape:connector-curvature="0"
       id="path26"
       d="m 37.179285,127.15272 a 2.7261388,2.7261388 0 0 1 -1.52372,-2.46257 l -16.156013,-3.00979 a 2.7939157,2.7939157 0 0 1 -2.098575,1.77726 2.7311594,2.7311594 0 0 1 -0.868549,0.0126 l -2.598116,6.72999 21.098703,4.41806 z"
       class="cls-6" />
    <path
       style="fill:#512da8;stroke-width:0.25102568"
       inkscape:connector-curvature="0"
       id="path28"
       d="m 15.513264,123.13631 a 2.7788542,2.7788542 0 0 1 0,-4.86739 L 10.279378,104.84407 A 2.8014465,2.8014465 0 0 1 8.253601,104.4349 l -6.935839,7.16678 11.722899,17.93327 z"
       class="cls-6" />
    <path
       style="fill:#512da8;stroke-width:0.25102568"
       inkscape:connector-curvature="0"
       id="path30"
       d="m 41.248415,124.81567 a 2.8014465,2.8014465 0 0 1 -2.2743,2.62071 2.7311594,2.7311594 0 0 1 -0.76813,0.0251 l -1.95549,6.82039 17.19275,-11.23842 z"
       class="cls-6" />
    <path
       style="fill:#ff9800;stroke-width:0.25102568"
       inkscape:connector-curvature="0"
       id="path32"
       d="m 48.550755,83.55207 a 2.7462209,2.7462209 0 0 1 0.60748,1.25512 2.7914055,2.7914055 0 0 1 -1.41077,2.96462 l 5.11842,16.00791 a 2.796426,2.796426 0 0 1 3.07757,2.25923 2.8265491,2.8265491 0 0 1 0.0477,0.55979 l 3.60724,0.75307 -5.98445,-30.010117 z"
       class="cls-7" />
    <path
       style="fill:#6d44c6;stroke-width:0.25102568"
       inkscape:connector-curvature="0"
       id="path34"
       d="m 55.770255,107.65555 a 2.7788542,2.7788542 0 0 1 -3.88839,1.37312 l -11.28361,13.85661 a 2.7386901,2.7386901 0 0 1 0.4895,0.85851 l 13.6307,-1.9831 4.80965,-13.32695 z"
       class="cls-4" />
    <path
       style="fill:#f57c00;stroke-width:0.25102568"
       inkscape:connector-curvature="0"
       id="path36"
       d="m 7.480442,103.68935 a 2.7612824,2.7612824 0 0 1 -0.459377,-1.08192 2.806467,2.806467 0 0 1 2.236639,-3.26334 2.7612824,2.7612824 0 0 1 1.804875,0.27864 L 20.440895,87.83457 A 2.786385,2.786385 0 0 1 19.788235,86.8631 L 5.534993,89.54908 1.222372,110.15326 Z"
       class="cls-5" />
    <path
       style="fill:#f57c00;stroke-width:0.25102568"
       inkscape:connector-curvature="0"
       id="path38"
       d="m 51.844215,104.1186 -5.11842,-16.0079 a 2.7939157,2.7939157 0 0 1 -1.13965,-0.10292 l -2.25924,4.26743 a 2.7612824,2.7612824 0 0 1 0.52213,3.78296 l 7.81192,8.1508 c 0.0678,-0.0352 0.12803,-0.0602 0.18326,-0.0904 z"
       class="cls-5" />
    <path
       style="fill:#ffc107;stroke-width:0.25102568"
       inkscape:connector-curvature="0"
       id="path40"
       d="m 26.056345,76.596147 17.99853,7.219503 a 2.7612824,2.7612824 0 0 1 3.67,-0.93633 l 5.06068,-6.220417 z"
       class="cls-8" />
    <path
       style="fill:#ff9800;stroke-width:0.25102568"
       inkscape:connector-curvature="0"
       id="path42"
       d="m 19.58992,85.80628 a 2.796426,2.796426 0 0 1 5.522565,-0.63258 l 18.54327,-0.32634 c 0,0 0,-0.0226 0,-0.0352 L 24.055665,76.947583 6.830286,88.21111 Z"
       class="cls-7" />
    <path
       style="fill:#815fe0;stroke-width:0.25102568"
       inkscape:connector-curvature="0"
       id="path44"
       d="m 51.045945,108.3509 a 2.7612824,2.7612824 0 0 1 -0.40666,-0.64012 l -8.06546,1.87014 a 2.796426,2.796426 0 0 1 -2.25923,3.11272 2.8616927,2.8616927 0 0 1 -0.32633,0.0276 l -0.78069,9.26285 a 2.8692234,2.8692234 0 0 1 0.54723,0.2209 z"
       class="cls-9" />
  </g>
  <path
     style="fill:url(#linearGradient930);fill-opacity:1;stroke-width:0.05788423"
     d="m 182.42264,136.18494 c -0.11241,-0.57138 -0.3362,-1.2937 -0.51211,-1.65296 -0.0894,-0.18269 -0.26934,-0.54054 -0.39976,-0.79523 -0.39652,-0.77435 -0.73687,-2.11608 -0.80795,-3.18513 -0.0401,-0.60313 0.0521,-1.01615 0.3397,-1.52166 l 0.175,-0.30759 -0.20301,-0.4449 c -0.47726,-1.04593 -0.66003,-1.87239 -1.22992,-5.56127 -0.22905,-1.48261 -0.31207,-1.74336 -0.71755,-2.25361 -0.235,-0.29572 -0.23971,-0.30943 -0.11743,-0.3414 0.26082,-0.0682 0.71905,-0.33965 0.82887,-0.491 0.0677,-0.0933 0.11562,-0.25693 0.11872,-0.40519 l 0.005,-0.24873 -0.86827,-0.0305 c -1.00064,-0.0352 -1.24869,-0.11326 -1.60035,-0.50369 -0.6848,-0.7603 -2.67456,-4.79991 -3.38365,-6.86952 -0.46892,-1.36858 -0.71382,-2.57994 -0.71646,-3.54376 -8e-4,-0.29283 -0.026,-0.43324 -0.0869,-0.48378 -0.0684,-0.0568 -0.37616,-0.0388 -1.51947,0.0886 -1.3194,0.14709 -1.48901,0.15446 -2.12826,0.0925 -0.38204,-0.037 -0.83788,-0.10325 -1.01298,-0.14719 l -0.31836,-0.0799 0.73802,-0.006 c 0.87848,-0.008 0.93528,-0.0653 0.34731,-0.35253 -0.83205,-0.4065 -1.44527,-0.5699 -2.94083,-0.78366 -0.57129,-0.0817 -1.18596,-0.18238 -1.36592,-0.22384 -0.42747,-0.0985 -1.70308,-0.86138 -3.06844,-1.83514 l -1.0377,-0.74009 0.53365,-0.27858 c 0.29351,-0.15322 0.53562,-0.30463 0.53803,-0.33647 0.003,-0.035 -0.37272,-0.0728 -0.95071,-0.0956 -1.08888,-0.043 -1.55413,-0.14239 -2.37724,-0.50774 -1.58928,-0.70544 -2.81075,-1.72052 -3.59245,-2.98546 -0.49783,-0.80559 -0.60287,-1.36531 -0.36224,-1.93031 l 0.09,-0.2114 0.1105,0.28942 c 0.11264,0.295 0.49231,0.84216 0.61132,0.88099 0.0362,0.0118 -0.0238,-0.23369 -0.13328,-0.54554 -0.26524,-0.75563 -0.24789,-1.04276 0.11125,-1.84044 0.14333,-0.31836 0.36907,-0.85666 0.50164,-1.19622 0.23204,-0.59432 0.67594,-1.37488 1.05166,-1.84927 l 0.17949,-0.22662 0.23224,0.68096 c 0.30272,0.88761 0.36254,0.99933 0.53514,0.99933 0.16912,0 0.38279,-0.24072 0.99568,-1.12173 0.24631,-0.35405 0.65761,-0.94329 0.91399,-1.30941 0.66163,-0.94478 1.40888,-1.66874 2.7947,-2.70757 1.74773,-1.31012 3.43833,-2.42031 5.30275,-3.4822 0.40845,-0.23264 0.72103,-0.44297 0.69462,-0.46742 -0.0403,-0.0373 -0.67204,0.0231 -1.4507,0.13876 l -0.18711,0.0278 0.22796,-0.35797 c 0.12538,-0.19689 0.20296,-0.3667 0.17239,-0.37735 -0.0736,-0.0257 -0.73028,0.44867 -0.96068,0.69388 -0.10013,0.10656 -0.27331,0.33815 -0.38485,0.51463 -0.11153,0.17648 -0.23851,0.35052 -0.28217,0.38676 -0.0782,0.0649 -1.62485,0.79588 -2.13196,1.00759 -0.14327,0.0598 -0.21955,0.076 -0.16952,0.0361 0.05,-0.04 0.51424,-0.39561 1.03158,-0.79033 1.17019,-0.89283 1.82916,-1.47804 2.6194,-2.32618 0.3389,-0.36374 0.73322,-0.74539 0.87626,-0.84812 0.2442,-0.17537 0.26189,-0.17976 0.29006,-0.0721 0.0165,0.0631 0.065,0.11436 0.10778,0.11392 0.0428,-4.4e-4 0.35042,-0.15541 0.68365,-0.344382 0.33324,-0.188971 0.61437,-0.335101 0.62474,-0.324732 0.0104,0.01037 -0.0256,0.111994 -0.0798,0.225833 -0.0812,0.170214 -0.0855,0.222901 -0.0243,0.296591 0.10528,0.12685 0.25541,0.11312 0.9191,-0.0841 0.32149,-0.09551 0.60984,-0.173656 0.64076,-0.173656 0.0309,0 0.0643,0.09768 0.0742,0.217066 0.0157,0.18985 0.0484,0.23245 0.26092,0.33976 0.13362,0.0675 0.30015,0.13765 0.37007,0.15593 0.1239,0.0324 0.1227,0.037 -0.0473,0.18003 -0.23135,0.19467 -0.33602,0.44652 -0.25132,0.60477 0.12232,0.22857 1.0365,0.73073 1.14066,0.62657 0.0189,-0.0189 -0.0622,-0.20692 -0.1802,-0.41788 l -0.2145,-0.38358 0.2802,0.0412 c 0.15412,0.0227 0.39743,0.0784 0.54069,0.12392 0.14326,0.0455 0.50793,0.1067 0.81038,0.13606 0.30244,0.0294 0.64107,0.0688 0.75251,0.0877 0.16676,0.0282 0.22662,0.009 0.3383,-0.11016 0.18648,-0.1985 0.12992,-0.32314 -0.25151,-0.55432 -0.17509,-0.10611 -0.31834,-0.20675 -0.31834,-0.22364 0,-0.0169 0.31406,-0.0149 0.69791,0.004 0.38664,0.0194 0.76098,0.0111 0.83932,-0.0187 0.27859,-0.10592 0.10878,-0.45615 -0.35215,-0.726266 -0.33495,-0.196295 -0.53113,-0.246824 -1.56133,-0.402136 l -0.86826,-0.130899 0.674,-0.0065 c 0.73169,-0.007 1.36719,0.04491 2.79905,0.228654 1.08793,0.139609 1.23334,0.186119 1.33202,0.426067 0.0403,0.098 0.18325,0.79028 0.31766,1.53843 0.28777,1.6018 0.29519,2.05495 0.0416,2.54366 l -0.15153,0.29205 0.17397,0.33073 c 0.22287,0.42367 0.17108,0.70516 -0.15235,0.82813 -0.15753,0.0599 -1.06032,-0.15808 -1.67718,-0.40494 -0.25469,-0.10193 -0.60059,-0.19963 -0.76866,-0.21711 -0.16808,-0.0175 -0.31943,-0.0542 -0.33634,-0.0815 -0.0169,-0.0274 0.0502,-0.16242 0.14908,-0.30015 0.38379,-0.53441 0.43865,-1.15801 0.19691,-2.23834 l -0.0324,-0.14472 -0.0781,0.14858 c -0.0433,0.0823 -0.11659,0.58964 -0.16436,1.13774 -0.0956,1.09733 -0.15503,1.28038 -0.46283,1.42644 -0.27858,0.1322 -0.39258,0.12072 -1.05018,-0.10574 -0.40801,-0.14051 -0.61536,-0.24499 -0.70256,-0.35402 -0.068,-0.0851 -0.25917,-0.20239 -0.42473,-0.26069 -0.16556,-0.0583 -0.50784,-0.22726 -0.7606,-0.37545 -0.35896,-0.21044 -0.59043,-0.29768 -1.05719,-0.39847 l -0.5976,-0.12903 -0.31318,0.15836 c -0.25366,0.12827 -0.44195,0.31077 -0.99075,0.96031 -1.54512,1.82876 -2.39776,3.05993 -3.08693,4.45741 l -0.44604,0.90447 0.0656,0.46954 c 0.0361,0.25825 0.0656,0.78862 0.0655,1.17862 l -8e-5,0.70908 h 0.26048 c 0.14327,0 0.26048,0.026 0.26048,0.0579 0,0.0318 -0.0195,0.058 -0.0434,0.0582 -0.0239,1.7e-4 -0.12156,0.0631 -0.21707,0.13996 l -0.17365,0.13968 0.17001,0.1784 c 0.28533,0.29941 0.55118,0.19885 0.67677,-0.25599 0.074,-0.26814 0.25608,-0.44086 0.69668,-0.66104 0.44304,-0.22139 0.85213,-0.30297 1.41355,-0.28189 l 0.45384,0.017 -0.38169,0.24833 c -0.20993,0.13659 -0.42863,0.3002 -0.48599,0.36358 -0.15195,0.1679 -0.0336,0.25825 0.52568,0.40141 0.36791,0.0942 0.64597,0.11835 1.36435,0.11865 0.49624,2.3e-4 0.94688,-0.0168 1.00141,-0.0377 0.0545,-0.0209 0.11433,-0.11392 0.13287,-0.20666 0.0186,-0.0927 0.0565,-0.16101 0.0844,-0.15173 0.0278,0.009 0.23484,0.19915 0.45999,0.42193 l 0.40936,0.40504 0.70448,-0.0104 c 0.40717,-0.006 1.30299,-0.0902 2.12264,-0.1996 1.8159,-0.24233 3.25775,-0.263 4.20612,-0.0603 0.84863,0.18136 1.57889,0.43264 2.30586,0.79342 0.77582,0.38503 1.35157,0.80968 1.72359,1.27127 0.29402,0.36481 0.64135,1.02053 0.61012,1.15185 -0.0149,0.0628 -1.34858,-0.73147 -3.05727,-1.82073 -0.0568,-0.0362 0.0682,-0.0425 0.36178,-0.0181 0.29426,0.0244 0.4486,0.0167 0.4486,-0.0226 0,-0.1767 -1.29198,-0.80842 -2.05489,-1.00475 -0.44383,-0.11422 -0.66843,-0.13436 -1.51715,-0.13604 -1.17029,-0.002 -1.17196,-0.002 -1.22632,0.54301 l -0.035,0.35031 -0.3319,-0.28366 c -0.38593,-0.32985 -0.65814,-0.43676 -0.98073,-0.38517 -0.31586,0.0505 -0.96743,0.35387 -1.16702,0.54334 -0.179,0.16994 -0.38562,0.53206 -0.38562,0.67585 0,0.15585 0.33324,0.30112 0.85577,0.37306 0.58058,0.0799 0.76992,0.0425 1.54531,-0.30512 l 0.46195,-0.20713 0.16379,0.35974 c 0.0901,0.19786 0.26697,0.62312 0.39308,0.94501 0.27289,0.69654 0.49803,1.05352 0.82482,1.30781 0.32463,0.2526 0.32996,0.26361 0.29075,0.60096 -0.0641,0.55176 0.0644,0.81637 0.89709,1.84728 0.72236,0.89428 0.76221,0.93264 1.1583,1.11509 0.37417,0.17234 0.45791,0.24609 0.95308,0.83932 1.04566,1.25274 1.90786,2.47583 2.98835,4.2392 0.29262,0.47754 0.62501,0.96433 0.73866,1.08175 0.55817,0.57668 1.68391,0.62358 2.13381,0.0889 0.30636,-0.36408 0.99411,-1.88852 1.23773,-2.74349 0.34423,-1.20803 0.35905,-1.13859 -0.4302,-2.01598 -0.79855,-0.88774 -0.84103,-0.9454 -0.84103,-1.14165 0,-0.19865 0.18229,-0.50613 0.37235,-0.62808 0.0658,-0.0422 0.27333,-0.13043 0.46114,-0.19601 0.21503,-0.0751 0.38608,-0.17895 0.46189,-0.2805 0.11069,-0.14826 0.11343,-0.17389 0.034,-0.31779 -0.16957,-0.30703 -0.44342,-0.37994 -1.41309,-0.37621 -0.94826,0.004 -1.65501,0.12199 -2.34617,0.39286 -0.31232,0.12239 -0.35412,0.12783 -0.32023,0.0417 0.0214,-0.0545 0.15651,-0.51184 0.30017,-1.01629 0.18643,-0.65465 0.2509,-0.97211 0.22521,-1.109 -0.0198,-0.10549 -0.16517,-0.36901 -0.32307,-0.58559 -0.15789,-0.21659 -0.26786,-0.41043 -0.24437,-0.43076 0.0235,-0.0203 0.34227,-0.13478 0.70838,-0.25434 0.80716,-0.26359 1.82026,-0.73206 2.04511,-0.9457 0.37932,-0.36039 0.40908,-0.60294 0.24019,-1.95747 -0.10517,-0.84359 -0.21351,-1.15666 -0.54859,-1.58537 -0.61105,-0.78176 -1.01186,-2.0134 -1.15849,-3.55988 -0.0362,-0.38203 -0.103,-0.97948 -0.14839,-1.32765 -0.0454,-0.34818 -0.0825,-0.87092 -0.0825,-1.16165 0,-0.31032 -0.0373,-0.65414 -0.0903,-0.83261 -0.11631,-0.39166 -0.0941,-0.61421 0.0613,-0.61421 0.0923,0 0.12669,-0.0566 0.16972,-0.27943 0.042,-0.21742 0.0178,-0.54427 -0.10909,-1.47288 -0.20975,-1.53533 -0.19161,-2.03124 0.10694,-2.922711 0.11477,-0.342716 0.20868,-0.661803 0.20868,-0.709081 0,-0.125871 0.0345,-0.111409 0.3956,0.16578 0.39134,0.300405 0.62752,0.400771 0.9431,0.400771 0.3069,0 0.52211,-0.201621 0.53049,-0.496984 0.006,-0.196064 -0.22489,-0.792255 -0.30624,-0.792255 -0.0209,0 -0.19827,0.06512 -0.39414,0.14471 -0.19587,0.07959 -0.36968,0.144711 -0.38623,0.144711 -0.0165,0 -0.0301,-0.06326 -0.0301,-0.140576 0,-0.156145 -0.13687,-0.322498 -0.26534,-0.322498 -0.061,0 -0.0269,-0.112852 0.12669,-0.419661 0.11556,-0.230813 0.21884,-0.429273 0.22951,-0.441022 0.0107,-0.01175 0.0616,0.02081 0.11311,0.07236 0.0516,0.05154 0.11531,0.09372 0.14171,0.09372 0.0264,0 0.27458,-0.104191 0.55153,-0.231537 0.60513,-0.27825 0.70924,-0.293964 0.57333,-0.08654 -0.0779,0.11893 -0.0817,0.161021 -0.0211,0.23411 0.10237,0.123347 0.35117,0.06181 0.77019,-0.190509 0.33764,-0.203305 0.35909,-0.300916 0.0668,-0.3037 -0.0637,-6.07e-4 -0.20043,-0.05272 -0.30389,-0.115804 -0.20812,-0.126891 -0.24569,-0.307593 -0.10314,-0.496058 0.0832,-0.109948 0.085,-0.109666 0.0868,0.01314 0.003,0.204941 0.065,0.308627 0.18456,0.308627 0.12941,0 0.43456,-0.145141 0.58765,-0.279505 0.064,-0.05621 0.18765,-0.08623 0.31836,-0.07732 0.15356,0.01047 0.35209,-0.05296 0.70568,-0.225455 0.88003,-0.429316 0.99623,-0.424577 0.28908,0.01179 -0.39336,0.242731 -0.48636,0.33895 -0.32759,0.33895 0.0425,0 0.43321,-0.126845 0.86826,-0.281877 l 0.79101,-0.281878 v 0.137167 c 0,0.157415 0.13829,0.175858 0.57082,0.07613 0.19008,-0.04383 0.2743,-0.04008 0.34088,0.01518 0.0486,0.04037 0.14993,0.06533 0.22509,0.05548 0.2793,-0.0366 0.13299,0.148224 -0.24424,0.308551 -0.51176,0.2175 -0.59497,0.433892 -0.29499,0.767155 0.12713,0.141236 0.37901,0.172436 0.49067,0.06078 0.0382,-0.0382 0.0695,-0.139304 0.0695,-0.224668 0,-0.15204 0.25141,-0.457904 0.47754,-0.580965 0.0809,-0.04404 0.1013,-0.03208 0.1013,0.0594 0,0.297046 0.50924,0.385671 0.85686,0.149124 l 0.214,-0.145617 0.0169,0.506957 c 0.009,0.278827 0.0403,0.530313 0.0688,0.55886 0.0306,0.03061 0.20716,-0.07011 0.43043,-0.245572 0.20819,-0.163611 0.40381,-0.297475 0.4347,-0.297475 0.0309,0 0.0175,0.09246 -0.0297,0.205462 -0.30365,0.726732 -0.32308,0.794818 -0.21402,0.749976 0.0568,-0.02333 0.15172,-0.0563 0.21104,-0.07327 0.0955,-0.0273 0.0999,-0.01601 0.0387,0.09835 -0.038,0.07106 -0.0561,0.142264 -0.0401,0.158236 0.016,0.01597 0.17644,-0.0016 0.35659,-0.03896 0.18015,-0.0374 0.34042,-0.05512 0.35616,-0.03938 0.0157,0.01574 -0.0143,0.111604 -0.0667,0.21303 -0.0524,0.101427 -0.0832,0.196519 -0.0684,0.211318 0.0148,0.0148 0.15635,-0.05274 0.31456,-0.15009 0.32209,-0.198183 0.36168,-0.209326 0.36168,-0.101798 0,0.04136 0.0911,0.108158 0.20255,0.148443 0.11141,0.04028 0.23145,0.127239 0.26677,0.193232 0.0585,0.109335 0.0508,0.117424 -0.0868,0.09112 -0.10209,-0.01951 -0.15101,-0.0037 -0.15101,0.04883 0,0.05833 -0.0625,0.06913 -0.25072,0.04333 -0.17828,-0.02443 -0.30616,-0.0057 -0.44256,0.06484 -0.22755,0.11767 -0.15398,0.200983 0.17872,0.202394 0.11494,4.86e-4 0.33091,0.0176 0.47993,0.03802 l 0.27095,0.03714 -0.13263,0.141432 -0.13263,0.141432 0.12387,0.100497 c 0.0965,0.07828 0.11093,0.123595 0.0654,0.204995 -0.0886,0.158294 0.0472,1.819706 0.15885,1.943036 0.0651,0.0719 0.0852,0.24203 0.0826,0.69829 -0.004,0.76462 -0.0423,0.95682 -0.36955,1.87127 -0.14703,0.41089 -0.26001,0.76655 -0.25106,0.79034 0.009,0.0238 0.26373,-0.0578 0.56618,-0.18123 0.61326,-0.25036 0.7274,-0.26753 0.91327,-0.13734 0.11446,0.0802 0.12864,0.14048 0.12864,0.54705 0,0.49842 -0.0829,0.97841 -0.21282,1.23291 -0.106,0.20756 -0.51287,0.46556 -0.97859,0.62054 -0.40926,0.1362 -0.88482,0.50695 -0.80854,0.63036 0.0748,0.12109 0.3413,0.0314 0.91636,-0.30836 0.29353,-0.17344 0.54243,-0.29098 0.55312,-0.2612 0.0237,0.0661 -0.3946,0.74283 -0.6691,1.08252 -0.11009,0.13623 -0.32903,0.31299 -0.48652,0.3928 -0.15749,0.0798 -0.31014,0.20277 -0.33922,0.27326 -0.0691,0.16752 -0.1744,1.65223 -0.17388,2.452 4.6e-4,0.74864 0.1138,1.27421 0.49367,2.28972 0.47702,1.27519 0.74636,1.66284 1.54346,2.22138 l 0.47113,0.33013 -0.31005,0.11566 -0.31006,0.11566 0.13299,0.10769 c 0.0872,0.0706 0.226,0.10769 0.40332,0.10769 0.23767,0 0.40474,-0.0766 1.38339,-0.6343 0.6122,-0.34887 1.49702,-0.88454 1.96628,-1.19039 0.92323,-0.60174 1.70965,-1.01008 2.21349,-1.14935 0.19975,-0.0552 0.27712,-0.0621 0.20766,-0.0186 -0.74355,0.46646 -2.75043,2.20046 -2.95932,2.55694 -0.0751,0.12818 -0.1538,0.3408 -0.17485,0.47247 -0.0672,0.42024 0.21111,1.6966 0.41419,1.89969 0.21752,0.21752 0.60807,0.0744 1.82522,-0.66894 0.51863,-0.31673 0.8675,-0.47181 1.37692,-0.61205 0.17866,-0.0492 -0.0511,-0.13917 -0.54883,-0.215 l -0.51724,-0.0788 1.00169,-0.48391 c 0.88816,-0.42907 0.99739,-0.49713 0.96379,-0.60052 -0.14698,-0.45223 -0.16224,-0.65614 -0.0607,-0.81109 0.10194,-0.15558 0.191,-0.20298 1.03292,-0.54975 0.24676,-0.10163 0.43565,-0.20585 0.41974,-0.23158 -0.0159,-0.0257 -0.2178,-0.10619 -0.44866,-0.17877 l -0.41975,-0.13198 0.43413,-0.0727 c 0.23878,-0.04 0.51228,-0.0747 0.60779,-0.0772 0.35659,-0.009 0.34511,-0.0954 -0.0379,-0.28447 l -0.36725,-0.18129 0.28609,0.0341 c 0.15735,0.0188 0.47004,0.0812 0.69487,0.13868 0.22483,0.0575 0.65612,0.13443 0.95842,0.17096 0.3023,0.0365 0.71405,0.10435 0.91501,0.15071 0.68207,0.15738 1.11001,0.0799 1.59274,-0.28828 0.25954,-0.19796 0.99852,-0.53035 1.28341,-0.57727 0.12734,-0.021 0.30968,-0.0529 0.40518,-0.0709 0.15688,-0.0296 0.14658,-0.0145 -0.10663,0.15568 -0.53614,0.3604 -0.484,0.60264 0.17342,0.8057 0.4759,0.14699 0.87918,0.19838 1.18907,0.15152 0.41112,-0.0622 0.4371,-0.10886 0.18775,-0.33738 l -0.21949,-0.20115 0.47327,-0.0413 c 0.2603,-0.0227 0.47327,-0.0562 0.47327,-0.0743 0,-0.0603 -0.19835,-0.19459 -0.5499,-0.37232 l -0.3473,-0.17559 0.46307,0.0308 c 0.29444,0.0196 0.70419,0.10611 1.1252,0.23764 0.36417,0.11377 0.76233,0.22287 0.8848,0.24246 l 0.22267,0.0356 -0.20213,0.13735 c -0.20149,0.13691 -0.45061,0.45779 -0.63575,0.81887 l -0.0976,0.19023 0.26305,0.11637 c 0.14469,0.064 0.26306,0.13665 0.26306,0.16145 0,0.0248 -0.0603,0.10172 -0.13397,0.17094 -0.18136,0.17038 -0.48209,0.16345 -1.21564,-0.028 -0.77065,-0.20113 -1.32037,-0.207 -1.85075,-0.0198 -0.21365,0.0754 -0.38846,0.1572 -0.38846,0.18173 0,0.0656 0.75672,0.50382 1.1425,0.6616 0.53679,0.21954 0.72911,0.22638 1.46626,0.0521 0.70821,-0.1674 1.04525,-0.31768 1.18261,-0.52732 0.18648,-0.28461 0.6753,-1.51299 0.70716,-1.77708 0.0263,-0.21759 0.0635,-0.29366 0.16665,-0.34068 0.0731,-0.0333 0.14688,-0.0971 0.16403,-0.1418 0.0172,-0.0447 -0.0853,-0.29677 -0.22774,-0.56015 -0.32249,-0.59644 -0.46326,-1.0009 -0.55047,-1.58153 -0.24495,-1.63077 -1.36897,-3.57073 -3.22802,-5.57128 -0.58786,-0.63261 -1.29854,-1.16214 -1.55968,-1.16214 -0.27412,0 -0.52532,0.17304 -0.70112,0.48297 -0.28962,0.51058 -0.60293,0.76699 -1.42745,1.16822 -0.41387,0.20141 -0.86092,0.44478 -0.99345,0.54083 -0.29803,0.21601 -0.54158,0.56607 -0.71003,1.02055 -0.1856,0.50074 -0.31725,0.69451 -0.83574,1.23004 -0.38641,0.39911 -0.49228,0.47755 -0.64459,0.47755 -0.33529,0 -0.6076,-0.4511 -0.6076,-1.00653 0,-0.23037 0.0545,-0.44483 0.20168,-0.79386 0.11093,-0.26302 0.19389,-0.48601 0.18436,-0.49554 -0.01,-0.01 -0.24601,0.0197 -0.52551,0.0649 -0.61414,0.0994 -0.7381,0.0635 -0.86362,-0.25019 -0.14567,-0.36408 -0.20059,-0.82679 -0.27807,-2.34271 -0.0865,-1.69282 -0.10599,-1.62852 0.64575,-2.13332 0.42,-0.28204 0.49595,-0.31508 0.5276,-0.22953 0.0203,0.055 0.08,0.13565 0.13258,0.17929 0.14589,0.12108 0.38844,0.0204 1.09764,-0.45537 0.34326,-0.2303 0.63593,-0.40691 0.65037,-0.39247 0.0145,0.0144 -0.10605,0.13704 -0.26777,0.27244 -0.16172,0.1354 -0.33274,0.32103 -0.38005,0.41252 l -0.086,0.16634 h 0.19965 c 0.13651,0 0.27884,-0.0603 0.45009,-0.19067 0.13774,-0.10487 0.27704,-0.20691 0.30956,-0.22677 0.0376,-0.0229 0.0587,0.0834 0.0579,0.29197 l -0.001,0.32807 0.19597,-0.009 c 0.10779,-0.005 0.27058,-0.0645 0.36178,-0.13198 l 0.1658,-0.12258 v 0.18262 c 0,0.17335 0.009,0.1808 0.17942,0.14674 0.0987,-0.0197 0.25483,-0.0993 0.34699,-0.17689 0.23518,-0.19789 0.36745,-0.22656 0.56762,-0.12304 0.25761,0.13321 0.44177,0.11004 0.66194,-0.0833 0.26547,-0.23309 0.67517,-0.77054 0.67517,-0.88571 0,-0.0512 -0.0956,-0.16591 -0.2124,-0.25501 l -0.21239,-0.162 0.31131,-0.0448 c 0.17122,-0.0246 0.37391,-0.0858 0.45043,-0.13596 0.12161,-0.0797 0.13444,-0.12048 0.1019,-0.323939 l -0.0372,-0.232781 0.27673,0.0387 c 0.67059,0.09379 0.65297,0.0857 0.65297,0.29978 v 0.19615 h 0.54517 c 0.29984,0 0.58558,0.0155 0.63497,0.0345 0.13209,0.0507 1.3294,1.41143 1.28286,1.45796 -0.0218,0.0218 -0.23852,0.0497 -0.48158,0.062 -0.49819,0.0252 -0.76585,0.16264 -0.76585,0.39336 0,0.2982 0.39205,0.44038 1.71214,0.62094 0.32087,0.0439 0.70229,0.13239 0.84761,0.19667 0.23405,0.10353 1.70216,1.38524 1.64835,1.43905 -0.0109,0.0109 -0.40865,-0.11086 -0.88391,-0.27058 -0.47526,-0.15971 -0.92923,-0.28314 -1.00882,-0.27428 -0.25443,0.0283 -0.21315,0.22878 0.1305,0.6337 0.40622,0.47867 0.90947,0.89714 1.91451,1.59198 0.92171,0.63724 1.4766,1.16544 1.77552,1.69011 0.11133,0.19541 0.24763,0.43333 0.30287,0.5287 0.12056,0.20812 0.24298,0.2183 0.70673,0.0587 0.35459,-0.12199 0.43911,-0.10723 0.63677,0.11118 0.14373,0.15881 0.42352,0.32587 0.62542,0.37341 0.15161,0.0357 0.15918,0.0274 0.15918,-0.17561 0,-0.22029 -0.14384,-0.50847 -0.51592,-1.03363 -0.23442,-0.33088 -0.23228,-0.32947 0.72643,0.47693 1.26356,1.06281 2.00315,1.93537 2.69497,3.17949 0.20074,0.36099 0.59525,1.01442 0.8767,1.45206 0.5472,0.85089 0.88387,1.48583 1.36921,2.58237 0.28575,0.64557 0.30006,0.7001 0.23801,0.90718 -0.0363,0.12118 -0.25309,0.4588 -0.48175,0.75026 -0.36463,0.46477 -0.42122,0.51515 -0.46023,0.40969 -0.0556,-0.15029 -0.14518,-0.15495 -0.1912,-0.01 -0.0402,0.12661 -1.18023,1.20627 -1.79021,1.69539 -1.22633,0.98333 -2.62391,1.52992 -4.0723,1.59265 -0.42183,0.0183 -0.76697,0.0552 -0.76697,0.0821 0,0.0269 0.15134,0.12523 0.3363,0.2186 0.18496,0.0934 0.3696,0.20989 0.41031,0.25894 0.10669,0.12856 0.0348,0.37861 -0.22414,0.77918 -0.24597,0.38056 -0.8356,0.83616 -1.99851,1.54422 -0.63242,0.38506 -2.32619,1.24358 -2.45345,1.24358 -0.0393,0 -0.006,-0.11928 0.0813,-0.29159 0.0813,-0.16038 0.13383,-0.31414 0.1168,-0.3417 -0.017,-0.0276 -0.19379,-0.002 -0.39279,0.0572 -1.02071,0.3027 -1.52171,0.36756 -2.85085,0.36905 -1.23931,0.001 -1.74459,-0.0508 -2.45049,-0.25328 -0.13484,-0.0387 -0.18247,-0.0304 -0.20801,0.0362 -0.058,0.15108 -0.0357,0.39843 0.0458,0.50998 0.0681,0.0931 0.0633,0.13443 -0.0345,0.30025 -0.0636,0.1078 -0.13749,0.38954 -0.16813,0.64114 -0.12936,1.06208 -0.37934,1.73123 -1.41102,3.77718 -0.17539,0.3478 -1.54935,2.69168 -2.11598,3.60968 -0.36675,0.59418 -1.53687,2.0937 -1.79057,2.29464 -0.55027,0.43582 -1.2076,0.54902 -2.23288,0.38451 -0.66461,-0.10663 -1.7132,-0.21099 -2.12006,-0.21099 h -0.28109 l 0.13197,0.24514 c 0.0726,0.13482 0.37004,0.47995 0.66102,0.76696 0.29098,0.28701 0.58357,0.62664 0.65021,0.75474 0.15856,0.3048 0.2389,0.74587 0.2389,1.31156 0,0.40888 0.0152,0.47299 0.14208,0.59988 0.10402,0.10403 0.2048,0.14208 0.37624,0.14208 0.1288,0 0.23229,0.0195 0.22999,0.0434 -0.002,0.0239 -0.13004,0.1476 -0.28388,0.27495 -0.52518,0.43474 -3.06774,3.41537 -3.60451,4.22554 -0.63221,0.95425 -1.04031,1.86387 -2.45233,5.4661 -0.39224,1.00066 -0.74882,1.85503 -0.79238,1.89859 -0.0631,0.0631 -0.48347,0.0833 -2.07127,0.0994 -2.83715,0.0288 -3.50302,0.11771 -6.56117,0.87648 -1.90658,0.47305 -2.7821,0.64871 -4.14245,0.83112 -0.49346,0.0662 -0.95249,0.13263 -1.02006,0.1477 -0.1097,0.0245 -0.13039,-0.0109 -0.19323,-0.3303 z m 3.44343,-3.46374 c 0.0348,-0.0564 -0.0768,-0.21607 -0.66589,-0.95251 -0.31113,-0.38896 -0.58104,-0.91751 -0.84213,-1.64906 -0.37602,-1.05358 -0.6531,-1.59395 -0.76165,-1.4854 -0.0175,0.0175 0.0629,0.58665 0.17869,1.26478 0.14883,0.87167 0.25312,1.32056 0.35591,1.53195 0.18626,0.38307 0.77184,0.93324 1.24488,1.16962 0.39962,0.1997 0.43581,0.2086 0.49019,0.12062 z m -0.92727,-6.07604 c 0.0632,-0.10227 0.0485,-0.38987 -0.0295,-0.57825 -0.0569,-0.13744 -0.16293,-0.22328 -0.43367,-0.3512 -0.4751,-0.22448 -0.76388,-0.52863 -1.13088,-1.19112 -0.1739,-0.31391 -0.32547,-0.52669 -0.3545,-0.49765 -0.0598,0.0598 0.13511,1.09894 0.3019,1.60992 0.138,0.42278 0.40862,0.70948 0.86473,0.91608 0.32898,0.14902 0.71842,0.19495 0.78191,0.0922 z m 9.74144,-7.47787 c 0.14933,-0.14933 0.0261,-1.28115 -0.20135,-1.84966 -0.0487,-0.12161 -0.17706,-0.2989 -0.28534,-0.39397 -0.32197,-0.28269 -0.67498,-0.35112 -1.73028,-0.3354 -0.87304,0.013 -0.96763,0.003 -1.6497,-0.16944 -1.31439,-0.33287 -1.30761,-0.33206 -1.85414,-0.22081 -0.61441,0.12506 -1.03696,0.25447 -2.0241,0.61987 -0.81052,0.30003 -0.98403,0.40014 -0.98403,0.56774 0,0.15137 0.21734,0.39443 0.46624,0.52141 0.28039,0.14304 0.56633,0.14352 1.29923,0.002 2.18018,-0.42052 3.66475,-0.1797 6.01996,0.97653 0.73863,0.36262 0.83401,0.39108 0.94351,0.28158 z m 6.78897,-3.51222 c 0.54256,-0.20825 0.72479,-0.52051 0.39974,-0.68497 -0.42352,-0.21428 -1.79118,0.0612 -2.44555,0.49254 -0.16639,0.10968 -0.20281,0.16112 -0.15495,0.21879 0.0925,0.11147 0.29165,0.13161 1.12496,0.11381 0.60291,-0.0129 0.81677,-0.0408 1.0758,-0.14017 z M 186.53014,115.246 c 0.65067,-0.19772 0.37779,-0.35307 -0.81038,-0.46135 -0.73195,-0.0667 -1.36587,-0.0136 -1.58982,0.1331 l -0.16249,0.10647 0.17974,0.1138 c 0.0988,0.0626 0.30428,0.1365 0.45649,0.16423 0.34935,0.0637 1.65757,0.0255 1.92646,-0.0562 z m 7.75649,-0.15088 c 0.20693,-0.0484 0.61637,-0.2045 0.90985,-0.34686 0.53751,-0.26071 0.74306,-0.4548 0.58664,-0.55391 -0.13441,-0.0852 -0.34202,-0.0589 -1.17813,0.14914 -0.44571,0.1109 -1.14396,0.23851 -1.55167,0.28358 -0.40771,0.0451 -0.75703,0.0977 -0.77626,0.11692 -0.054,0.054 0.16632,0.27425 0.35987,0.35968 0.23841,0.10524 1.18428,0.10034 1.6497,-0.009 z m 10.4502,-2.81753 c 0.0864,-0.10269 0.4552,-0.78644 0.81953,-1.51946 0.36434,-0.73301 0.6978,-1.36899 0.74101,-1.41327 0.0443,-0.0454 0.54074,-0.16242 1.13921,-0.26848 1.3756,-0.24377 1.78418,-0.33076 1.78418,-0.37985 0,-0.022 -0.10727,-0.0829 -0.23838,-0.1354 -1.29337,-0.5175 -2.79949,-0.27032 -3.58415,0.58821 -0.47622,0.52106 -0.87976,1.52701 -0.96121,2.39612 -0.0386,0.41158 0.0131,0.91884 0.0935,0.91884 0.0271,0 0.11988,-0.084 0.20629,-0.18671 z m -26.84538,-1.10122 c 0.27415,-0.29266 0.31438,-0.70612 0.12387,-1.27322 -0.26264,-0.78181 -1.16409,-2.51846 -1.51433,-2.91736 -0.25495,-0.29037 -0.42717,-0.26532 -1.30191,0.18935 -0.40579,0.21093 -0.74927,0.39388 -0.7633,0.40657 -0.0705,0.0638 0.21971,0.22488 0.92398,0.51285 0.42772,0.17489 0.8345,0.37656 0.90396,0.44815 0.10514,0.10838 0.41119,1.00552 0.80796,2.36841 0.0155,0.0531 0.081,0.16379 0.14569,0.24601 0.15633,0.19874 0.49682,0.20846 0.67408,0.0192 z m 16.46561,-1.02659 c 0.46064,-0.14227 0.96528,-0.46844 1.35616,-0.87652 0.25783,-0.26917 1.40732,-1.78769 2.92437,-3.86322 0.85345,-1.16763 1.26395,-1.99729 1.46788,-2.96673 0.10646,-0.5061 0.11673,-1.24172 0.0233,-1.67063 -0.08,-0.36728 -0.35789,-0.6956 -0.58879,-0.6956 -0.22534,0 -0.79197,0.21588 -1.20092,0.45754 -0.93233,0.55094 -1.40158,0.73322 -2.77456,1.07782 -1.60185,0.40202 -1.96557,0.52016 -2.15229,0.69905 -0.0921,0.0883 -0.16752,0.17955 -0.16752,0.20283 0,0.0233 0.0944,0.10067 0.20977,0.17197 0.16859,0.1042 0.31912,0.13444 0.76696,0.15408 0.59562,0.0261 0.70727,0.007 2.14015,-0.36035 0.93929,-0.24101 1.14386,-0.23794 1.08154,0.0162 -0.0619,0.25237 -0.44092,0.5969 -1.85019,1.68174 -2.03332,1.56521 -2.12849,1.66777 -2.49136,2.68472 -0.32461,0.90973 -0.52102,2.44903 -0.36127,2.83136 0.21037,0.5035 0.86479,0.68796 1.61675,0.4557 z m -5.09278,-19.91953 c 0.0591,-0.0792 0.23391,-0.58545 0.38847,-1.12509 0.25451,-0.88862 0.27627,-1.01084 0.23072,-1.29566 -0.0277,-0.17296 -0.0919,-0.3553 -0.14267,-0.40519 -0.084,-0.0825 -0.10254,-0.0783 -0.20441,0.0459 -0.0616,0.0752 -0.11204,0.17679 -0.11204,0.22584 0,0.0491 -0.13024,0.60478 -0.28942,1.23495 -0.15918,0.63017 -0.28942,1.19798 -0.28942,1.26181 0,0.11647 0.1553,0.24797 0.25696,0.21757 0.0299,-0.009 0.10271,-0.081 0.16181,-0.16017 z m 3.50638,-0.53772 c 0.18133,-0.0938 0.39654,-0.44812 0.4253,-0.70028 l 0.0198,-0.17366 -0.83666,-0.0161 c -0.46016,-0.009 -0.86947,-0.004 -0.90958,0.0118 -0.11957,0.0459 0.0216,0.35357 0.25708,0.56032 0.22482,0.1974 0.61521,0.39574 0.78295,0.39779 0.0573,7e-4 0.17479,-0.0353 0.2611,-0.0799 z m -2.35169,-4.31442 c 0.18093,-0.0309 0.50652,-0.14575 0.72355,-0.25528 0.41558,-0.20971 0.94451,-0.63379 0.94451,-0.75727 0,-0.16524 -0.24763,-0.27856 -0.89673,-0.41035 -0.70178,-0.14248 -0.8398,-0.20413 -0.8398,-0.37514 0,-0.1713 0.12247,-0.21501 0.72105,-0.25738 0.31699,-0.0224 0.62129,-0.0648 0.67622,-0.0942 0.22141,-0.11849 0.17724,-0.468406 -0.069,-0.546557 -0.23008,-0.07303 -1.35625,-0.127178 -1.51344,-0.07278 -0.21388,0.07402 -0.29779,0.350443 -0.24788,0.816527 l 0.0392,0.366 -0.33354,0.39315 c -0.31703,0.3737 -0.58437,0.55296 -0.82466,0.55296 -0.0598,0 -0.15664,0.053 -0.21528,0.11781 -0.10387,0.11478 -0.10335,0.12111 0.0205,0.24601 0.081,0.0817 0.31063,0.17325 0.63307,0.25239 0.50958,0.12507 0.58225,0.12655 1.18226,0.0241 z"
     id="path922"
     inkscape:connector-curvature="0" />
</svg>
