<?xml version="1.0" encoding="UTF-8" standalone="no"?>
<svg
   xmlns:osb="http://www.openswatchbook.org/uri/2009/osb"
   xmlns:dc="http://purl.org/dc/elements/1.1/"
   xmlns:cc="http://creativecommons.org/ns#"
   xmlns:rdf="http://www.w3.org/1999/02/22-rdf-syntax-ns#"
   xmlns:svg="http://www.w3.org/2000/svg"
   xmlns="http://www.w3.org/2000/svg"
   xmlns:xlink="http://www.w3.org/1999/xlink"
   xmlns:sodipodi="http://sodipodi.sourceforge.net/DTD/sodipodi-0.dtd"
   xmlns:inkscape="http://www.inkscape.org/namespaces/inkscape"
   id="Layer_1"
   data-name="Layer 1"
   viewBox="0 0 232.55 231.14"
   version="1.1"
   sodipodi:docname="tutorial1.svg"
   inkscape:version="0.92.5 (2060ec1f9f, 2020-04-08)">
  <metadata
     id="metadata49">
    <rdf:RDF>
      <cc:Work
         rdf:about="">
        <dc:format>image/svg+xml</dc:format>
        <dc:type
           rdf:resource="http://purl.org/dc/dcmitype/StillImage" />
      </cc:Work>
    </rdf:RDF>
  </metadata>
  <sodipodi:namedview
     pagecolor="#ffffff"
     bordercolor="#666666"
     borderopacity="1"
     objecttolerance="10"
     gridtolerance="10"
     guidetolerance="10"
     inkscape:pageopacity="0"
     inkscape:pageshadow="2"
     inkscape:window-width="1848"
     inkscape:window-height="1016"
     id="namedview47"
     showgrid="false"
     inkscape:zoom="2.0420525"
     inkscape:cx="97.520066"
     inkscape:cy="154.05884"
     inkscape:window-x="72"
     inkscape:window-y="27"
     inkscape:window-maximized="1"
     inkscape:current-layer="Layer_1" />
  <defs
     id="defs4">
    <linearGradient
       inkscape:collect="always"
       id="linearGradient976">
      <stop
         style="stop-color:#512da8;stop-opacity:1;"
         offset="0"
         id="stop972" />
      <stop
         style="stop-color:#ffc107;stop-opacity:1"
         offset="1"
         id="stop974" />
    </linearGradient>
    <linearGradient
       id="linearGradient964"
       osb:paint="gradient">
      <stop
         style="stop-color:#512da8;stop-opacity:1"
         offset="0"
         id="stop960" />
      <stop
         style="stop-color:#ffc107;stop-opacity:1"
         offset="1"
         id="stop962" />
    </linearGradient>
    <style
       id="style2">.cls-1{fill:#42a5f5;}.cls-2{fill:#1e88e5;}.cls-3{fill:#1565c0;}.cls-4{fill:#6d44c6;}.cls-5{fill:#f57c00;}.cls-6{fill:#512da8;}.cls-7{fill:#ff9800;}.cls-8{fill:#ffc107;}.cls-9{fill:#815fe0;}</style>
    <clipPath
       id="_clipPath_5whuutb0iqX0aqXRgqjUDsYleFglFfil">
      <rect
         id="rect2"
         height="219"
         width="203"
         x="0"
         y="0" />
    </clipPath>
    <linearGradient
       gradientTransform="translate(0.8727806,36.705571)"
       inkscape:collect="always"
       xlink:href="#linearGradient976"
       id="linearGradient978-1"
       x1="1.9635631"
       y1="188.20152"
       x2="228.98605"
       y2="188.20152"
       gradientUnits="userSpaceOnUse" />
  </defs>
  <path
     class="cls-1"
     d="m 38.828525,94.9637 a 2.4776234,2.4776234 0 0 1 -0.0326,-0.38407 l -5.99198,-0.87608 a 2.7939157,2.7939157 0 0 1 -1.95549,2.17137 l 0.70036,6.35095 a 2.7788542,2.7788542 0 0 1 1.29278,0.4393 l 6.44383,-6.62708 a 2.7788542,2.7788542 0 0 1 -0.45686,-1.07439 z"
     id="path6"
     inkscape:connector-curvature="0"
     style="fill:#42a5f5;stroke-width:0.25102568" />
  <path
     class="cls-2"
     d="m 30.466865,102.34636 -0.69534,-6.36601 a 2.7939157,2.7939157 0 0 1 -1.45344,-0.58238 l -6.82539,7.65629 a 2.7612824,2.7612824 0 0 1 0.82085,1.41327 h 6.23799 a 2.7914055,2.7914055 0 0 1 1.91533,-2.12117 z"
     id="path8"
     inkscape:connector-curvature="0"
     style="fill:#1e88e5;stroke-width:0.25102568" />
  <path
     class="cls-3"
     d="M 11.278461,104.45247 16.55,117.93255 a 2.7914055,2.7914055 0 0 1 2.781364,1.41829 l 6.642141,-2.19899 a 2.776344,2.776344 0 0 1 0.55728,-2.03581 l -5.98195,-7.37765 a 2.532849,2.532849 0 0 1 -0.43929,0.12803 2.806467,2.806467 0 0 1 -3.275886,-2.23664 2.8416106,2.8416106 0 0 1 -0.02762,-0.75308 L 12.2198,103.42829 a 2.7612824,2.7612824 0 0 1 -0.941346,1.02418 z"
     id="path10"
     inkscape:connector-curvature="0"
     style="fill:#1565c0;stroke-width:0.25102568" />
  <path
     class="cls-4"
     d="m 35.853875,123.63836 a 2.8014465,2.8014465 0 0 1 2.081,-1.72204 c 0.0753,-0.015 0.14811,0 0.2209,-0.02 l 0.77567,-9.303 a 2.7813645,2.7813645 0 0 1 -1.31035,-0.91123 l -6.29573,4.04904 a 2.776344,2.776344 0 0 1 0.16819,0.55979 2.796426,2.796426 0 0 1 -5.19623,1.87767 l -6.644648,2.20652 c 0,0.0828 0.01757,0.16567 0.02008,0.25103 z"
     id="path12"
     inkscape:connector-curvature="0"
     style="fill:#6d44c6;stroke-width:0.25102568" />
  <path
     class="cls-2"
     d="m 22.910995,88.58012 a 2.786385,2.786385 0 0 1 -1.56389,-0.15815 l -9.44359,11.871 a 2.7612824,2.7612824 0 0 1 0.627564,1.28777 2.8039568,2.8039568 0 0 1 0.01757,0.83089 l 4.553605,1.43838 a 2.7612824,2.7612824 0 0 1 3.456621,-1.34801 l 7.05132,-7.91735 a 2.8491414,2.8491414 0 0 1 -0.32885,-0.86353 2.776344,2.776344 0 0 1 0.57736,-2.25923 l -3.61728,-3.54197 a 2.7612824,2.7612824 0 0 1 -1.33043,0.6602 z"
     id="path14"
     inkscape:connector-curvature="0"
     style="fill:#1e88e5;stroke-width:0.25102568" />
  <path
     class="cls-2"
     d="m 41.775565,97.22795 -1.22249,10.02847 a 2.8014465,2.8014465 0 0 1 1.67685,1.30785 l 8.16838,-1.90278 a 2.7813645,2.7813645 0 0 1 0.50205,-1.70948 l -7.80439,-8.1508 a 2.3696824,2.3696824 0 0 1 -1.31286,0.42674 z"
     id="path16"
     inkscape:connector-curvature="0"
     style="fill:#1e88e5;stroke-width:0.25102568" />
  <path
     class="cls-5"
     d="m 43.690895,86.06071 -18.51565,0.32634 a 2.7412004,2.7412004 0 0 1 -0.25103,0.81332 l 3.79049,3.69258 a 2.7612824,2.7612824 0 0 1 4.08921,1.85508 l 6.16017,0.90621 a 2.7612824,2.7612824 0 0 1 3.44156,-1.75718 l 2.25923,-4.26744 a 2.776344,2.776344 0 0 1 -0.97398,-1.56891 z"
     id="path18"
     inkscape:connector-curvature="0"
     style="fill:#f57c00;stroke-width:0.25102568" />
  <path
     class="cls-3"
     d="m 33.428965,106.81964 a 2.7612824,2.7612824 0 0 1 -1.61159,0.95139 2.8918158,2.8918158 0 0 1 -0.60245,0.0452 l -1.45093,6.40367 a 2.806467,2.806467 0 0 1 0.96644,0.62756 l 6.39614,-4.11431 c -0.0251,-0.0879 -0.0602,-0.1707 -0.0778,-0.25102 a 2.7612824,2.7612824 0 0 1 0.15564,-1.54883 z"
     id="path20"
     inkscape:connector-curvature="0"
     style="fill:#1565c0;stroke-width:0.25102568" />
  <path
     class="cls-2"
     d="m 39.481195,107.17359 1.22751,-10.07617 a 2.8215286,2.8215286 0 0 1 -0.66522,-0.31881 l -6.44382,6.62708 a 2.7336696,2.7336696 0 0 1 0.35394,2.46005 l 3.83066,2.13623 a 2.7612824,2.7612824 0 0 1 1.50615,-0.81834 c 0.0603,-0.005 0.12551,-0.003 0.19078,-0.01 z"
     id="path22"
     inkscape:connector-curvature="0"
     style="fill:#1e88e5;stroke-width:0.25102568" />
  <path
     class="cls-3"
     d="m 27.334065,114.40312 a 2.7813645,2.7813645 0 0 1 0.88612,-0.34139 2.894326,2.894326 0 0 1 0.48448,-0.0426 l 1.46097,-6.44634 a 2.796426,2.796426 0 0 1 -1.61912,-2.0308 h -6.19531 a 2.796426,2.796426 0 0 1 -0.87608,1.64422 z"
     id="path24"
     inkscape:connector-curvature="0"
     style="fill:#1565c0;stroke-width:0.25102568" />
  <path
     class="cls-6"
     d="m 37.179285,127.15272 a 2.7261388,2.7261388 0 0 1 -1.52372,-2.46257 l -16.156013,-3.00979 a 2.7939157,2.7939157 0 0 1 -2.098575,1.77726 2.7311594,2.7311594 0 0 1 -0.868549,0.0126 l -2.598116,6.72999 21.098703,4.41806 z"
     id="path26"
     inkscape:connector-curvature="0"
     style="fill:#512da8;stroke-width:0.25102568" />
  <path
     class="cls-6"
     d="m 15.513264,123.13631 a 2.7788542,2.7788542 0 0 1 0,-4.86739 L 10.279378,104.84407 A 2.8014465,2.8014465 0 0 1 8.253601,104.4349 l -6.935839,7.16678 11.722899,17.93327 z"
     id="path28"
     inkscape:connector-curvature="0"
     style="fill:#512da8;stroke-width:0.25102568" />
  <path
     class="cls-6"
     d="m 41.248415,124.81567 a 2.8014465,2.8014465 0 0 1 -2.2743,2.62071 2.7311594,2.7311594 0 0 1 -0.76813,0.0251 l -1.95549,6.82039 17.19275,-11.23842 z"
     id="path30"
     inkscape:connector-curvature="0"
     style="fill:#512da8;stroke-width:0.25102568" />
  <path
     class="cls-7"
     d="m 48.550755,83.55207 a 2.7462209,2.7462209 0 0 1 0.60748,1.25512 2.7914055,2.7914055 0 0 1 -1.41077,2.96462 l 5.11842,16.00791 a 2.796426,2.796426 0 0 1 3.07757,2.25923 2.8265491,2.8265491 0 0 1 0.0477,0.55979 l 3.60724,0.75307 -5.98445,-30.010117 z"
     id="path32"
     inkscape:connector-curvature="0"
     style="fill:#ff9800;stroke-width:0.25102568" />
  <path
     class="cls-4"
     d="m 55.770255,107.65555 a 2.7788542,2.7788542 0 0 1 -3.88839,1.37312 l -11.28361,13.85661 a 2.7386901,2.7386901 0 0 1 0.4895,0.85851 l 13.6307,-1.9831 4.80965,-13.32695 z"
     id="path34"
     inkscape:connector-curvature="0"
     style="fill:#6d44c6;stroke-width:0.25102568" />
  <path
     class="cls-5"
     d="m 7.480442,103.68935 a 2.7612824,2.7612824 0 0 1 -0.459377,-1.08192 2.806467,2.806467 0 0 1 2.236639,-3.26334 2.7612824,2.7612824 0 0 1 1.804875,0.27864 L 20.440895,87.83457 A 2.786385,2.786385 0 0 1 19.788235,86.8631 L 5.534993,89.54908 1.222372,110.15326 Z"
     id="path36"
     inkscape:connector-curvature="0"
     style="fill:#f57c00;stroke-width:0.25102568" />
  <path
     class="cls-5"
     d="m 51.844215,104.1186 -5.11842,-16.0079 a 2.7939157,2.7939157 0 0 1 -1.13965,-0.10292 l -2.25924,4.26743 a 2.7612824,2.7612824 0 0 1 0.52213,3.78296 l 7.81192,8.1508 c 0.0678,-0.0352 0.12803,-0.0602 0.18326,-0.0904 z"
     id="path38"
     inkscape:connector-curvature="0"
     style="fill:#f57c00;stroke-width:0.25102568" />
  <path
     class="cls-8"
     d="m 26.056345,76.596147 17.99853,7.219503 a 2.7612824,2.7612824 0 0 1 3.67,-0.93633 l 5.06068,-6.220417 z"
     id="path40"
     inkscape:connector-curvature="0"
     style="fill:#ffc107;stroke-width:0.25102568" />
  <path
     class="cls-7"
     d="m 19.58992,85.80628 a 2.796426,2.796426 0 0 1 5.522565,-0.63258 l 18.54327,-0.32634 c 0,0 0,-0.0226 0,-0.0352 L 24.055665,76.947583 6.830286,88.21111 Z"
     id="path42"
     inkscape:connector-curvature="0"
     style="fill:#ff9800;stroke-width:0.25102568" />
  <path
     class="cls-9"
     d="m 51.045945,108.3509 a 2.7612824,2.7612824 0 0 1 -0.40666,-0.64012 l -8.06546,1.87014 a 2.796426,2.796426 0 0 1 -2.25923,3.11272 2.8616927,2.8616927 0 0 1 -0.32633,0.0276 l -0.78069,9.26285 a 2.8692234,2.8692234 0 0 1 0.54723,0.2209 z"
     id="path44"
     inkscape:connector-curvature="0"
     style="fill:#815fe0;stroke-width:0.25102568" />
  <path
     inkscape:connector-curvature="0"
     id="path906"
     d="m 113.66914,125.92769 c -4.91134,-0.62233 -8.56194,-2.44988 -12.27903,-6.14708 -4.278349,-4.25544 -6.29053,-9.41067 -6.018014,-15.4182 0.4069,-8.96999 5.843594,-16.14202 14.478504,-19.09989 2.10259,-0.72024 2.86869,-0.82429 6.154,-0.83576 2.78079,-0.01 4.21884,0.12708 5.55362,0.52827 8.99324,2.70308 14.87348,9.95903 15.37283,18.96936 0.36103,6.51447 -1.82666,12.05614 -6.47279,16.39627 -3.37993,3.15734 -7.27366,5.04758 -11.32102,5.49588 -0.97996,0.10854 -2.11948,0.24026 -2.53225,0.29271 -0.41277,0.0524 -1.7339,-0.0293 -2.93585,-0.18156 z m 7.70493,-5.33416 c 5.32653,-1.81964 9.52806,-6.55557 10.71149,-12.07387 0.57188,-2.66666 0.52607,-4.58535 -0.17489,-7.3261 -1.40847,-5.50704 -5.39908,-9.72787 -10.93829,-11.56932 -2.2926,-0.76214 -6.82972,-0.84446 -9.11637,-0.16539 -6.30573,1.87259 -10.85607,7.07206 -11.77299,13.45245 -0.343498,2.39027 -0.203115,4.28362 0.50824,6.85463 1.46173,5.28301 6.24156,9.86543 11.74545,11.26033 2.39182,0.60618 6.58378,0.40546 9.03736,-0.43273 z m 54.59276,-27.48295 c -2.50794,-2.29598 -5.3925,-3.60841 -8.84414,-4.02395 l -1.87792,-0.22608 -0.77636,1.17316 c -0.98704,1.49152 -3.01934,2.45562 -4.70093,2.23007 -1.57264,-0.21094 -3.32879,-1.41641 -3.94006,-2.70458 -0.57141,-1.20415 -0.65425,-3.54347 -0.1595,-4.50408 1.59008,-3.08736 5.58592,-3.86765 8.06776,-1.57544 0.57574,0.53175 1.23978,0.73606 2.85186,0.87746 4.61702,0.40498 9.33275,2.36745 12.35273,5.14064 l 1.75645,1.61293 -1.65107,1.65347 -1.65108,1.65347 z"
     style="fill:#f25f23;stroke-width:0.30019546" />
  <path
     inkscape:connector-curvature="0"
     id="path904"
     d="m 168.4353,127.94364 c -0.63481,-0.22825 -1.44534,-0.68353 -1.80117,-1.01173 -0.46757,-0.43125 -1.42989,-0.69683 -3.47018,-0.95768 -5.64278,-0.72144 -8.91609,-2.27853 -12.71192,-6.04697 -1.44469,-1.43427 -2.62671,-2.7538 -2.62671,-2.9323 0,-0.17849 0.31058,-0.32454 0.69017,-0.32454 0.3796,0 1.29144,-0.38419 2.02632,-0.85375 l 1.33615,-0.85375 2.02857,1.90125 c 2.33253,2.18614 4.6892,3.47833 7.55645,4.14329 2.93701,0.68113 3.51768,0.61104 4.22397,-0.50991 0.94474,-1.49937 2.40623,-2.32615 4.11194,-2.32615 1.69847,0 2.72657,0.46189 3.99334,1.79409 0.8292,0.87202 0.90059,1.11806 0.90059,3.1038 0,1.75024 -0.12619,2.3336 -0.66953,3.09533 -1.18328,1.65885 -3.69672,2.45905 -5.58799,1.77902 z m 25.01973,-22.69651 V 84.21757 l 11.93277,0.0909 c 10.95606,0.0835 12.04334,0.13788 13.28365,0.66466 6.96123,2.95653 9.56737,10.8683 5.55232,16.85579 l -1.24674,1.85922 2.0397,1.84877 c 1.51443,1.37267 2.28829,2.36785 3.00499,3.86442 0.87341,1.82381 0.96638,2.28708 0.97684,4.86751 0.0109,2.68911 -0.0521,2.98308 -1.10342,5.15135 -1.18124,2.43614 -2.93754,4.28861 -5.12783,5.40863 -2.48442,1.27043 -4.47531,1.43712 -17.22941,1.44263 l -12.08287,0.005 z m 26.23228,15.85949 c 1.70291,-0.50572 3.93862,-2.77691 4.40591,-4.47585 0.99676,-3.62398 -0.39474,-7.0836 -3.48973,-8.67633 l -1.4383,-0.74017 h -10.52857 -10.52856 l -0.0805,7.12964 -0.0805,7.12964 h 10.2523 c 7.20398,0 10.61968,-0.1091 11.48791,-0.36693 z m -3.02093,-18.86723 c 0.63084,-0.17517 1.68755,-0.80687 2.34825,-1.40378 1.72963,-1.56261 2.35858,-2.97142 2.35858,-5.28308 0,-1.67886 -0.12665,-2.11768 -0.97564,-3.38041 -0.55257,-0.82186 -1.61604,-1.84542 -2.45247,-2.36044 l -1.47684,-0.90934 h -9.1801 -9.1801 l -0.0807,6.82945 -0.0807,6.82945 8.78636,-0.002 c 5.26786,-9e-4 9.24566,-0.12922 9.93333,-0.32018 z"
     style="fill:#0064b3;stroke-width:0.30019546"
     sodipodi:nodetypes="ccccsssccccscsccccccccscscccccccscccccsccccscccccccccc" />
  <path
     inkscape:connector-curvature="0"
     id="path902"
     d="m 144.89549,114.536 c -1.95717,-0.96878 -2.62378,-2.11565 -2.62378,-4.51406 0,-1.80211 0.0945,-2.11307 0.97563,-3.20949 0.83032,-1.03323 0.97564,-1.45544 0.97564,-2.83471 0,-4.65362 2.71766,-10.51027 6.5332,-14.07926 1.80282,-1.68633 2.77286,-2.2592 2.77286,-1.63757 0,0.2367 0.39565,1.18252 0.87923,2.10182 l 0.87924,1.67145 -1.70478,1.74432 c -2.70556,2.76833 -4.55663,6.89855 -4.55663,10.16703 0,1.10913 0.11921,1.3285 1.00634,1.85192 1.13377,0.66893 2.29942,2.77613 2.28922,4.1383 -0.008,1.08141 -0.90685,3.10257 -1.68812,3.79632 -0.80511,0.71491 -2.6271,1.43742 -3.62411,1.43714 -0.45935,-1.3e-4 -1.41063,-0.28508 -2.11394,-0.63321 z"
     style="fill:#039330;stroke-width:0.30019546" />
  <path
     inkscape:connector-curvature="0"
     id="path900"
     d="m 176.64409,121.95433 c 0,-0.2309 -0.3886,-1.15855 -0.86355,-2.06145 l -0.86355,-1.64163 1.79034,-1.76605 c 2.01815,-1.99075 3.95705,-5.59358 4.30265,-7.9951 l 0.20521,-1.42593 h -5.46438 -5.46438 l -1.29371,1.33112 c -3.52409,3.62603 -8.85938,1.59286 -8.85938,-3.37614 0,-4.28728 5.13645,-6.42624 8.38472,-3.49164 l 1.1442,1.03373 h 8.18515 8.18515 l -0.16316,3.52729 c -0.2986,6.45523 -2.77918,11.51318 -7.47872,15.24924 -1.42481,1.1327 -1.74659,1.24629 -1.74659,0.61656 z"
     style="fill:#003f5f;stroke-width:0.30019546" />
</svg>
