<?xml version="1.0" encoding="UTF-8" standalone="no"?>
<!-- Created with Inkscape (http://www.inkscape.org/) -->

<svg
   xmlns:dc="http://purl.org/dc/elements/1.1/"
   xmlns:cc="http://creativecommons.org/ns#"
   xmlns:rdf="http://www.w3.org/1999/02/22-rdf-syntax-ns#"
   xmlns:svg="http://www.w3.org/2000/svg"
   xmlns="http://www.w3.org/2000/svg"
   xmlns:sodipodi="http://sodipodi.sourceforge.net/DTD/sodipodi-0.dtd"
   xmlns:inkscape="http://www.inkscape.org/namespaces/inkscape"
   width="60"
   height="60"
   viewBox="0 0 15.874999 15.875001"
   version="1.1"
   id="svg8"
   inkscape:export-filename="C:\Users\longa\Desktop\Agriturismo_Nicola\sito\startbootstrap-creative-gh-pages\lapoinasito2\css\icon\colazione.png"
   inkscape:export-xdpi="96.199997"
   inkscape:export-ydpi="96.199997"
   inkscape:version="0.92.5 (2060ec1f9f, 2020-04-08)"
   sodipodi:docname="animali.svg">
  <defs
     id="defs2" />
  <sodipodi:namedview
     id="base"
     pagecolor="#ffffff"
     bordercolor="#666666"
     borderopacity="1.0"
     inkscape:pageopacity="0.0"
     inkscape:pageshadow="2"
     inkscape:zoom="5.6"
     inkscape:cx="-62.406442"
     inkscape:cy="21.9822"
     inkscape:document-units="mm"
     inkscape:current-layer="layer1"
     showgrid="true"
     units="px"
     inkscape:window-width="2488"
     inkscape:window-height="1563"
     inkscape:window-x="1992"
     inkscape:window-y="0"
     inkscape:window-maximized="1">
    <inkscape:grid
       type="xygrid"
       id="grid10" />
  </sodipodi:namedview>
  <metadata
     id="metadata5">
    <rdf:RDF>
      <cc:Work
         rdf:about="">
        <dc:format>image/svg+xml</dc:format>
        <dc:type
           rdf:resource="http://purl.org/dc/dcmitype/StillImage" />
        <dc:title />
      </cc:Work>
    </rdf:RDF>
  </metadata>
  <g
     inkscape:label="Livello 1"
     inkscape:groupmode="layer"
     id="layer1"
     transform="translate(0,-281.12498)">
    <g
       transform="matrix(0.65978785,0,0,0.65733855,0.19366712,101.56145)"
       id="layer1-9"
       inkscape:label="Livello 1"
       style="fill:#f9f9f9">
      <path
         inkscape:connector-curvature="0"
         id="path4497"
         d="m 18.955082,296.5129 c -1.123072,-1.10766 -0.344973,-3.08102 1.21485,-3.08102 1.024984,0 1.708097,0.71337 1.708097,1.78375 0,1.07037 -0.683113,1.78374 -1.708097,1.78374 -0.498208,0 -0.8743,-0.1506 -1.21485,-0.48647 z M 7.2445904,294.08954 c -0.8772795,-0.42637 -1.5588097,-1.33493 -1.8456298,-2.46045 -0.4238282,-1.66316 0.2751995,-3.09552 2.122444,-4.34901 0.507656,-0.34449 1.0913387,-0.99201 1.4025602,-1.55596 0.6224846,-1.12802 1.3175652,-1.6885 2.4752572,-1.99597 1.309393,-0.34773 2.255376,0.008 3.834863,1.44281 0.741803,0.67377 1.791001,1.53719 2.331552,1.91872 1.379882,0.97393 1.900961,1.80688 1.900961,3.03874 0,1.90686 -1.154366,3.41249 -2.984689,3.8929 -0.749369,0.19668 -1.070544,0.17091 -2.241674,-0.17992 -1.732719,-0.51908 -1.918812,-0.51422 -3.294843,0.086 -1.3251741,0.57802 -2.7194806,0.6391 -3.7008016,0.16217 z m -4.8187666,-4.26478 c -0.4981867,-0.49135 -0.1307521,-1.34771 0.5782518,-1.34771 0.5103037,0 0.8500106,0.52298 0.7063604,1.08747 -0.1387678,0.54532 -0.849572,0.68931 -1.2846122,0.26024 z m 2.4717163,-2.68719 c -1.684545,-0.3006 -3.2991675,-1.35113 -3.9701101,-2.5831 -0.67528068,-1.23991 -0.83306263,-2.07315 -0.55175767,-2.91381 0.29575045,-0.88385 0.88732607,-1.28957 1.88023997,-1.28957 1.4752347,0 2.6763959,1.10816 3.7629524,3.47162 1.0332397,2.24747 0.5700696,3.6167 -1.1213246,3.31486 z M 18.25625,286.13486 c -0.657475,-0.52509 -0.624394,-1.54948 0.114568,-3.54777 0.923259,-2.49667 2.635172,-3.82951 4.132819,-3.21768 0.774503,0.31641 1.184076,1.11906 1.178553,2.30963 -0.0081,1.71394 -1.090751,3.27551 -2.912115,4.19976 -1.265979,0.64242 -1.94363,0.71144 -2.513825,0.25606 z M 8.4544971,282.39811 C 7.0265005,281.704 5.4948925,279.3207 5.2701464,277.44302 c -0.1633921,-1.36508 0.2008122,-2.48781 1.0438561,-3.21784 0.8255283,-0.71487 1.5213109,-0.77806 2.4457964,-0.2221 1.5943111,0.95873 2.3940911,2.96431 2.2142231,5.55252 -0.120317,1.73127 -0.537709,2.70717 -1.2763282,2.98413 -0.6064982,0.22743 -0.4464036,0.24567 -1.2431967,-0.14162 z m 5.4300519,-0.51373 c -0.681383,-0.71534 -1.085769,-1.90639 -1.198628,-3.53034 -0.135144,-1.94466 0.291532,-3.29633 1.379141,-4.36902 0.651998,-0.64303 0.914507,-0.76892 1.603535,-0.76892 0.66468,0 0.952465,0.12681 1.489138,0.65611 1.735665,1.71184 1.327738,5.28128 -0.872149,7.63147 -0.912764,0.97514 -1.713843,1.10215 -2.401037,0.3807 z"
         style="fill:#f9f9f9;stroke-width:0.19956845" />
    </g>
  </g>
</svg>
