<?xml version="1.0" encoding="UTF-8" standalone="no"?>
<!-- Created with Inkscape (http://www.inkscape.org/) -->

<svg
   xmlns:dc="http://purl.org/dc/elements/1.1/"
   xmlns:cc="http://creativecommons.org/ns#"
   xmlns:rdf="http://www.w3.org/1999/02/22-rdf-syntax-ns#"
   xmlns:svg="http://www.w3.org/2000/svg"
   xmlns="http://www.w3.org/2000/svg"
   xmlns:sodipodi="http://sodipodi.sourceforge.net/DTD/sodipodi-0.dtd"
   xmlns:inkscape="http://www.inkscape.org/namespaces/inkscape"
   width="60"
   height="60"
   viewBox="0 0 15.874999 15.875001"
   version="1.1"
   id="svg8"
   inkscape:export-filename="C:\Users\longa\Desktop\Agriturismo_Nicola\sito\startbootstrap-creative-gh-pages\lapoinasito2\css\icon\colazione.png"
   inkscape:export-xdpi="96.199997"
   inkscape:export-ydpi="96.199997"
   inkscape:version="0.92.5 (2060ec1f9f, 2020-04-08)"
   sodipodi:docname="asciugamani.svg">
  <defs
     id="defs2" />
  <sodipodi:namedview
     id="base"
     pagecolor="#ffffff"
     bordercolor="#666666"
     borderopacity="1.0"
     inkscape:pageopacity="0.0"
     inkscape:pageshadow="2"
     inkscape:zoom="5.2355365"
     inkscape:cx="11.213067"
     inkscape:cy="14.784561"
     inkscape:document-units="mm"
     inkscape:current-layer="layer1"
     showgrid="true"
     units="px"
     inkscape:window-width="2488"
     inkscape:window-height="1563"
     inkscape:window-x="1992"
     inkscape:window-y="0"
     inkscape:window-maximized="1">
    <inkscape:grid
       type="xygrid"
       id="grid10" />
  </sodipodi:namedview>
  <metadata
     id="metadata5">
    <rdf:RDF>
      <cc:Work
         rdf:about="">
        <dc:format>image/svg+xml</dc:format>
        <dc:type
           rdf:resource="http://purl.org/dc/dcmitype/StillImage" />
        <dc:title />
      </cc:Work>
    </rdf:RDF>
  </metadata>
  <g
     inkscape:label="Livello 1"
     inkscape:groupmode="layer"
     id="layer1"
     transform="translate(0,-281.12498)">
    <path
       style="fill:#f9f9f9;stroke-width:0.03145748"
       d="m 6.8118084,295.92953 c -0.068389,-0.006 -0.3341712,-0.0481 -0.5906271,-0.0917 -1.1638817,-0.19871 -2.0820972,-0.45292 -4.2431516,-1.17463 -0.3504889,-0.11696 -0.8139878,-0.26759 -1.03000089,-0.33452 -0.4680405,-0.14502 -0.54681078,-0.18391 -0.67489116,-0.33331 -0.315461,-0.36793 -0.37699514,-1.00767 -0.14275378,-1.48402 0.14063328,-0.28598 0.19300505,-0.29323 1.24147813,-0.17163 1.6256513,0.18854 3.2638269,0.42679 4.3364137,0.63063 l 0.6994187,0.13285 0.9947351,-0.003 c 1.3368157,-0.004 2.4541255,-0.0736 5.0513725,-0.31278 1.635143,-0.15063 2.558762,-0.21776 2.789375,-0.20286 0.160409,0.0104 0.209356,0.0278 0.284463,0.10153 0.109974,0.10791 0.136158,0.22423 0.08096,0.35955 -0.05562,0.13641 -0.169505,0.18895 -0.465904,0.21521 -0.47028,0.0416 -1.129704,0.15094 -2.984199,0.49446 -1.383472,0.25626 -2.3904711,0.39415 -3.1741993,0.43463 l -0.4076005,0.0211 -0.198567,-0.2074 C 8.0426038,293.65313 7.90891,293.64298 8.13188,293.98494 c 0.082937,0.12721 0.1156413,0.20337 0.093354,0.2175 -0.018884,0.0119 -0.1487754,10e-4 -0.288672,-0.0211 -0.2508871,-0.0421 -0.4253296,-0.0331 -0.4253296,0.0218 0,0.0502 0.1073112,0.0889 0.3107273,0.11252 0.1461845,0.0169 0.2178492,0.0425 0.2704704,0.0963 0.091981,0.0942 0.090121,0.12112 -0.013879,0.20089 -0.1456842,0.11192 -0.1631984,0.13106 -0.1631984,0.17901 0,0.08 0.1010978,0.0503 0.3168446,-0.0928 0.1924548,-0.12765 0.2285708,-0.13983 0.4818229,-0.16025 0.8295859,-0.0672 1.9195168,-0.24768 3.9714158,-0.65752 1.770276,-0.35359 2.305051,-0.44791 2.576185,-0.45438 0.202978,-0.004 0.21611,-5.5e-4 0.303084,0.099 0.117381,0.13433 0.119162,0.26127 0.0056,0.38885 -0.07655,0.0859 -0.155319,0.11399 -0.753819,0.26922 -0.367584,0.0953 -1.060012,0.28203 -1.538728,0.41489 -2.453553,0.68104 -4.3404627,1.11408 -5.6223039,1.29033 -0.4441595,0.0611 -0.5717414,0.0672 -0.843454,0.0407 z m -0.033623,-0.21932 c 0.0756,-0.0297 0.058346,-0.0989 -0.030384,-0.12157 -0.1231936,-0.0318 -0.346106,-0.26209 -0.4307049,-0.44523 -0.1516388,-0.32826 -0.1798171,-0.83609 -0.067363,-1.21396 0.073038,-0.24542 0.2210142,-0.4503 0.4015285,-0.55587 0.1161282,-0.0678 0.1445739,-0.0974 0.1077714,-0.11191 -0.074609,-0.0294 -0.2777861,0.0898 -0.4113262,0.2412 -0.5415152,0.61382 -0.4361311,1.85602 0.182476,2.15103 0.1738812,0.083 0.1779293,0.0839 0.247996,0.0564 z m 0.033623,-2.8006 c -0.8121568,-0.0748 -1.705692,-0.1973 -3.2328816,-0.44312 -1.2473466,-0.2008 -1.8838079,-0.29397 -2.4941201,-0.36511 -0.29710228,-0.0347 -0.57600457,-0.0837 -0.6261311,-0.11029 -0.12478616,-0.066 -0.26606587,-0.25811 -0.32824637,-0.44614 -0.16754771,-0.50669 -0.03356515,-1.20553 0.27068674,-1.41178 l 0.12682162,-0.0859 1.43223801,3.5e-4 c 2.1515008,4.5e-4 5.1416709,0.0652 5.6753952,0.12276 1.0259475,0.11073 2.6657562,0.22505 5.5176562,0.38481 1.094205,0.0613 2.042442,0.11771 2.107198,0.12513 0.347964,0.0407 0.480428,0.4441 0.215802,0.65726 -0.0746,0.06 -0.132684,0.0626 -1.455365,0.0626 -1.19274,0 -2.377424,0.0273 -4.8653981,0.11266 l -0.578375,0.0197 -0.1987657,-0.21181 c -0.2211836,-0.23571 -0.2993362,-0.29195 -0.3432261,-0.24702 -0.017917,0.0184 0.012988,0.0937 0.081049,0.19716 0.1771586,0.2696 0.1500745,0.2933 -0.2530818,0.22139 -0.1084913,-0.0193 -0.2355338,-0.0252 -0.2823152,-0.0119 l -0.085064,0.0218 0.068178,0.0567 c 0.038158,0.0318 0.1499833,0.0662 0.2538527,0.0782 0.1904989,0.0221 0.346299,0.11028 0.346299,0.19605 0,0.0248 -0.048872,0.0776 -0.108662,0.11696 -0.1021414,0.0675 -0.1656139,0.16773 -0.1296565,0.20458 0.027273,0.0279 0.1368688,-0.0205 0.2918972,-0.12884 0.1843307,-0.12884 0.2287598,-0.14591 0.4258924,-0.1637 0.7282605,-0.0657 2.5578941,-0.16572 3.8103141,-0.20798 1.341726,-0.0453 2.876825,-0.0316 2.976103,0.0264 0.151117,0.0885 0.210162,0.3635 0.117425,0.54712 -0.06332,0.12543 -0.169463,0.15127 -0.715503,0.17429 -0.547984,0.0232 -1.574963,0.0998 -3.65253,0.2726 -1.2962823,0.10791 -2.8469395,0.22028 -3.6680767,0.26599 -0.128227,0.007 -0.442969,-0.006 -0.6994184,-0.03 z m -0.044567,-0.17359 c 0.083789,-0.046 0.075075,-0.0828 -0.028291,-0.11964 -0.3130288,-0.11162 -0.5634689,-0.61692 -0.5634689,-1.1366 0,-0.48432 0.2255327,-0.98337 0.4963048,-1.09821 0.1040502,-0.0441 0.1237992,-0.0954 0.036687,-0.0954 -0.08989,0 -0.344292,0.20264 -0.4554934,0.3628 -0.1697137,0.24445 -0.2499411,0.55158 -0.2461822,0.94239 0.00227,0.2556 0.018824,0.37829 0.069636,0.52138 0.092961,0.26188 0.2655103,0.48185 0.4530438,0.57756 0.1794774,0.0916 0.1610049,0.088 0.2377398,0.046 z m 7.7693026,-2.32484 c -0.405554,-0.0279 -2.066369,-0.11948 -4.305326,-0.23715 -0.837751,-0.0439 -1.85191,-0.10093 -2.2536879,-0.12661 -2.0694816,-0.13211 -4.5307853,-0.20993 -6.5061315,-0.20585 -0.91775628,0.001 -0.96171976,-5.8e-4 -1.06219396,-0.0644 -0.22719385,-0.14368 -0.34244917,-0.49323 -0.319702,-0.9693 0.01780313,-0.37314 0.1006443,-0.63496 0.25563912,-0.80816 l 0.0997484,-0.11147 0.86760694,-0.13745 c 3.0994885,-0.49125 4.6033132,-0.65815 5.4060692,-0.59995 0.6869336,0.0497 3.3924007,0.47138 5.0202917,0.78226 1.944819,0.37141 3.602289,0.72318 3.714704,0.78842 0.136736,0.0793 0.206426,0.24316 0.1712,0.40249 -0.03163,0.14309 -0.160711,0.27017 -0.274753,0.27043 -0.0677,1.9e-4 -0.435575,-0.0432 -2.025795,-0.23883 -0.350489,-0.043 -1.238751,-0.14985 -1.973923,-0.23727 -0.735168,-0.0873 -1.6584062,-0.19776 -2.0516337,-0.24527 l -0.7149649,-0.0864 -0.2291106,-0.23273 c -0.2011922,-0.20435 -0.3459699,-0.29022 -0.3459699,-0.20518 0,0.0157 0.055624,0.11147 0.1236062,0.21404 0.078373,0.1183 0.1127603,0.19761 0.093966,0.21685 -0.018772,0.0192 -0.1022987,0.0166 -0.2282147,-0.007 -0.2443168,-0.046 -0.4454798,-0.0482 -0.4715839,-0.004 -0.022789,0.0378 0.1672917,0.12662 0.2714008,0.12691 0.1538378,3.6e-4 0.3069962,0.0671 0.3437193,0.14954 0.032596,0.0732 0.028232,0.0877 -0.039694,0.13329 -0.1035648,0.0695 -0.1864455,0.15582 -0.1864455,0.19437 0,0.0646 0.1446319,0.027 0.3089183,-0.0802 0.092968,-0.0607 0.212447,-0.1186 0.2655046,-0.12884 0.053077,-0.009 0.3476941,0.0104 0.6547347,0.0468 2.1494433,0.25133 4.0102603,0.46837 4.9412943,0.57637 0.598395,0.0695 1.135459,0.133 1.193473,0.14116 0.218366,0.031 0.358745,0.29235 0.271719,0.50565 -0.09062,0.2221 -0.172536,0.23652 -1.014456,0.17833 z m -7.7499124,-0.65214 c 0.00589,-0.0184 -0.045017,-0.0586 -0.1130882,-0.0894 -0.1633408,-0.0738 -0.3557052,-0.30208 -0.4425266,-0.52515 -0.060445,-0.15533 -0.069971,-0.23825 -0.069971,-0.60951 0,-0.374 0.00929,-0.45365 0.071548,-0.61384 0.096442,-0.24814 0.2412095,-0.43466 0.3990388,-0.51414 0.1249852,-0.0629 0.170111,-0.11356 0.1012404,-0.11356 -0.064623,0 -0.2736806,0.12721 -0.3684113,0.22429 -0.2489374,0.25492 -0.3938968,0.71731 -0.3680085,1.17385 0.027386,0.48278 0.182754,0.81724 0.471437,1.01482 0.1497446,0.10242 0.295123,0.12647 0.3187435,0.0527 z m 7.7654514,-1.49432 c -0.290644,-0.0582 -0.857173,-0.17965 -1.258957,-0.26992 -2.97265,-0.668 -3.9764965,-0.85413 -5.5331968,-1.02602 -0.462495,-0.0511 -2.1859566,-0.0506 -2.7355115,5.9e-4 -0.8342403,0.0779 -1.5640263,0.17026 -2.9467954,0.37256 -0.7744413,0.11325 -1.45288168,0.20593 -1.50764613,0.20587 -0.16028473,-1.7e-4 -0.29627446,-0.10761 -0.38356641,-0.30281 -0.16144705,-0.36113 -0.0714563,-1.02967 0.17344996,-1.28858 0.0891064,-0.0943 0.2250847,-0.16371 0.70117068,-0.35848 0.3248388,-0.13285 0.8004484,-0.33018 1.056904,-0.43842 1.3159509,-0.55542 2.350839,-0.91583 3.1085372,-1.08253 0.4445679,-0.0978 1.4426651,-0.12306 1.9428366,-0.049 1.4011663,0.2072 2.4639387,0.52893 5.4243988,1.64205 0.932293,0.35054 1.777624,0.644 2.34437,0.81387 0.5102,0.15283 0.593201,0.21784 0.593201,0.46415 0,0.13344 -0.01469,0.17419 -0.09087,0.25222 -0.111281,0.11385 -0.186492,0.11711 -0.645834,0.0275 -0.933054,-0.18203 -1.904781,-0.43767 -4.342549,-1.14243 -0.5453414,-0.15765 -1.1958021,-0.33926 -1.4454709,-0.40355 l -0.4539509,-0.11682 -0.1889397,-0.1982 c -0.1683359,-0.17657 -0.2850656,-0.26995 -0.3374657,-0.26995 -0.048587,0 -0.00589,0.11919 0.091211,0.25466 0.174391,0.24329 0.1629045,0.25069 -0.2888574,0.18603 -0.1952333,-0.0279 -0.2665092,-0.0279 -0.2937579,-3e-5 -0.060604,0.062 0.01468,0.10346 0.2703923,0.14906 0.1310175,0.0233 0.2583662,0.0595 0.2829904,0.0804 0.078192,0.0665 0.051367,0.16862 -0.064404,0.24544 -0.1279554,0.0847 -0.1562475,0.21799 -0.038495,0.18098 0.038495,-0.0119 0.1468806,-0.0696 0.2409148,-0.1278 0.094033,-0.0582 0.2064933,-0.11444 0.2499178,-0.12513 0.051367,-0.0119 0.3499962,0.0597 0.8548504,0.20686 1.3954408,0.40679 3.2963208,0.8732 5.1123058,1.25432 0.453073,0.095 0.847162,0.18239 0.87576,0.19401 0.128781,0.0523 0.197406,0.39531 0.118257,0.59098 -0.04275,0.10568 -0.172849,0.19078 -0.285281,0.18656 -0.03929,-10e-4 -0.309292,-0.0503 -0.599942,-0.10835 z m -7.8335172,-1.63021 c 0,-0.0211 -0.062947,-0.0723 -0.139879,-0.11385 -0.1691239,-0.0914 -0.3125184,-0.27585 -0.4069373,-0.52337 -0.093063,-0.24397 -0.1042432,-0.85099 -0.020751,-1.12713 0.066598,-0.22028 0.2242569,-0.46625 0.3540043,-0.55229 0.053521,-0.0355 0.1234415,-0.0815 0.1554259,-0.10242 0.055392,-0.0361 0.054996,-0.038 -0.00828,-0.0398 -0.104114,-0.003 -0.3542988,0.18959 -0.4679552,0.36011 -0.1690558,0.2536 -0.243109,0.5491 -0.2403818,0.95912 0.00285,0.39979 0.065526,0.61865 0.2540913,0.88462 0.1539509,0.21715 0.5206728,0.39676 0.5206728,0.25502 z"
       id="path3801"
       inkscape:connector-curvature="0" />
  </g>
</svg>
