<?xml version="1.0" encoding="UTF-8" standalone="no"?>
<!-- Created with Inkscape (http://www.inkscape.org/) -->

<svg
   xmlns:dc="http://purl.org/dc/elements/1.1/"
   xmlns:cc="http://creativecommons.org/ns#"
   xmlns:rdf="http://www.w3.org/1999/02/22-rdf-syntax-ns#"
   xmlns:svg="http://www.w3.org/2000/svg"
   xmlns="http://www.w3.org/2000/svg"
   xmlns:sodipodi="http://sodipodi.sourceforge.net/DTD/sodipodi-0.dtd"
   xmlns:inkscape="http://www.inkscape.org/namespaces/inkscape"
   width="60"
   height="60"
   viewBox="0 0 15.874999 15.875001"
   version="1.1"
   id="svg8"
   inkscape:export-filename="C:\Users\longa\Desktop\Agriturismo_Nicola\sito\startbootstrap-creative-gh-pages\lapoinasito2\css\icon\colazione.png"
   inkscape:export-xdpi="96.199997"
   inkscape:export-ydpi="96.199997"
   inkscape:version="0.92.5 (2060ec1f9f, 2020-04-08)"
   sodipodi:docname="balcone.svg">
  <defs
     id="defs2" />
  <sodipodi:namedview
     id="base"
     pagecolor="#ffffff"
     bordercolor="#666666"
     borderopacity="1.0"
     inkscape:pageopacity="0.0"
     inkscape:pageshadow="2"
     inkscape:zoom="8"
     inkscape:cx="70.297884"
     inkscape:cy="61.758066"
     inkscape:document-units="mm"
     inkscape:current-layer="layer1"
     showgrid="true"
     units="px"
     inkscape:window-width="2488"
     inkscape:window-height="1563"
     inkscape:window-x="1992"
     inkscape:window-y="0"
     inkscape:window-maximized="1">
    <inkscape:grid
       type="xygrid"
       id="grid10" />
  </sodipodi:namedview>
  <metadata
     id="metadata5">
    <rdf:RDF>
      <cc:Work
         rdf:about="">
        <dc:format>image/svg+xml</dc:format>
        <dc:type
           rdf:resource="http://purl.org/dc/dcmitype/StillImage" />
        <dc:title />
      </cc:Work>
    </rdf:RDF>
  </metadata>
  <g
     inkscape:label="Livello 1"
     inkscape:groupmode="layer"
     id="layer1"
     transform="translate(0,-281.12498)">
    <path
       style="fill:#f9f9f9;stroke-width:0.01091513"
       d="m 1.6056214,296.8962 c -0.0201,-0.0135 -0.046632,-0.0418 -0.058964,-0.0628 -0.021244,-0.0362 -0.022588,-0.0578 -0.025679,-0.41202 l -0.00327,-0.37385 6.4159,0.003 6.4158986,0.003 v 0.37111 c 0,0.35149 -0.0011,0.37307 -0.02183,0.40818 -0.01201,0.0204 -0.0357,0.0474 -0.05265,0.0601 l -0.03082,0.0229 -6.3010298,0.003 -6.3010304,0.003 z m -0.91359315,-1.25771 0.00263,-0.29994 0.0302636,-0.0303 0.0302636,-0.0303 7.17641435,-0.003 7.1764132,-0.003 0.03551,0.0317 0.03551,0.0317 0.0033,0.30107 0.0033,0.30108 H 7.9375864 0.6893665 Z m 0.2991758,-0.47143 c -0.00398,-0.004 -0.007243,-1.44071 -0.007186,-3.19267 l 9.809e-5,-3.18539 H 1.1859582 1.3877999 v 0.16373 0.16373 l 0.073678,8e-5 c 0.085022,8e-5 3.1794543,7e-5 3.6893128,-2e-5 l 0.3411014,-6e-5 v -0.16373 -0.16373 h 0.1964723 0.1964721 v 0.16373 0.16373 l 0.1446265,8e-5 c 0.1947342,1e-4 3.669026,1e-4 3.8312101,0 l 0.1282523,-8e-5 v -0.16373 -0.16373 h 0.1964716 0.196473 v 0.16373 0.16373 l 0.477537,4e-5 c 0.262645,2e-5 0.850835,1e-4 1.307086,1.3e-4 0.456253,6e-5 1.16478,5e-5 1.574507,-5e-5 l 0.744958,-1.2e-4 v -0.16373 -0.16373 h 0.201827 0.201831 l -0.0026,3.18995 -0.0026,3.18994 -0.199201,0.003 -0.199202,0.003 v -2.15053 -2.15053 l -0.608518,-6.4e-4 c -0.334685,-3.9e-4 -1.242141,-0.002 -2.01657,-0.004 -0.774428,-0.002 -1.424015,-10e-4 -1.443526,0.002 l -0.03547,0.006 v 2.14783 2.14783 l -0.196472,7.1e-4 -0.1964728,7.1e-4 v -2.15013 -2.15013 l -0.1337102,6e-5 c -0.073541,3e-5 -0.9957335,-7.1e-4 -2.0493163,-0.002 l -1.9156054,-0.002 -0.00277,2.15186 -0.00277,2.15187 -0.196445,-1.1e-4 -0.1964457,-1.1e-4 v -2.14968 c 0,-2.03996 -0.00107,-2.14968 -0.019098,-2.14987 -0.023874,-2.5e-4 -4.0267767,-2.5e-4 -4.0604278,2e-5 l -0.024556,2.7e-4 v 2.15027 2.15029 H 1.1931197 c -0.1070592,0 -0.19793405,-0.004 -0.20194408,-0.007 z m 4.50068485,-5.17193 v -0.52939 H 3.4398455 1.3878006 v 0.52939 0.52938 h 2.0520449 2.0520434 z m -1.8327017,0 -0.00171,-0.42024 h 0.300517 0.3005163 v 0.42024 0.42023 H 3.9597383 3.6609627 Z m 6.327112,-0.003 0.00284,-0.52665 h -2.05215 -2.0521493 v 0.5221 c 0,0.28716 0.00327,0.5254 0.00731,0.52942 0.00405,0.004 0.9262096,0.006 2.0493162,0.004 l 2.0420098,-0.003 z m -2.3441288,0.003 v -0.42024 h 0.2947081 0.2947087 v 0.42024 0.42023 H 7.9368785 7.6421704 Z m 6.8437846,0 v -0.52939 H 12.43391 10.381867 v 0.52939 0.52938 h 2.052043 2.052045 z m -2.870679,0 v -0.42024 h 0.299948 0.299947 l 1.29e-4,0.42024 1.29e-4,0.42023 h -0.300113 -0.300113 v -0.42023 z m -7.9524235,5.16465 c -0.00263,-0.007 -0.00355,-0.95087 -0.00206,-2.09751 l 0.00277,-2.08478 0.2974373,-0.003 0.2974373,-0.003 v 2.10088 2.10088 l -0.2954053,-5.2e-4 c -0.2144873,-3.8e-4 -0.2967244,-0.004 -0.300222,-0.0132 z m 3.9793179,-2.08724 v -2.10051 h 0.2947081 0.2947087 v 2.10147 2.10146 l -0.2947087,-7.1e-4 -0.2947081,-7.1e-4 v -2.10051 z m 3.9731056,-3.9e-4 v -2.10044 l 0.297437,0.003 0.297438,0.003 v 2.09571 2.0957 l -0.297438,0.002 -0.297437,0.002 z m -7.9494241,-4.06078 c -0.00412,-0.004 -0.00745,-1.54922 -0.00745,-3.43362 l -4.3e-6,-3.42617 0.073552,-0.0333 c 0.5702017,-0.25798 1.4859698,-0.55647 2.0750795,-0.67636 0.08628,-0.0175 0.1602388,-0.034 0.1643526,-0.0365 0.00412,-0.003 0.031756,-0.008 0.06143,-0.0111 0.029674,-0.004 0.071142,-0.0109 0.092155,-0.0165 0.040108,-0.0105 0.3234919,-0.0604 0.3984019,-0.0702 0.4361143,-0.0567 0.6591233,-0.0784 0.9605316,-0.0935 0.5443468,-0.0273 1.1630777,-0.003 1.6645565,0.0653 0.087048,0.0119 0.1841022,0.0241 0.2156743,0.0272 0.031571,0.003 0.1248969,0.0183 0.207387,0.0336 0.082491,0.0154 0.1892771,0.0346 0.2373045,0.0428 0.048025,0.008 0.1327556,0.025 0.1882863,0.0375 0.055531,0.0124 0.1460292,0.0323 0.2011092,0.0444 0.49951,0.10884 1.264439,0.36118 1.826374,0.60252 l 0.185557,0.0797 v 3.43281 3.4328 l -0.297436,0.003 -0.297437,0.003 v -0.22939 -0.2294 l -0.53757,-1.2e-4 c -0.708273,-1.3e-4 -2.3699791,-1.3e-4 -2.6360034,0 l -0.210117,1.2e-4 v 0.228 0.228 l -0.2947087,10e-4 -0.2947081,0.001 v -0.22972 -0.22972 l -0.1937434,-4e-5 c -1.3463498,-2.5e-4 -2.1783107,-2.5e-4 -2.6360031,-1.2e-4 l -0.5539427,1.3e-4 v 0.22856 0.22856 l -0.2925921,7.1e-4 c -0.1609261,5.2e-4 -0.2959419,-0.002 -0.3000365,-0.006 z m 3.9763185,-4.13056 v -3.07863 l -0.09005,0.006 c -0.049525,0.003 -0.1465356,0.009 -0.2155739,0.0121 -0.3849413,0.0193 -0.9525672,0.10148 -1.4080513,0.20396 -0.081045,0.0182 -0.169458,0.0378 -0.1964728,0.0435 -0.064721,0.0136 -0.3481051,0.09 -0.4857236,0.13083 -0.2851193,0.0846 -0.8881867,0.29464 -0.9663896,0.33649 -0.021209,0.0114 -0.021429,0.0395 -0.021429,2.71804 v 2.70624 h 1.6918443 1.6918463 z m 3.9731056,0.37109 v -2.70755 l -0.05817,-0.0257 c -0.208521,-0.0922 -0.81103,-0.29463 -1.137037,-0.38198 -0.06003,-0.0161 -0.133709,-0.036 -0.163727,-0.0443 -0.3605699,-0.0994 -0.9311483,-0.19997 -1.4189651,-0.25011 -0.1227867,-0.0127 -0.5086396,-0.0377 -0.5976039,-0.0388 -0.00448,-5e-5 -0.00819,1.38503 -0.00819,3.07797 v 3.07806 h 1.691845 1.691844 z"
       id="path825"
       inkscape:connector-curvature="0" />
  </g>
</svg>
