<?xml version="1.0" encoding="UTF-8" standalone="no"?>
<!-- Created with Inkscape (http://www.inkscape.org/) -->

<svg
   xmlns:dc="http://purl.org/dc/elements/1.1/"
   xmlns:cc="http://creativecommons.org/ns#"
   xmlns:rdf="http://www.w3.org/1999/02/22-rdf-syntax-ns#"
   xmlns:svg="http://www.w3.org/2000/svg"
   xmlns="http://www.w3.org/2000/svg"
   xmlns:sodipodi="http://sodipodi.sourceforge.net/DTD/sodipodi-0.dtd"
   xmlns:inkscape="http://www.inkscape.org/namespaces/inkscape"
   width="60"
   height="60"
   viewBox="0 0 15.874999 15.875001"
   version="1.1"
   id="svg8"
   inkscape:export-filename="C:\Users\longa\Desktop\Agriturismo_Nicola\sito\startbootstrap-creative-gh-pages\lapoinasito2\css\icon\colazione.png"
   inkscape:export-xdpi="96.199997"
   inkscape:export-ydpi="96.199997"
   inkscape:version="0.92.5 (2060ec1f9f, 2020-04-08)"
   sodipodi:docname="caffe.svg">
  <defs
     id="defs2" />
  <sodipodi:namedview
     id="base"
     pagecolor="#ffffff"
     bordercolor="#666666"
     borderopacity="1.0"
     inkscape:pageopacity="0.0"
     inkscape:pageshadow="2"
     inkscape:zoom="4"
     inkscape:cx="35.154258"
     inkscape:cy="24.08494"
     inkscape:document-units="mm"
     inkscape:current-layer="layer1"
     showgrid="true"
     units="px"
     inkscape:window-width="2488"
     inkscape:window-height="1563"
     inkscape:window-x="1992"
     inkscape:window-y="0"
     inkscape:window-maximized="1">
    <inkscape:grid
       type="xygrid"
       id="grid10" />
  </sodipodi:namedview>
  <metadata
     id="metadata5">
    <rdf:RDF>
      <cc:Work
         rdf:about="">
        <dc:format>image/svg+xml</dc:format>
        <dc:type
           rdf:resource="http://purl.org/dc/dcmitype/StillImage" />
        <dc:title />
      </cc:Work>
    </rdf:RDF>
  </metadata>
  <g
     inkscape:label="Livello 1"
     inkscape:groupmode="layer"
     id="layer1"
     transform="translate(0,-281.12498)">
    <path
       style="fill:#000000;stroke-width:0.10656495"
       d="m 4.4486187,296.49754 c 0.031327,-0.32439 -0.00286,-0.36315 -0.5527142,-0.62675 -0.7416824,-0.35556 -1.2920901,-0.92968 -1.6728289,-1.74488 l -0.298623,-0.63939 v -2.451 -2.451 l 4.5023695,-0.0278 4.5023699,-0.0278 v 0.48844 0.48843 l 0.280325,-0.2205 c 0.365068,-0.28716 1.04105,-0.46534 1.436184,-0.37855 0.172333,0.0379 0.457766,0.19035 0.634301,0.33889 1.04199,0.87678 0.861593,2.26845 -0.485399,3.74459 -0.515342,0.56474 -1.562798,1.18868 -1.995881,1.18888 -0.101064,4e-5 -0.253068,0.13196 -0.337788,0.29314 -0.24748,0.47082 -1.0326882,1.16624 -1.6251182,1.43928 -0.440873,0.20319 -0.529498,0.28604 -0.452732,0.42321 0.0525,0.0938 0.06627,0.24662 0.03059,0.33957 -0.05596,0.14585 -0.334323,0.16901 -2.031656,0.16901 H 4.4152235 Z m 7.0793963,-3.65224 c 0.490545,-0.28747 1.235868,-1.23394 1.426451,-1.81141 0.09131,-0.27667 0.08232,-0.43493 -0.04155,-0.73139 -0.242582,-0.58058 -0.570235,-0.60619 -1.341396,-0.10483 l -0.633093,0.4116 -0.0046,1.25213 c -0.0025,0.68867 0.02713,1.25214 0.06594,1.25214 0.03881,0 0.276526,-0.12071 0.528261,-0.26824 z m -4.4135846,-5.45963 c -0.4181713,-0.5947 -0.5544023,-0.98222 -0.5544023,-1.57707 0,-0.77243 0.2159648,-1.2162 0.7938261,-1.63119 0.4403243,-0.31621 0.7629706,-0.86452 0.6094586,-1.03572 -0.03917,-0.0437 -0.01128,-0.0449 0.06198,-0.003 0.286115,0.16465 0.149526,0.89598 -0.3003913,1.60837 -0.491032,0.7775 -0.6155235,1.44196 -0.4443971,2.37197 0.05662,0.3077 0.08878,0.55946 0.071467,0.55946 -0.017315,0 -0.1242079,-0.13188 -0.2375441,-0.29305 z m -1.7013825,-0.69309 c -0.4074968,-0.43492 -0.7690256,-1.36689 -0.7701477,-1.98531 -0.00181,-0.98916 0.1682222,-1.33929 1.0209423,-2.10247 0.57516,-0.51477 0.7955887,-0.78988 0.8691226,-1.08475 l 0.098521,-0.39507 0.116093,0.40166 c 0.1490195,0.51559 0.065632,0.77824 -0.5900276,1.85852 -0.6161579,1.0152 -0.7378662,1.61374 -0.5575986,2.74217 0.063786,0.39929 0.098285,0.74367 0.076664,0.76528 -0.021621,0.0216 -0.1402275,-0.0684 -0.263569,-0.20003 z"
       id="path828"
       inkscape:connector-curvature="0" />
  </g>
</svg>
