<?xml version="1.0" encoding="UTF-8" standalone="no"?>
<!-- Created with Inkscape (http://www.inkscape.org/) -->

<svg
   xmlns:dc="http://purl.org/dc/elements/1.1/"
   xmlns:cc="http://creativecommons.org/ns#"
   xmlns:rdf="http://www.w3.org/1999/02/22-rdf-syntax-ns#"
   xmlns:svg="http://www.w3.org/2000/svg"
   xmlns="http://www.w3.org/2000/svg"
   xmlns:sodipodi="http://sodipodi.sourceforge.net/DTD/sodipodi-0.dtd"
   xmlns:inkscape="http://www.inkscape.org/namespaces/inkscape"
   width="60"
   height="60"
   viewBox="0 0 15.874999 15.875001"
   version="1.1"
   id="svg8"
   inkscape:export-filename="C:\Users\longa\Desktop\Agriturismo_Nicola\sito\startbootstrap-creative-gh-pages\lapoinasito2\css\icon\colazione.png"
   inkscape:export-xdpi="96.199997"
   inkscape:export-ydpi="96.199997"
   inkscape:version="0.92.5 (2060ec1f9f, 2020-04-08)"
   sodipodi:docname="chiavi.svg">
  <defs
     id="defs2" />
  <sodipodi:namedview
     id="base"
     pagecolor="#ffffff"
     bordercolor="#666666"
     borderopacity="1.0"
     inkscape:pageopacity="0.0"
     inkscape:pageshadow="2"
     inkscape:zoom="11.2"
     inkscape:cx="-2.5582597"
     inkscape:cy="32.259888"
     inkscape:document-units="mm"
     inkscape:current-layer="layer1"
     showgrid="true"
     units="px"
     inkscape:window-width="2488"
     inkscape:window-height="1563"
     inkscape:window-x="1992"
     inkscape:window-y="0"
     inkscape:window-maximized="1">
    <inkscape:grid
       type="xygrid"
       id="grid10" />
  </sodipodi:namedview>
  <metadata
     id="metadata5">
    <rdf:RDF>
      <cc:Work
         rdf:about="">
        <dc:format>image/svg+xml</dc:format>
        <dc:type
           rdf:resource="http://purl.org/dc/dcmitype/StillImage" />
        <dc:title />
      </cc:Work>
    </rdf:RDF>
  </metadata>
  <g
     inkscape:label="Livello 1"
     inkscape:groupmode="layer"
     id="layer1"
     transform="translate(0,-281.12498)">
    <path
       style="fill:#f9f9f9;stroke-width:0.01804399"
       d="m 4.9409988,296.74694 c -0.072381,-0.11288 -0.2339266,-0.36213 -0.3589952,-0.55367 -0.1250623,-0.19153 -0.2303008,-0.35505 -0.233862,-0.36337 -0.00353,-0.007 -0.046264,-0.0749 -0.094843,-0.14786 l -0.088374,-0.13277 0.2093284,-0.2128 0.2093344,-0.21281 v -0.12858 -0.12858 l -0.1612741,-0.16745 -0.1612742,-0.16746 v -0.1395 -0.13949 l 0.2281524,-0.23184 0.2281584,-0.23187 -0.1580544,-0.16097 -0.1580607,-0.16097 0.041909,-0.0353 c 0.023074,-0.0194 0.069821,-0.0658 0.1039559,-0.10271 l 0.062053,-0.0674 -0.1691733,-0.17224 -0.1691675,-0.17225 0.1330805,-0.13575 0.1330806,-0.13576 -0.04391,-0.0484 c -0.024132,-0.0266 -0.1134423,-0.11886 -0.1984626,-0.20489 l -0.1545755,-0.15646 -0.00235,-0.10361 c -0.00176,-0.0972 0.00176,-0.10645 0.057684,-0.14984 0.032903,-0.0253 0.064577,-0.0463 0.070386,-0.0463 0.017835,0 0.1921293,-0.11363 0.1921116,-0.12529 -1.18e-5,-0.004 -0.040085,-0.0336 -0.089033,-0.0616 -0.1340568,-0.0763 -0.143899,-0.0914 -0.143899,-0.21824 v -0.11198 l 0.1560421,-0.15903 0.156042,-0.15904 -0.2008406,-0.2033 -0.2008408,-0.20334 -5.29e-5,-0.12872 -4.71e-5,-0.12873 -0.085055,-0.0345 c -0.1762838,-0.0715 -0.4853,-0.23648 -0.6494994,-0.34692 -0.2195234,-0.14757 -0.6436073,-0.51659 -0.8573565,-0.74588 -0.473398,-0.5078 -0.7703062,-1.20187 -0.803716,-1.87883 -0.014532,-0.29496 0.018012,-0.55392 0.1109948,-0.88217 0.0083,-0.0292 -0.017188,-0.057 -0.1308722,-0.14204 -0.1699092,-0.12738 -0.4462689,-0.40801 -0.5808554,-0.58989 -0.65465597,-0.88471 -0.76317265,-2.10457 -0.27526521,-3.09432 0.29448311,-0.5974 0.73991021,-1.04958 1.32750521,-1.34766 0.4084859,-0.20722 0.817313,-0.30313 1.2947961,-0.30374 0.4738808,-5.6e-4 0.8416522,0.0822 1.2585081,0.28375 0.6589049,0.31843 1.1613333,0.85072 1.4503074,1.53649 0.040142,0.0954 0.077844,0.19777 0.083747,0.2277 l 0.01072,0.0546 0.1798918,0.0135 c 1.2297481,0.0858 2.2694686,0.93061 2.6658174,2.16588 0.1070986,0.3338 0.1459892,0.58597 0.1550829,1.00568 l 0.00765,0.3538 0.1829179,0.0755 c 0.1006114,0.0414 0.4691897,0.19609 0.8190679,0.34358 0.349877,0.14741 0.728873,0.30691 0.842211,0.35423 0.113342,0.0473 0.347188,0.14547 0.519662,0.218 0.172476,0.0725 0.406326,0.17077 0.519664,0.21824 0.30898,0.12933 0.904281,0.37889 1.400223,0.58686 l 0.441536,0.18514 0.250849,0.39973 c 0.593204,0.94525 0.811897,1.30358 0.80181,1.3138 -0.0058,0.004 -0.443869,0.0951 -0.973237,0.19805 l -0.962489,0.18714 -0.192807,-0.0756 c -0.106044,-0.0416 -0.199904,-0.0845 -0.208586,-0.0955 -0.0087,-0.012 -0.04556,-0.0934 -0.08191,-0.18336 -0.03638,-0.09 -0.07258,-0.17031 -0.08046,-0.17862 -0.0079,-0.007 -0.08282,0.0386 -0.166536,0.10406 l -0.152215,0.11916 -0.02225,-0.17044 -0.02225,-0.17045 -0.166913,0.0704 -0.166919,0.0704 -0.0901,-0.038 c -0.08981,-0.0377 -0.09035,-0.0386 -0.167001,-0.22617 -0.102347,-0.25053 -0.109786,-0.2537 -0.35468,-0.15193 -0.173829,0.0722 -0.187238,0.0751 -0.257425,0.0538 -0.128247,-0.0389 -0.202123,-0.0863 -0.226162,-0.14502 -0.02302,-0.0564 -0.04768,-0.0601 -0.123086,-0.0191 -0.01371,0.007 -0.08895,-0.0149 -0.172834,-0.0495 l -0.148508,-0.0629 -0.04945,-0.12065 c -0.0272,-0.0664 -0.05574,-0.12783 -0.06341,-0.13681 -0.0077,-0.007 -0.05538,0.015 -0.106045,0.0525 l -0.09211,0.0686 -0.1675723,-0.0673 c -0.1014591,-0.0407 -0.1775319,-0.083 -0.1928131,-0.1069 -0.013889,-0.0218 -0.052798,-0.11184 -0.086454,-0.19967 -0.058216,-0.1521 -0.065142,-0.16168 -0.1414202,-0.19611 l -0.080205,-0.0363 -0.2021183,0.0839 -0.2021237,0.0839 -0.1740174,-0.0724 -0.1740179,-0.0724 -0.044028,0.0665 c -0.024252,0.0366 -0.070863,0.10017 -0.1036374,0.14114 -0.032788,0.041 -0.059598,0.0806 -0.059598,0.0882 0,0.007 0.1038184,0.18657 0.2307188,0.39786 0.2570112,0.42794 0.7772105,1.29811 1.3104408,2.19203 0.1937307,0.32478 0.5013807,0.83987 0.6836627,1.14466 0.182281,0.3048 0.345675,0.57904 0.363091,0.60947 0.03055,0.0534 0.02937,0.0893 -0.03414,1.01749 -0.0362,0.52919 -0.07132,1.04395 -0.07807,1.1439 -0.0099,0.14712 -0.01731,0.18056 -0.0389,0.17574 -0.03108,-0.006 -0.391634,-0.17833 -0.9204148,-0.43752 -0.205767,-0.10077 -0.3766125,-0.18339 -0.3796555,-0.18339 -0.00295,0 -0.1554345,-0.0733 -0.3386352,-0.16271 -0.1832059,-0.0896 -0.3812747,-0.18463 -0.440159,-0.21142 -0.058882,-0.0268 -0.1070642,-0.0513 -0.1070642,-0.0546 0,-0.003 0.024071,-0.11856 0.053453,-0.25643 0.07891,-0.37015 0.1076279,-0.56997 0.083183,-0.57888 -0.011079,-0.004 -0.1766135,-0.0604 -0.3678536,-0.12544 -0.1912407,-0.065 -0.3495654,-0.12036 -0.3518378,-0.1229 -0.00233,-0.001 0.018722,-0.13142 0.046674,-0.2864 0.067139,-0.37222 0.06793,-0.35625 -0.018487,-0.37026 -0.039079,-0.006 -0.079782,-0.0217 -0.090406,-0.0342 -0.01066,-0.0135 -0.094579,-0.14921 -0.1865432,-0.30391 l -0.1672195,-0.2813 0.064134,-0.13142 c 0.035259,-0.0722 0.059376,-0.13636 0.053559,-0.14204 -0.00589,-0.004 -0.1566418,-0.0498 -0.3351977,-0.0976 -0.1785618,-0.0477 -0.3289237,-0.0913 -0.334132,-0.0966 -0.00528,-0.004 0.00407,-0.11453 0.021193,-0.24261 0.018067,-0.13725 0.023784,-0.23569 0.013994,-0.23949 -0.00914,-0.003 -0.081129,-0.0457 -0.1599738,-0.0939 l -0.1433578,-0.0875 0.00528,-0.13172 0.00528,-0.13172 -0.1745884,0.006 -0.1745825,0.006 -0.1613153,-0.26685 c -0.1583009,-0.26191 -0.1623331,-0.26669 -0.216168,-0.25735 -0.030196,0.004 -0.064992,0.0135 -0.077373,0.0165 -0.017956,0.004 -0.022426,0.51346 -0.02213,2.49803 1.35e-4,1.37008 -0.00529,2.50069 -0.01205,2.51246 -0.016014,0.0275 -0.9035564,1.30664 -0.9201198,1.32605 -0.00689,0.007 -0.071716,-0.0778 -0.1440994,-0.19078 z m 0.3235251,-3.63944 v -2.46195 H 5.1480494 5.0315691 v 2.46195 2.46196 h 0.1164803 0.1164745 z m 4.9892861,1.52169 c 0.0065,-0.10735 0.01948,-0.29343 0.02861,-0.41335 0.0091,-0.11991 0.01813,-0.26785 0.01989,-0.3287 l 0.0035,-0.11064 -0.238505,-0.39806 c -0.1311731,-0.21892 -0.252439,-0.42259 -0.2694735,-0.45256 -0.017011,-0.0301 -0.1074559,-0.18125 -0.2009407,-0.33615 -0.3025473,-0.5013 -1.8639259,-3.11367 -1.9084841,-3.1931 -0.023784,-0.0425 -0.050267,-0.0815 -0.058891,-0.0869 -0.00866,-0.004 -0.082953,0.0585 -0.1651823,0.14174 -0.1823695,0.18488 -0.4215995,0.37316 -0.6284508,0.49453 -0.085148,0.0498 -0.1549698,0.0966 -0.1551464,0.10391 -4.181e-4,0.0163 0.158783,0.28753 0.1873901,0.31934 0.016597,0.0185 0.092553,0.0208 0.3557179,0.012 0.1840412,-0.006 0.3346142,-0.0194 0.3346142,-0.0278 0,-0.007 -0.063183,-0.11946 -0.1404079,-0.24701 -0.2069389,-0.34169 -0.1969849,-0.30122 -0.090446,-0.36769 0.050267,-0.0312 0.093691,-0.0546 0.096485,-0.0514 0.00295,0.003 0.1443296,0.23863 0.3145135,0.52343 0.5021398,0.84032 1.0739076,1.7983 1.1549359,1.93505 0.041443,0.07 0.202789,0.33976 0.3585415,0.59957 0.4999042,0.83394 0.7971836,1.33463 0.7971836,1.34267 0,0.004 -0.03997,0.0328 -0.088835,0.0632 l -0.088827,0.0555 -0.034082,-0.0493 c -0.018714,-0.0271 -0.037203,-0.0576 -0.04109,-0.0676 -0.00407,-0.009 -0.059423,-0.10406 -0.1234566,-0.20882 l -0.116422,-0.19051 -0.013247,0.0725 c -0.0073,0.0399 -0.03184,0.21087 -0.054622,0.3799 l -0.041378,0.30733 0.045618,0.0259 c 0.0914,0.0517 0.7091857,0.34714 0.7288747,0.34842 0.01319,5.8e-4 0.02442,-0.0668 0.03226,-0.19402 z m -0.831975,-1.15784 c 0,-0.0172 -0.4537681,-0.77285 -0.4601902,-0.76633 -0.00706,0.006 -0.111083,0.58183 -0.1063735,0.58755 0.00671,0.007 0.5240303,0.18519 0.5441605,0.18624 0.01229,6e-4 0.022428,-0.003 0.022428,-0.007 z m -0.5853819,-0.98831 c -0.1542749,-0.26886 -1.1805582,-1.97776 -1.1852376,-1.97356 -0.00588,0.004 -0.074184,0.42144 -0.07476,0.45482 -1.354e-4,0.009 0.073,0.0622 0.1626155,0.11528 0.1588321,0.0939 0.1626931,0.0978 0.1530404,0.15371 -0.00528,0.0314 -0.015,0.1063 -0.021313,0.16628 l -0.011423,0.109 0.2173046,0.0538 0.2173034,0.0538 0.1427911,0.25991 c 0.078532,0.14293 0.1427853,0.26812 0.1427853,0.27814 0,0.009 -0.028193,0.075 -0.062718,0.14457 -0.034491,0.0695 -0.062718,0.1377 -0.062718,0.15162 0,0.017 0.060224,0.0404 0.1836709,0.0712 0.2653059,0.0659 0.2592839,0.0673 0.1985984,-0.0386 z m 4.7182999,-2.81367 c 0.02319,-0.0577 0.04221,-0.10616 0.04221,-0.10735 4.7e-5,-0.001 -0.05433,-0.0245 -0.120877,-0.0514 -0.06653,-0.0269 -0.403189,-0.16762 -0.748134,-0.31275 -2.003033,-0.84277 -1.946932,-0.8192 -2.652079,-1.11466 -0.7893715,-0.33076 -0.7949279,-0.33314 -0.9243583,-0.3946 -0.1677662,-0.0797 -0.2487711,-0.10316 -0.2725039,-0.0792 -0.018895,0.019 -0.087692,0.18711 -0.079463,0.19399 0.016244,0.0135 0.1658235,0.0842 0.2218952,0.10481 0.03791,0.0149 0.4518902,0.18659 0.9200371,0.38373 0.4681419,0.19716 1.1051799,0.46472 1.4156329,0.59462 0.310452,0.12977 0.616879,0.25881 0.680937,0.28655 0.06407,0.0278 0.293883,0.12469 0.510704,0.21532 0.216828,0.0906 0.519216,0.21758 0.671978,0.28196 0.152764,0.0643 0.280928,0.11408 0.284807,0.11049 0.0041,-0.003 0.02601,-0.0537 0.04921,-0.11138 z m -8.0215507,-0.28711 c 0.8337006,-0.1202 1.4923529,-0.57699 1.7553459,-1.2175 0.1774311,-0.43219 0.1783848,-0.99467 0.00233,-1.45552 -0.2184761,-0.57232 -0.7813555,-0.96921 -1.5675487,-1.10531 l -0.06969,-0.012 0.063155,0.0747 c 0.5121704,0.6067 0.098781,1.53268 -0.6831208,1.53017 -0.236187,-5.9e-4 -0.4351383,-0.0781 -0.6157779,-0.23929 l -0.079487,-0.071 -0.1328278,0.035 c -0.3830165,0.10077 -0.888453,0.11528 -1.2688501,0.0363 -0.1024608,-0.0212 -0.1947192,-0.0404 -0.2050258,-0.0425 -0.039202,-0.007 -0.068015,0.24396 -0.059921,0.52327 0.00952,0.32836 0.044911,0.48128 0.172352,0.74495 0.1018897,0.21077 0.1876794,0.3328 0.3555105,0.50566 0.3607552,0.37158 0.8949629,0.62573 1.4734109,0.70101 0.1952605,0.0256 0.6580342,0.0211 0.860023,-0.007 z M 4.691103,288.94743 c -0.6168313,-0.0919 -1.1111251,-0.33634 -1.5246495,-0.754 -0.1664833,-0.16812 -0.3748112,-0.43255 -0.3748112,-0.47571 0,-0.007 0.054447,0.0223 0.1209537,0.0679 0.1562887,0.10705 0.5038942,0.28011 0.724324,0.36041 0.2184873,0.0797 0.5547031,0.16328 0.8212271,0.20438 0.2519148,0.0389 0.9111148,0.0438 1.1558069,0.007 0.5790834,-0.083 1.1585497,-0.28819 1.5674183,-0.55537 0.1791443,-0.11706 0.1686146,-0.11243 0.1429452,-0.0631 -0.09309,0.17869 -0.3954891,0.51402 -0.6083209,0.67451 -0.4741039,0.35754 -0.9814593,0.53456 -1.5769061,0.55019 -0.1811809,0.004 -0.3369399,-10e-4 -0.4479875,-0.0181 z m -0.00894,-1.07467 c -0.37892,-0.0685 -0.7399459,-0.24458 -1.0124502,-0.49352 -0.108806,-0.0993 -0.2815572,-0.31306 -0.2531156,-0.31306 0.00994,0 0.023191,0.007 0.02943,0.0187 0.021603,0.0354 0.3714031,0.20183 0.5560277,0.26446 0.346952,0.11766 0.6802544,0.17107 1.0687449,0.17107 0.5451089,0 1.1032256,-0.13725 1.5063201,-0.37038 0.076379,-0.0443 0.1388785,-0.0774 0.1388785,-0.0737 0,0.003 -0.037964,0.0538 -0.084361,0.11183 -0.2876671,0.35869 -0.7065888,0.59818 -1.1991466,0.68555 -0.1959381,0.0347 -0.555798,0.0344 -0.7503523,-6e-4 z m 3.6806573,-0.0348 c 0.1003886,-0.31167 0.118288,-0.43832 0.1180234,-0.83536 -1.416e-4,-0.28473 -0.00742,-0.39682 -0.033323,-0.51782 -0.1847829,-0.86246 -0.7210799,-1.50039 -1.4716561,-1.75058 -0.3776606,-0.12574 -0.7894655,-0.14398 -1.2453996,-0.0549 -0.083776,0.0164 -0.1583725,0.0351 -0.1657652,0.0419 -0.00742,0.006 0.087716,0.0262 0.2113647,0.0434 1.0771624,0.1505 1.8787182,0.68284 2.2846378,1.51739 0.2519266,0.51794 0.3176215,1.17032 0.1768434,1.7562 -0.01919,0.08 -0.038672,0.16172 -0.043268,0.1817 -0.019483,0.0846 0.1202361,-0.23195 0.1685678,-0.38199 z m -3.1577628,-1.22757 c 0.042495,-0.0208 0.092937,-0.0582 0.1120893,-0.083 0.041676,-0.0537 0.1002106,-0.20278 0.085484,-0.21772 -0.00588,-0.004 -0.055739,0.0268 -0.1111593,0.0727 -0.055386,0.0457 -0.1566179,0.11826 -0.2249442,0.16096 -0.06832,0.0428 -0.1242908,0.0839 -0.1243805,0.0913 -4.121e-4,0.0301 0.1877912,0.0135 0.2629097,-0.0242 z m -1.2333742,-0.22932 0.1496491,-0.0326 0.00806,-0.109 c 0.016187,-0.21898 0.087897,-0.40903 0.205591,-0.54493 0.03096,-0.0359 0.05168,-0.0697 0.046088,-0.0754 -0.01707,-0.0172 -0.2970083,0.0465 -0.4900557,0.11168 -0.2159976,0.073 -0.4402475,0.18363 -0.5886309,0.29075 -0.1107422,0.08 -0.3608082,0.33058 -0.3454159,0.34619 0.00471,0.004 0.080393,0.0206 0.1680727,0.0351 0.2076215,0.0344 0.6399107,0.0232 0.8466612,-0.0218 z m 0.896605,-0.39525 c 0.042851,-0.0294 0.068084,-0.0571 0.056035,-0.0611 -0.026369,-0.007 -0.1643525,0.0866 -0.1757658,0.12156 -0.009,0.0275 -0.00471,0.0254 0.1197068,-0.0606 z M 2.2364809,285.8289 c 0.1318381,-0.16973 0.3056552,-0.33567 0.499874,-0.47728 0.1660478,-0.12111 0.4063372,-0.25442 0.4308177,-0.23908 0.020719,0.0135 0.090905,-0.0211 0.1172743,-0.0571 0.00984,-0.0134 0.098559,-0.0534 0.1971148,-0.0888 0.235151,-0.0846 0.2924937,-0.12753 0.4046245,-0.30259 0.1256813,-0.19613 0.4548451,-0.6064 0.4195695,-0.52296 -0.010122,0.0239 -0.0086,0.0239 0.012185,-1.3e-4 0.013067,-0.0149 0.04597,-0.0374 0.073118,-0.0496 0.027135,-0.0134 0.04803,-0.0284 0.046383,-0.0362 -0.00176,-0.007 0.00647,-0.0374 0.01813,-0.0659 0.017246,-0.0425 0.02584,-0.0482 0.046912,-0.0302 0.036612,0.0308 0.071675,0.004 0.042204,-0.0306 -0.019071,-0.0232 -0.014233,-0.0347 0.02996,-0.0704 0.035317,-0.0286 0.06619,-0.0392 0.093548,-0.0323 0.024132,0.006 0.040849,0.002 0.040849,-0.009 0,-0.012 -0.00906,-0.0202 -0.02013,-0.0202 -0.013291,0 -0.012006,-0.009 0.00413,-0.0292 0.013426,-0.0163 0.026664,-0.0209 0.030138,-0.009 0.00413,0.0135 0.023074,0.0135 0.060386,-2.8e-4 0.041556,-0.0149 0.052034,-0.0274 0.04497,-0.0549 -0.00529,-0.0197 -0.00471,-0.031 0.00118,-0.025 0.00589,0.004 0.021425,-0.004 0.03467,-0.0241 0.013247,-0.019 0.052269,-0.0444 0.086726,-0.0558 0.034435,-0.012 0.062663,-0.0284 0.062663,-0.0375 0,-0.0414 0.5766054,-0.28948 0.6729968,-0.28948 0.035672,0 0.032492,-0.0333 -0.013949,-0.14741 -0.2615916,-0.64257 -0.8154651,-1.15548 -1.4745411,-1.36557 -0.4450683,-0.14189 -0.9822543,-0.13934 -1.4345742,0.006 -0.7520652,0.24274 -1.3633341,0.90223 -1.5562403,1.67903 -0.22299036,0.89794 0.065977,1.82006 0.7582692,2.41973 0.072958,0.0632 0.1380173,0.11483 0.1445808,0.11483 0.00658,0 0.063388,-0.0662 0.1262748,-0.14727 z m 2.5083988,-2.09754 c 0,-10e-4 0.010765,-0.0135 0.023898,-0.0239 0.017835,-0.0149 0.023898,-0.0149 0.023898,0.003 0,0.0135 -0.010765,0.0239 -0.023898,0.0239 -0.013127,0 -0.023898,-10e-4 -0.023898,-0.003 z m -0.4748636,0.48229 c 0.00613,-0.009 0.00235,-0.0182 -0.00789,-0.0182 -0.010421,0 -0.018953,0.007 -0.018953,0.0182 0,0.009 0.00353,0.0181 0.00789,0.0181 0.00413,0 0.012888,-0.007 0.018953,-0.0181 z m 0.1215951,0.006 c 0.00613,-0.006 -0.00118,-0.0236 -0.015781,-0.0384 -0.014772,-0.0149 -0.032551,-0.0211 -0.039438,-0.0135 -0.00695,0.007 -0.00235,0.0173 0.00994,0.022 0.012365,0.004 0.017953,0.0161 0.012365,0.0248 -0.011288,0.0185 0.015604,0.0229 0.032961,0.004 z"
       id="path3762"
       inkscape:connector-curvature="0" />
  </g>
</svg>
