<?xml version="1.0" encoding="UTF-8" standalone="no"?>
<!-- Created with Inkscape (http://www.inkscape.org/) -->

<svg
   xmlns:dc="http://purl.org/dc/elements/1.1/"
   xmlns:cc="http://creativecommons.org/ns#"
   xmlns:rdf="http://www.w3.org/1999/02/22-rdf-syntax-ns#"
   xmlns:svg="http://www.w3.org/2000/svg"
   xmlns="http://www.w3.org/2000/svg"
   xmlns:sodipodi="http://sodipodi.sourceforge.net/DTD/sodipodi-0.dtd"
   xmlns:inkscape="http://www.inkscape.org/namespaces/inkscape"
   width="60"
   height="60"
   viewBox="0 0 15.874999 15.875001"
   version="1.1"
   id="svg8"
   inkscape:export-filename="C:\Users\longa\Desktop\Agriturismo_Nicola\sito\startbootstrap-creative-gh-pages\lapoinasito2\css\icon\colazione.png"
   inkscape:export-xdpi="96.199997"
   inkscape:export-ydpi="96.199997"
   inkscape:version="0.92.5 (2060ec1f9f, 2020-04-08)"
   sodipodi:docname="deposito.svg">
  <defs
     id="defs2" />
  <sodipodi:namedview
     id="base"
     pagecolor="#ffffff"
     bordercolor="#666666"
     borderopacity="1.0"
     inkscape:pageopacity="0.0"
     inkscape:pageshadow="2"
     inkscape:zoom="11.313708"
     inkscape:cx="-5.1344489"
     inkscape:cy="27.773254"
     inkscape:document-units="mm"
     inkscape:current-layer="layer1"
     showgrid="true"
     units="px"
     inkscape:window-width="2488"
     inkscape:window-height="1563"
     inkscape:window-x="1992"
     inkscape:window-y="0"
     inkscape:window-maximized="1">
    <inkscape:grid
       type="xygrid"
       id="grid10" />
  </sodipodi:namedview>
  <metadata
     id="metadata5">
    <rdf:RDF>
      <cc:Work
         rdf:about="">
        <dc:format>image/svg+xml</dc:format>
        <dc:type
           rdf:resource="http://purl.org/dc/dcmitype/StillImage" />
        <dc:title />
      </cc:Work>
    </rdf:RDF>
  </metadata>
  <g
     inkscape:label="Livello 1"
     inkscape:groupmode="layer"
     id="layer1"
     transform="translate(0,-281.12498)">
    <g
       transform="matrix(0.66403059,0,0,0.66858843,0.07056032,98.526278)"
       id="layer1-6"
       inkscape:label="Livello 1"
       style="fill:#f9f9f9">
      <g
         transform="matrix(0.19216122,0,0,0.19216122,-6.649756,255.64459)"
         inkscape:label="Livello 1"
         id="layer1-0"
         style="fill:#f9f9f9">
        <g
           id="g75"
           style="fill:#f9f9f9">
          <path
             sodipodi:nodetypes="ccsssssscsscsssscssscsscsscsccsccscsccsscccssccccccccssccssccscscscsssccsscsccsssscscsccccscscssccscscccssccscccccccscscscscccccccssccssssscc"
             inkscape:connector-curvature="0"
             id="path21"
             d="m 83.608341,213.27583 c -2.23132,-0.57582 -4.28412,-1.27046 -4.56177,-1.54364 -0.43724,-0.43021 -0.28432,-1.14762 1.14235,-5.35914 0.90594,-2.67435 2.03491,-6.37057 2.50882,-8.21383 7.45172,-28.98345 9.43764,-37.30757 9.258,-38.80556 -0.10471,-0.87312 -0.98323,-4.84187 -1.95227,-8.81944 -1.73455,-7.11973 -2.25211,-9.26034 -5.71476,-23.63611 -0.95807,-3.97757 -2.53496,-10.50892 -3.50421,-14.51411 -0.96925,-4.0052 -1.75722,-7.41832 -1.75105,-7.58472 0.0391,-1.05362 3.18576,4.84434 4.96596,9.30789 1.63756,4.10592 3.94201,11.33097 5.28918,16.58303 1.09181,4.25649 1.26983,4.67407 1.99267,4.67431 0.43656,1.4e-4 0.79375,-0.10247 0.79375,-0.22804 0,-0.12556 -0.54554,-2.78462 -1.21231,-5.90902 -2.26325,-10.60532 -3.58983,-22.91238 -2.7921,-25.90294 0.26971,-1.01106 0.86242,1.12293 4.31129,15.52221 4.16152,17.37467 4.96605,20.53493 5.17464,20.32635 0.12319,-0.12319 4.430299,-16.9725 7.917279,-30.97218 2.45613,-9.860985 3.1524,-11.396809 5.68444,-12.538597 1.22092,-0.550558 1.50317,-0.562229 2.68831,-0.111162 2.73527,1.041051 3.60968,4.210727 2.42301,8.783279 -0.27494,1.05941 -2.50767,9.8637 -4.96163,19.56509 -2.45396,9.70139 -5.50284,21.70871 -6.77531,26.68295 l -2.31358,9.04406 1.48488,6.12538 c 3.23437,13.34224 4.64534,19.18695 6.67922,27.66747 1.16632,4.86315 2.29107,9.29048 2.49943,9.83851 0.70314,1.84941 0.0791,1.31974 -1.25432,-1.06464 -2.92998,-5.23929 -6.26019,-14.26753 -8.48236,-22.99582 -1.02879,-4.04088 -1.23838,-4.33535 -2.68944,-3.77853 -0.41107,0.15774 -0.32705,0.95571 0.49214,4.6743 1.84529,8.37639 2.5024,13.56033 2.6254,20.71187 0.0865,5.02845 0.026,6.35029 -0.24196,5.29167 -0.19648,-0.77611 -1.16203,-4.82424 -2.14568,-8.99584 -2.993039,-12.69333 -4.073539,-16.78141 -4.289089,-16.22777 -0.80792,2.3778 -6.11065,24.30063 -6.76535,28.17594 -0.74984,4.43845 -1.12351,5.37542 -2.11386,5.30043 -0.19403,-0.0147 -2.1784,-0.49784 -4.40972,-1.07365 z m 16.575499,-42.63057 c 1.2547,-0.6715 1.5411,-2.54011 0.85274,-5.56378 -0.6085,-2.67291 -1.277149,-3.96589 -2.048889,-3.96196 -1.14594,0.006 -3.01734,0.8068 -3.19533,1.3676 -0.24269,0.76465 0.7004,5.04268 1.41725,6.42891 0.42204,0.81614 1.75794,2.0793 2.19903,2.0793 0.0666,0 0.41543,-0.15753 0.775199,-0.35007 z m -7.329159,-23.11905 c 0.71652,-0.82407 0.92934,-0.87388 2.81989,-0.65999 2.37804,0.26905 2.35922,0.30965 1.36771,-2.95075 -1.67436,-5.50581 -4.48437,-7.49759 -6.63175,-4.70071 -0.55332,0.72067 -0.57617,5.08408 -0.0388,7.41199 0.47865,2.07363 1.2265,2.34454 2.48298,0.89946 z m 11.901419,66.30884 c -0.37875,-0.45637 -0.34042,-0.99084 0.22139,-3.0868 0.5624,-2.09815 0.67946,-3.73678 0.67946,-9.51119 0,-4.49023 0.11306,-6.69027 0.31727,-6.17361 2.25208,5.6979 5.87733,11.90162 8.28988,14.18607 1.1591,1.09756 1.38198,1.99006 0.6489,2.59846 -0.39776,0.33011 -8.54831,2.53901 -9.36861,2.53901 -0.18162,0 -0.53635,-0.24837 -0.78829,-0.55194 z m -30.447519,-3.505 c -0.40569,-2.69596 -0.55108,-2.99861 -1.44054,-2.99861 -0.92001,0 -1.78472,-0.83803 -1.44009,-1.39566 0.12517,-0.20253 0.68005,-0.36823 1.23306,-0.36823 h 1.00548 l 0.15667,-15.08125 c 0.16807,-16.17897 0.01,-14.36836 2.36558,-27.05555 0.93889,-5.05632 1.07724,-19.24653 0.18765,-19.24653 -0.44111,0 -0.53421,-0.74843 -0.55949,-4.49792 -0.035,-5.1878 -0.34855,-4.75537 -1.21513,1.6757 -0.60928,4.52162 -1.02167,5.86412 -1.95473,6.36348 -0.99703,0.53359 -1.60286,0.40804 -2.76997,-0.57401 -1.00125,-0.8425 -1.0854,-1.08622 -1.0854,-3.14357 0,-4.01557 1.90314,-8.56524 4.48443,-10.72055 0.73502,-0.61372 1.58785,-1.34987 1.89517,-1.63588 0.35449,-0.32992 1.28188,-0.52003 2.53681,-0.52003 2.09838,0 2.7001,0.34726 1.83943,1.06156 -0.79642,0.66097 -0.77247,10.76254 0.0262,11.06904 0.70253,0.26959 0.31986,0.92218 -0.54076,0.92218 -0.61393,0 -0.66239,0.52416 -0.80712,8.73125 -0.13991,7.93389 -0.25355,9.24681 -1.24438,14.37672 -0.59973,3.10501 -1.25903,6.99022 -1.46512,8.6338 -0.39293,3.13366 -0.53087,28.11856 -0.16057,29.08354 0.12556,0.3272 0.62768,0.55802 1.2139,0.55802 0.54988,0 1.10218,0.1657 1.22735,0.36823 0.3744,0.60579 -0.5539,1.39566 -1.64025,1.39566 -0.93044,0 -1.01862,0.11037 -1.05687,1.32292 -0.023,0.7276 -0.15068,1.79916 -0.28383,2.38125 -0.22523,0.9846 -0.26058,0.93545 -0.50752,-0.70556 z m -2.56613,-64.82291 c 0.54984,-0.87709 1.12431,-3.29337 1.48705,-6.25469 0.13023,-1.06324 0.455,-2.55164 0.7217,-3.30755 0.56409,-1.59878 0.56945,-1.63868 0.22033,-1.63778 -0.52316,0.001 -2.55535,3.39359 -3.27535,5.46738 -1.4169,4.08104 -0.7882,8.33989 0.84627,5.73264 z m 48.803759,64.82291 c -0.13267,-0.77611 -0.24296,-1.84767 -0.24509,-2.38125 -0.003,-0.83267 -0.14773,-0.97014 -1.01903,-0.97014 -1.08634,0 -2.01464,-0.78987 -1.64024,-1.39566 0.12517,-0.20252 0.67747,-0.36823 1.22735,-0.36823 0.58622,0 1.08834,-0.23082 1.2139,-0.55802 0.3703,-0.96498 0.23236,-25.94988 -0.16057,-29.08354 -0.20609,-1.64357 -0.86539,-5.52879 -1.46511,-8.63379 -0.99084,-5.12992 -1.10447,-6.44284 -1.24439,-14.37673 -0.14473,-8.20708 -0.19319,-8.73125 -0.80712,-8.73125 -0.86062,0 -1.24329,-0.65259 -0.54076,-0.92218 0.79872,-0.30649 0.82267,-10.40807 0.0263,-11.06904 -0.86067,-0.7143 -0.25895,-1.06156 1.83942,-1.06156 1.25494,0 2.18233,0.19011 2.53682,0.52003 0.30732,0.28601 1.16014,1.02216 1.89516,1.63588 2.55495,2.13332 4.53402,6.82025 4.52674,10.72048 -0.004,1.91438 -0.10746,2.20939 -1.08703,3.08681 -1.15295,1.03273 -1.79179,1.17611 -2.81064,0.63084 -0.93306,-0.49936 -1.34545,-1.84185 -1.95474,-6.36348 -0.86657,-6.43107 -1.18015,-6.8635 -1.21513,-1.6757 -0.0253,3.74949 -0.11837,4.49792 -0.55949,4.49792 -0.88958,0 -0.75123,14.19021 0.18766,19.24654 2.35581,12.68718 2.1975,10.87657 2.36558,27.05554 l 0.15667,15.08125 h 1.00548 c 0.55301,0 1.10788,0.16571 1.23305,0.36823 0.34734,0.56201 -0.52303,1.39566 -1.45713,1.39566 -0.86988,0 -0.88697,0.0369 -1.47097,3.175 l -0.29543,1.5875 -0.24121,-1.41111 z m 4.74087,-65.59823 c 0.2957,-1.10566 -0.0717,-3.43036 -0.92294,-5.83927 -0.58711,-1.66154 -2.64119,-4.93703 -3.09677,-4.93821 -0.34912,-0.001 -0.34375,0.039 0.22033,1.63778 0.2667,0.75591 0.59147,2.24431 0.72171,3.30755 0.7246,5.91546 2.27145,8.84673 3.07767,5.83215 z M 85.241951,112.8431 c -1.75141,-4.37209 -3.80583,-8.1304 -5.74732,-10.51402 -1.92535,-2.363816 -2.51927,-4.654278 -1.9113,-7.370977 1.09891,-4.910453 6.1324,-5.115412 8.57582,-0.3492 1.21031,2.360854 1.35676,3.325009 0.82826,5.452707 -0.7858,3.16361 -0.95098,6.59226 -0.55151,11.4481 0.20558,2.49895 0.32816,4.58794 0.27241,4.64221 -0.0558,0.0543 -0.71561,-1.43471 -1.46636,-3.30882 z"
             style="fill:#f9f9f9;stroke-width:0.35277778" />
        </g>
      </g>
    </g>
  </g>
</svg>
