<?xml version="1.0" encoding="UTF-8" standalone="no"?>
<!-- Created with Inkscape (http://www.inkscape.org/) -->

<svg
   xmlns:dc="http://purl.org/dc/elements/1.1/"
   xmlns:cc="http://creativecommons.org/ns#"
   xmlns:rdf="http://www.w3.org/1999/02/22-rdf-syntax-ns#"
   xmlns:svg="http://www.w3.org/2000/svg"
   xmlns="http://www.w3.org/2000/svg"
   xmlns:sodipodi="http://sodipodi.sourceforge.net/DTD/sodipodi-0.dtd"
   xmlns:inkscape="http://www.inkscape.org/namespaces/inkscape"
   width="60"
   height="60"
   viewBox="0 0 15.874999 15.875001"
   version="1.1"
   id="svg8"
   inkscape:export-filename="C:\Users\longa\Desktop\Agriturismo_Nicola\sito\startbootstrap-creative-gh-pages\lapoinasito2\css\icon\colazione.png"
   inkscape:export-xdpi="96.199997"
   inkscape:export-ydpi="96.199997"
   inkscape:version="0.92.5 (2060ec1f9f, 2020-04-08)"
   sodipodi:docname="parcheggio.svg">
  <defs
     id="defs2" />
  <sodipodi:namedview
     id="base"
     pagecolor="#ffffff"
     bordercolor="#666666"
     borderopacity="1.0"
     inkscape:pageopacity="0.0"
     inkscape:pageshadow="2"
     inkscape:zoom="8"
     inkscape:cx="38.782906"
     inkscape:cy="19.175895"
     inkscape:document-units="mm"
     inkscape:current-layer="layer1"
     showgrid="true"
     units="px"
     inkscape:window-width="2488"
     inkscape:window-height="1563"
     inkscape:window-x="1992"
     inkscape:window-y="0"
     inkscape:window-maximized="1">
    <inkscape:grid
       type="xygrid"
       id="grid10" />
  </sodipodi:namedview>
  <metadata
     id="metadata5">
    <rdf:RDF>
      <cc:Work
         rdf:about="">
        <dc:format>image/svg+xml</dc:format>
        <dc:type
           rdf:resource="http://purl.org/dc/dcmitype/StillImage" />
        <dc:title />
      </cc:Work>
    </rdf:RDF>
  </metadata>
  <g
     inkscape:label="Livello 1"
     inkscape:groupmode="layer"
     id="layer1"
     transform="translate(0,-281.12498)">
    <path
       style="fill:#f9f9f9;stroke-width:0.08439605"
       d="m 1.9038852,293.41919 c -0.3462313,-0.15979 -0.7592597,-0.6861 -0.8236506,-1.04962 -0.0925461,-0.52245 0.029227,-0.9188 0.4043382,-1.31606 0.5906467,-0.62553 1.3171479,-0.62553 1.9077952,0 0.5505145,0.58302 0.5852059,1.33838 0.088958,1.93696 -0.4308977,0.51976 -1.0283138,0.68212 -1.5774408,0.42872 z m 1.0841664,-0.39657 c 1.154549,-0.74553 0.1522152,-2.6115 -1.0493366,-1.95348 -0.95929822,0.52537 -0.5832136,2.12302 0.4997551,2.12302 0.1578681,0 0.4051797,-0.0764 0.5495815,-0.16954 z m 10.2331174,0.22287 c -0.346231,-0.15977 -0.759259,-0.68611 -0.82365,-1.04962 -0.09255,-0.52244 0.02923,-0.9188 0.404337,-1.31607 0.590648,-0.62554 1.317148,-0.62554 1.907795,0 0.550516,0.58302 0.585208,1.33841 0.08895,1.93697 -0.430897,0.51975 -1.028315,0.68211 -1.57744,0.42872 z m 1.084166,-0.39657 c 1.154549,-0.74554 0.152217,-2.61152 -1.049336,-1.95347 -0.959299,0.52536 -0.583214,2.12301 0.499755,2.12301 0.157868,0 0.405179,-0.0764 0.549581,-0.16954 z M 0.0737484,292.25916 c -0.10190388,-0.27546 -0.12523658,-0.55257 -0.10786623,-1.28108 0.01157966,-0.48563 0.02589772,-0.52194 0.21025519,-0.53317 0.10880654,-0.006 0.39478802,-0.15098 0.63551391,-0.32065 0.56522013,-0.39851 1.56912733,-1.27725 1.51937883,-1.32995 -0.060067,-0.0636 -1.0501329,0.2141 -1.36303529,0.38231 -0.16976977,0.0913 -0.40555635,0.35465 -0.59456749,0.66413 -0.189795,0.31077 -0.31251718,0.44767 -0.31142588,0.34741 0.0030451,-0.27848 0.30146929,-0.88267 0.50388538,-1.02012 0.30104243,-0.20442 2.16641988,-1.01266 2.33716488,-1.01266 0.084544,0 0.3707754,-0.17194 0.6360715,-0.38208 1.143133,-0.90554 2.7133852,-1.73897 3.8630054,-2.05036 0.5395363,-0.14609 0.9089137,-0.17307 2.3687908,-0.17283 1.8236396,2.5e-4 3.3979256,0.11675 3.8933346,0.28804 0.223791,0.0775 0.302445,0.15619 0.320666,0.32151 0.01455,0.1319 0.124534,0.28736 0.276522,0.39084 0.351948,0.23961 0.927688,1.08285 1.129647,1.65451 0.298554,0.84508 0.569633,2.8564 0.464766,3.44838 -0.02808,0.15847 -0.154784,0.41972 -0.281578,0.58056 l -0.230543,0.29247 0.03558,-0.3227 c 0.05664,-0.51377 -0.137605,-1.08166 -0.510412,-1.49219 -1.029761,-1.13397 -2.671315,-0.33954 -2.671315,1.29277 v 0.49369 H 8.1381173 4.0786565 v -0.24479 c 0,-0.7459 -0.5098525,-1.60246 -1.0919622,-1.83448 -0.995926,-0.39699 -2.09955411,0.46014 -2.1251559,1.65046 l -0.00922,0.42881 H 0.50721363 c -0.3003833,0 -0.35655346,-0.0309 -0.4334634,-0.23883 z m 7.2311103,-3.72589 c 1.8877273,-0.17042 1.6678271,5.5e-4 1.918352,-1.49419 l 0.1652297,-0.98604 -0.5431536,0.0576 c -1.2639327,0.13394 -2.8364637,0.64146 -3.9398683,1.27167 -2.1070708,1.20344 -1.4852799,1.50171 2.3994402,1.151 z m 4.2325103,-0.50283 c 1.111686,-0.16105 1.45436,-0.2411 1.535579,-0.35873 0.153667,-0.22257 0.37664,-1.09257 0.298731,-1.16562 -0.151663,-0.14215 -1.531847,-0.36462 -2.547759,-0.41061 l -1.0866219,-0.0492 v 1.09798 c 0,1.08138 0.00276,1.09793 0.1845213,1.09572 0.1014866,-7.3e-4 0.8284846,-0.0956 1.6155496,-0.20955 z"
       id="path3775"
       inkscape:connector-curvature="0" />
  </g>
</svg>
