<?xml version="1.0" encoding="UTF-8" standalone="no"?>
<!-- Created with Inkscape (http://www.inkscape.org/) -->

<svg
   xmlns:dc="http://purl.org/dc/elements/1.1/"
   xmlns:cc="http://creativecommons.org/ns#"
   xmlns:rdf="http://www.w3.org/1999/02/22-rdf-syntax-ns#"
   xmlns:svg="http://www.w3.org/2000/svg"
   xmlns="http://www.w3.org/2000/svg"
   xmlns:sodipodi="http://sodipodi.sourceforge.net/DTD/sodipodi-0.dtd"
   xmlns:inkscape="http://www.inkscape.org/namespaces/inkscape"
   width="60"
   height="60"
   viewBox="0 0 15.874999 15.875001"
   version="1.1"
   id="svg8"
   inkscape:export-filename="C:\Users\longa\Desktop\Agriturismo_Nicola\sito\startbootstrap-creative-gh-pages\lapoinasito2\css\icon\colazione.png"
   inkscape:export-xdpi="96.199997"
   inkscape:export-ydpi="96.199997"
   inkscape:version="0.92.5 (2060ec1f9f, 2020-04-08)"
   sodipodi:docname="phone.svg">
  <defs
     id="defs2" />
  <sodipodi:namedview
     id="base"
     pagecolor="#ffffff"
     bordercolor="#666666"
     borderopacity="1.0"
     inkscape:pageopacity="0.0"
     inkscape:pageshadow="2"
     inkscape:zoom="22.4"
     inkscape:cx="25.71141"
     inkscape:cy="40.232512"
     inkscape:document-units="mm"
     inkscape:current-layer="layer1"
     showgrid="true"
     units="px"
     inkscape:window-width="2488"
     inkscape:window-height="1563"
     inkscape:window-x="1992"
     inkscape:window-y="0"
     inkscape:window-maximized="1">
    <inkscape:grid
       type="xygrid"
       id="grid10" />
  </sodipodi:namedview>
  <metadata
     id="metadata5">
    <rdf:RDF>
      <cc:Work
         rdf:about="">
        <dc:format>image/svg+xml</dc:format>
        <dc:type
           rdf:resource="http://purl.org/dc/dcmitype/StillImage" />
        <dc:title />
      </cc:Work>
    </rdf:RDF>
  </metadata>
  <g
     inkscape:label="Livello 1"
     inkscape:groupmode="layer"
     id="layer1"
     transform="translate(0,-281.12498)">
    <path
       style="fill:#f9f9f9;stroke-width:0.08814935"
       d="m 12.930882,295.72937 c -0.402956,-0.70212 -0.786664,-1.27658 -0.852692,-1.27658 -0.250349,0 -0.635603,-0.44907 -1.034828,-1.20625 -0.460249,-0.87291 -0.685421,-1.61333 -0.685421,-2.25383 0,-0.92668 -0.5886192,-3.08254 -0.8849392,-3.24113 -0.1256664,-0.0673 -0.1728517,-0.18497 -0.1728517,-0.43119 0,-0.57615 0.2662987,-0.518 -4.0957247,-0.89437 -1.5107237,-0.13034 -1.9784349,-0.0674 -2.6542542,0.35714 -0.713707,0.44838 -1.1874775,0.58301 -1.3377269,0.38015 -0.060592,-0.082 -0.1104825,-0.23045 -0.1107707,-0.33025 -2.459e-4,-0.0997 -0.15896957,-0.96749 -0.35258753,-1.92813 -0.19363244,-0.96065 -0.35205241,-1.88292 -0.35205241,-2.04948 0,-0.29029 0.0130145,-0.30282 0.32531399,-0.30282 0.1789114,0 0.65234925,0.1065 1.05206495,0.23666 l 0.7267652,0.23668 0.9314314,-0.19543 c 0.5122801,-0.10741 1.7742749,-0.46728 2.804446,-0.79955 2.5101945,-0.80961 3.0951263,-0.92355 4.4293828,-0.86281 0.748587,0.0341 1.276803,0.11193 1.807058,0.26637 0.412094,0.12007 0.917853,0.24566 1.123907,0.2792 0.239546,0.0391 0.374625,0.10681 0.374625,0.18826 0,0.07 0.05957,0.1501 0.132173,0.17798 0.07274,0.0279 0.132167,0.13774 0.132167,0.24406 0,0.10636 0.04903,0.24238 0.109041,0.30235 0.06001,0.06 0.116416,0.2365 0.125513,0.39228 0.0088,0.15577 0.03138,0.49404 0.0496,0.75172 0.01822,0.2577 0.0014,0.48814 -0.03731,0.51208 -0.03876,0.024 -0.07042,0.1602 -0.07042,0.30278 0,0.14257 -0.03961,0.25924 -0.08821,0.25924 -0.04844,0 -0.08821,0.0557 -0.08821,0.1237 0,0.068 -0.128848,0.1685 -0.286484,0.22338 -0.157568,0.0549 -0.425313,0.18999 -0.594997,0.30026 -0.1697,0.11012 -0.614158,0.33345 -0.987699,0.49598 -0.373541,0.16255 -0.699882,0.34951 -0.725189,0.41547 -0.05133,0.13381 0.253848,0.9684 0.429273,1.17395 0.165319,0.19368 0.510776,1.79676 0.542201,2.51602 0.04063,0.9314 0.273948,1.94664 0.613882,2.6719 0.325257,0.69396 0.387179,1.13238 0.171594,1.2151 -0.246054,0.0944 -0.134052,0.27843 0.330564,0.54332 1.00093,0.5706 1.34743,1.23683 0.912282,1.75396 -0.125951,0.14981 -0.229118,0.30882 -0.229118,0.35343 0,0.0769 -0.552047,0.38002 -0.686157,0.37667 -0.0347,-10e-4 -0.392804,-0.57604 -0.795773,-1.27816 z m 1.658225,0.0828 c 0,-0.24777 -0.346804,-0.66992 -0.760228,-0.92544 -0.292559,-0.18082 -0.321193,-0.18355 -0.45905,-0.0442 -0.137378,0.13894 -0.135933,0.14453 0.02255,0.0845 0.134632,-0.0508 0.157885,-0.0338 0.11294,0.0834 -0.03905,0.10172 -0.01014,0.14965 0.09486,0.15448 0.09197,0.004 0.108168,0.0244 0.04136,0.0514 -0.162656,0.0656 -0.133763,0.205 0.04411,0.21301 0.09212,0.004 0.109903,0.0249 0.04411,0.0516 -0.06059,0.0244 -0.110193,0.0795 -0.110193,0.12249 0,0.0429 0.06638,0.0525 0.147516,0.0215 0.111783,-0.043 0.133765,-0.0208 0.09096,0.0909 -0.0311,0.0811 -0.01489,0.14754 0.03616,0.14754 0.05105,0 0.07636,0.0493 0.05626,0.10952 -0.0201,0.0602 0.04599,0.15305 0.146923,0.20628 0.231362,0.12204 0.491933,-0.0721 0.491933,-0.36677 z"
       id="path3788"
       inkscape:connector-curvature="0" />
  </g>
</svg>
