<?xml version="1.0" encoding="UTF-8" standalone="no"?>
<!-- Created with Inkscape (http://www.inkscape.org/) -->

<svg
   xmlns:dc="http://purl.org/dc/elements/1.1/"
   xmlns:cc="http://creativecommons.org/ns#"
   xmlns:rdf="http://www.w3.org/1999/02/22-rdf-syntax-ns#"
   xmlns:svg="http://www.w3.org/2000/svg"
   xmlns="http://www.w3.org/2000/svg"
   xmlns:sodipodi="http://sodipodi.sourceforge.net/DTD/sodipodi-0.dtd"
   xmlns:inkscape="http://www.inkscape.org/namespaces/inkscape"
   width="60"
   height="60"
   viewBox="0 0 15.874999 15.875001"
   version="1.1"
   id="svg8"
   inkscape:export-filename="C:\Users\longa\Desktop\Agriturismo_Nicola\sito\startbootstrap-creative-gh-pages\lapoinasito2\css\icon\colazione.png"
   inkscape:export-xdpi="96.199997"
   inkscape:export-ydpi="96.199997"
   inkscape:version="0.92.5 (2060ec1f9f, 2020-04-08)"
   sodipodi:docname="tv.svg">
  <defs
     id="defs2" />
  <sodipodi:namedview
     id="base"
     pagecolor="#ffffff"
     bordercolor="#666666"
     borderopacity="1.0"
     inkscape:pageopacity="0.0"
     inkscape:pageshadow="2"
     inkscape:zoom="11.2"
     inkscape:cx="6.7014737"
     inkscape:cy="25.085039"
     inkscape:document-units="mm"
     inkscape:current-layer="layer1"
     showgrid="true"
     units="px"
     inkscape:window-width="2488"
     inkscape:window-height="1563"
     inkscape:window-x="1992"
     inkscape:window-y="0"
     inkscape:window-maximized="1">
    <inkscape:grid
       type="xygrid"
       id="grid10" />
  </sodipodi:namedview>
  <metadata
     id="metadata5">
    <rdf:RDF>
      <cc:Work
         rdf:about="">
        <dc:format>image/svg+xml</dc:format>
        <dc:type
           rdf:resource="http://purl.org/dc/dcmitype/StillImage" />
        <dc:title />
      </cc:Work>
    </rdf:RDF>
  </metadata>
  <g
     inkscape:label="Livello 1"
     inkscape:groupmode="layer"
     id="layer1"
     transform="translate(0,-281.12498)">
    <path
       style="fill:#f9f9f9;stroke-width:0.09756006"
       d="m 2.8347947,296.19035 c -0.09349,-0.37248 0.075119,-0.47245 1.300804,-0.77119 1.0781941,-0.26281 1.0959469,-0.27167 1.1491785,-0.57344 0.02974,-0.16858 0.1082005,-0.61382 0.1743646,-0.98942 l 0.1202993,-0.68293 2.4031078,-0.0261 2.4031081,-0.0261 0.104642,0.61142 c 0.05755,0.3363 0.132351,0.78987 0.166218,1.00794 l 0.06158,0.3965 1.185541,0.29024 1.18554,0.29025 v 0.33764 0.33763 l -5.0954359,0.0253 -5.095437,0.0253 z m 2.3032338,-3.51867 c -0.4560936,-0.021 -1.6414481,-0.10225 -2.6341219,-0.18046 -1.5914639,-0.12556 -1.82393044,-0.16554 -1.96614455,-0.33896 -0.23440543,-0.28584 -0.32651695,-1.77295 -0.32651695,-5.2715 0,-3.23219 0.0949646,-4.96558 0.28638338,-5.22736 0.23127564,-0.31629 2.46137362,-0.46175 7.22574202,-0.4713 4.3336125,-0.009 7.0428385,0.1226 7.5598115,0.3663 0.30887,0.1456 0.348622,0.40939 0.492329,3.26701 0.08183,1.62704 0.08111,2.72551 -0.0028,4.33923 -0.121656,2.33933 -0.203635,2.9762 -0.398594,3.09669 -0.432497,0.2673 -7.3702132,0.55219 -10.2360761,0.42035 z m 8.1775915,-1.48921 c 0.500151,-0.0485 0.931508,-0.11017 0.95857,-0.13721 0.215633,-0.21565 0.277562,-6.81921 0.07484,-7.98035 l -0.06153,-0.35243 -0.745503,-0.0634 c -3.135706,-0.26648 -8.0146359,-0.2664 -11.1515794,1.7e-4 l -0.7476293,0.0636 -0.076723,1.03517 c -0.096821,1.30634 -0.095042,5.12401 0.00295,6.37191 l 0.074342,0.94655 0.4058749,0.0576 c 1.6252432,0.2311 9.0813638,0.26963 11.2663688,0.0583 z"
       id="path3816"
       inkscape:connector-curvature="0" />
    <text
       xml:space="preserve"
       style="font-style:normal;font-weight:normal;font-size:10.19949722px;line-height:1.25;font-family:sans-serif;letter-spacing:0px;word-spacing:0px;fill:#f9f9f9;fill-opacity:1;stroke:none;stroke-width:0.25498739;"
       x="3.4687161"
       y="289.19067"
       id="text3826"><tspan
         sodipodi:role="line"
         id="tspan3824"
         x="3.4687161"
         y="289.19067"
         style="font-style:normal;font-variant:normal;font-weight:normal;font-stretch:normal;font-size:6.79966402px;font-family:'Arial Rounded MT Bold';-inkscape-font-specification:'Arial Rounded MT Bold, Normal';font-variant-ligatures:normal;font-variant-caps:normal;font-variant-numeric:normal;font-feature-settings:normal;text-align:start;writing-mode:lr-tb;text-anchor:start;fill:#f9f9f9;stroke-width:0.25498739;">TV</tspan></text>
  </g>
</svg>
