<?xml version="1.0" encoding="UTF-8" standalone="no"?>
<!-- Created with Inkscape (http://www.inkscape.org/) -->

<svg
   xmlns:dc="http://purl.org/dc/elements/1.1/"
   xmlns:cc="http://creativecommons.org/ns#"
   xmlns:rdf="http://www.w3.org/1999/02/22-rdf-syntax-ns#"
   xmlns:svg="http://www.w3.org/2000/svg"
   xmlns="http://www.w3.org/2000/svg"
   xmlns:sodipodi="http://sodipodi.sourceforge.net/DTD/sodipodi-0.dtd"
   xmlns:inkscape="http://www.inkscape.org/namespaces/inkscape"
   width="60"
   height="60"
   viewBox="0 0 15.874999 15.875001"
   version="1.1"
   id="svg8"
   inkscape:export-filename="C:\Users\longa\Desktop\Agriturismo_Nicola\sito\startbootstrap-creative-gh-pages\lapoinasito2\css\icon\colazione.png"
   inkscape:export-xdpi="96.199997"
   inkscape:export-ydpi="96.199997"
   inkscape:version="0.92.5 (2060ec1f9f, 2020-04-08)"
   sodipodi:docname="wifi.svg">
  <defs
     id="defs2" />
  <sodipodi:namedview
     id="base"
     pagecolor="#ffffff"
     bordercolor="#666666"
     borderopacity="1.0"
     inkscape:pageopacity="0.0"
     inkscape:pageshadow="2"
     inkscape:zoom="11.2"
     inkscape:cx="-12.508827"
     inkscape:cy="30.05486"
     inkscape:document-units="mm"
     inkscape:current-layer="layer1"
     showgrid="true"
     units="px"
     inkscape:window-width="2488"
     inkscape:window-height="1563"
     inkscape:window-x="1992"
     inkscape:window-y="0"
     inkscape:window-maximized="1">
    <inkscape:grid
       type="xygrid"
       id="grid10" />
  </sodipodi:namedview>
  <metadata
     id="metadata5">
    <rdf:RDF>
      <cc:Work
         rdf:about="">
        <dc:format>image/svg+xml</dc:format>
        <dc:type
           rdf:resource="http://purl.org/dc/dcmitype/StillImage" />
        <dc:title />
      </cc:Work>
    </rdf:RDF>
  </metadata>
  <g
     inkscape:label="Livello 1"
     inkscape:groupmode="layer"
     id="layer1"
     transform="translate(0,-281.12498)">
    <path
       style="fill:#f9f9f9;stroke-width:0.00792762"
       d="m 7.6597836,296.63362 c -0.017199,-0.002 -0.075254,-0.006 -0.1290032,-0.012 -0.5337105,-0.0485 -1.0826378,-0.26781 -1.5234342,-0.6086 -0.5692963,-0.44017 -0.9712446,-1.06856 -1.1348609,-1.77421 -0.055782,-0.24059 -0.080188,-0.4622 -0.080102,-0.72746 2.217e-4,-0.59836 0.1534525,-1.14773 0.4619686,-1.65593 0.4092087,-0.67405 1.0668625,-1.16807 1.8190515,-1.36644 0.2745635,-0.0724 0.4343066,-0.0918 0.7544746,-0.0918 0.320166,0 0.4799113,0.0194 0.7544758,0.0918 1.1554818,0.30472 2.0427142,1.29244 2.2394872,2.49311 0.04034,0.24614 0.05396,0.5878 0.03251,0.81461 -0.05996,0.6334 -0.290596,1.20994 -0.680116,1.70012 -0.08401,0.10567 -0.2462542,0.27765 -0.3487467,0.3696 -0.4656472,0.4177 -1.043475,0.67924 -1.6614093,0.75202 -0.099862,0.0105 -0.4368158,0.0218 -0.5042875,0.016 z m -4.2543173,-6.88579 c -0.00373,-0.006 -0.1284267,-0.22731 -0.2774867,-0.49228 l -0.2710283,-0.48179 0.044153,-0.0319 c 0.02428,-0.0175 0.091663,-0.0632 0.149713,-0.1016 0.7882583,-0.52088 1.6716558,-0.91033 2.59571,-1.14428 0.5364897,-0.13577 1.0503703,-0.215 1.6614109,-0.25594 0.193247,-0.012 0.8465977,-0.012 1.0398455,0 0.8218992,0.0549 1.5187756,0.18717 2.2399723,0.4246 0.733825,0.24159 1.401161,0.56702 2.06239,1.00575 l 0.150791,0.10011 -0.01451,0.0253 c -0.008,0.0151 -0.131747,0.23417 -0.275049,0.48949 -0.143303,0.25532 -0.263643,0.46422 -0.267423,0.46422 -0.0038,0 -0.06482,-0.0399 -0.135635,-0.0885 -1.506839,-1.03556 -3.4106784,-1.47943 -5.2890428,-1.23316 -1.1662072,0.15286 -2.2908668,0.57515 -3.2368138,1.2152 -0.075257,0.0509 -0.1444159,0.0977 -0.1536931,0.10387 -0.013728,0.009 -0.018071,0.009 -0.02335,6.3e-4 z m -1.7302225,-3.07839 c -0.2274105,-0.40536 -0.2736676,-0.49285 -0.2650235,-0.50122 0.00558,-0.006 0.065011,-0.0462 0.1316673,-0.0902 1.5700086,-1.0368 3.358352,-1.65389 5.2695996,-1.81832 0.3830144,-0.033 0.4866653,-0.0367 1.0163914,-0.0367 0.5297255,0 0.6333797,0.003 1.0163921,0.0367 1.8023563,0.15509 3.5003363,0.71404 4.9998683,1.64598 0.161525,0.1004 0.384656,0.24632 0.401367,0.26249 0.0086,0.008 -0.0359,0.0927 -0.252932,0.47937 -0.144859,0.2581 -0.269316,0.47915 -0.276572,0.49122 l -0.0132,0.022 -0.0757,-0.0521 c -0.206739,-0.1421 -0.542394,-0.34705 -0.799358,-0.48799 -1.74364,-0.95637 -3.7761228,-1.39162 -5.7895256,-1.23983 -1.6264425,0.12253 -3.2048573,0.62229 -4.5698543,1.44657 -0.1332451,0.0805 -0.3355177,0.20967 -0.4339186,0.27715 -0.036575,0.025 -0.070339,0.048 -0.075082,0.0507 -0.00558,0.003 -0.1139082,-0.18247 -0.2841185,-0.48586 z M 0.48351997,284.5465 c -0.0377557,-0.0619 -0.53659218,-0.95626 -0.53659218,-0.96205 0,-0.009 0.23938926,-0.16746 0.47400941,-0.31227 2.1913651,-1.35254 4.752549,-2.06741 7.4069414,-2.06741 2.5039834,0 4.9147084,0.63257 7.0355744,1.84615 0.311019,0.17797 0.845374,0.51528 0.845374,0.53361 0,0.006 -0.499714,0.90183 -0.536541,0.96197 l -0.01099,0.0181 -0.06827,-0.0456 c -1.404453,-0.93793 -3.00588,-1.59548 -4.692848,-1.92692 -1.834544,-0.36042 -3.7049762,-0.33319 -5.5236993,0.0804 -1.5512308,0.35274 -3.0154238,0.97953 -4.31365259,1.84653 l -0.0682647,0.0456 z"
       id="path3839"
       inkscape:connector-curvature="0" />
  </g>
</svg>
