<?xml version="1.0" encoding="UTF-8" standalone="no"?>
<!-- Created with Inkscape (http://www.inkscape.org/) -->

<svg
   xmlns:dc="http://purl.org/dc/elements/1.1/"
   xmlns:cc="http://creativecommons.org/ns#"
   xmlns:rdf="http://www.w3.org/1999/02/22-rdf-syntax-ns#"
   xmlns:svg="http://www.w3.org/2000/svg"
   xmlns="http://www.w3.org/2000/svg"
   xmlns:sodipodi="http://sodipodi.sourceforge.net/DTD/sodipodi-0.dtd"
   xmlns:inkscape="http://www.inkscape.org/namespaces/inkscape"
   width="180mm"
   height="82mm"
   viewBox="0 0 180 82"
   version="1.1"
   id="svg8"
   inkscape:version="0.92.5 (2060ec1f9f, 2020-04-08)"
   sodipodi:docname="pytorchbasics.svg">
  <defs
     id="defs2" />
  <sodipodi:namedview
     id="base"
     pagecolor="#ffffff"
     bordercolor="#666666"
     borderopacity="1.0"
     inkscape:pageopacity="0.0"
     inkscape:pageshadow="2"
     inkscape:zoom="0.7"
     inkscape:cx="-62.531094"
     inkscape:cy="118.22947"
     inkscape:document-units="mm"
     inkscape:current-layer="layer1"
     showgrid="false"
     inkscape:window-width="1848"
     inkscape:window-height="1016"
     inkscape:window-x="72"
     inkscape:window-y="27"
     inkscape:window-maximized="1" />
  <metadata
     id="metadata5">
    <rdf:RDF>
      <cc:Work
         rdf:about="">
        <dc:format>image/svg+xml</dc:format>
        <dc:type
           rdf:resource="http://purl.org/dc/dcmitype/StillImage" />
        <dc:title />
      </cc:Work>
    </rdf:RDF>
  </metadata>
  <g
     inkscape:label="Layer 1"
     inkscape:groupmode="layer"
     id="layer1"
     transform="translate(0,-215)">
    <g
       id="g847">
      <g
         transform="matrix(0.88326532,0,0,0.88326532,1.4282683,232.88778)"
         id="g861">
        <g
           id="g821">
          <path
             style="fill:#ee4c2c"
             inkscape:connector-curvature="0"
             class="st0"
             d="m 40.8,9.3 -2.1,2.1 c 3.5,3.5 3.5,9.2 0,12.7 -3.5,3.5 -9.2,3.5 -12.7,0 -3.5,-3.5 -3.5,-9.2 0,-12.7 v 0 L 31.6,5.8 32.3,5 V 5 0.8 l -8.5,8.5 c -4.7,4.7 -4.7,12.2 0,16.9 4.7,4.7 12.2,4.7 16.9,0 4.8,-4.7 4.8,-12.3 0.1,-16.9 z"
             id="path817" />
          <circle
             style="fill:#ee4c2c"
             class="st0"
             cx="36.599998"
             cy="7.0999999"
             r="1.6"
             id="circle819" />
        </g>
        <g
           id="g839">
          <g
             id="g837">
            <path
               style="fill:#252525"
               inkscape:connector-curvature="0"
               class="st1"
               d="M 62.6,20 H 59 v 9.3 H 56.3 V 2.9 c 0,0 6.3,0 6.6,0 7,0 10.3,3.4 10.3,8.3 0,5.8 -4.1,8.7 -10.6,8.8 z M 62.8,5.4 c -0.3,0 -3.9,0 -3.9,0 v 12.1 l 3.8,-0.1 c 5,-0.1 7.7,-2.1 7.7,-6.2 0,-3.7 -2.6,-5.8 -7.6,-5.8 z"
               id="path823" />
            <path
               style="fill:#252525"
               inkscape:connector-curvature="0"
               class="st1"
               d="m 85.4,29.2 -1.6,4.2 c -1.8,4.7 -3.6,6.1 -6.3,6.1 -1.5,0 -2.6,-0.4 -3.8,-0.9 l 0.8,-2.4 c 0.9,0.5 1.9,0.8 3,0.8 1.5,0 2.6,-0.8 4,-4.5 L 82.8,29.1 75.3,10 h 2.8 l 6.1,16 6,-16 h 2.7 z"
               id="path825" />
            <path
               style="fill:#252525"
               inkscape:connector-curvature="0"
               class="st1"
               d="M 101.9,5.5 V 29.4 H 99.2 V 5.5 H 89.9 V 2.9 h 21.3 v 2.5 h -9.3 z"
               id="path827" />
            <path
               style="fill:#252525"
               inkscape:connector-curvature="0"
               class="st1"
               d="m 118.8,29.9 c -5.4,0 -9.4,-4 -9.4,-10.2 0,-6.2 4.1,-10.3 9.6,-10.3 5.4,0 9.3,4 9.3,10.2 0,6.2 -4.1,10.3 -9.5,10.3 z m 0.1,-18.1 c -4.1,0 -6.8,3.3 -6.8,7.8 0,4.7 2.8,7.9 6.9,7.9 4.1,0 6.8,-3.3 6.8,-7.8 0,-4.7 -2.8,-7.9 -6.9,-7.9 z"
               id="path829" />
            <path
               style="fill:#252525"
               inkscape:connector-curvature="0"
               class="st1"
               d="m 135,29.4 h -2.6 V 10 L 135,9.5 v 4.1 c 1.3,-2.5 3.2,-4.1 5.7,-4.1 1.3,0 2.5,0.4 3.4,0.9 l -0.7,2.5 c -0.8,-0.5 -1.9,-0.8 -3,-0.8 -2,0 -3.9,1.5 -5.5,5 v 12.3 z"
               id="path831" />
            <path
               style="fill:#252525"
               inkscape:connector-curvature="0"
               class="st1"
               d="m 154.4,29.9 c -5.8,0 -9.5,-4.2 -9.5,-10.2 0,-6.1 4,-10.3 9.5,-10.3 2.4,0 4.4,0.6 6.1,1.7 l -0.7,2.4 c -1.5,-1 -3.3,-1.6 -5.4,-1.6 -4.2,0 -6.8,3.1 -6.8,7.7 0,4.7 2.8,7.8 6.9,7.8 1.9,0 3.9,-0.6 5.4,-1.6 l 0.5,2.4 c -1.7,1.1 -3.8,1.7 -6,1.7 z"
               id="path833" />
            <path
               style="fill:#252525"
               inkscape:connector-curvature="0"
               class="st1"
               d="M 176.7,29.4 V 16.9 c 0,-3.4 -1.4,-4.9 -4.1,-4.9 -2.2,0 -4.4,1.1 -6,2.8 V 29.5 H 164 V 0.9 l 2.6,-0.5 c 0,0 0,12.1 0,12.2 2,-2 4.6,-3.1 6.7,-3.1 3.8,0 6.1,2.4 6.1,6.6 v 13.3 z"
               id="path835" />
          </g>
        </g>
      </g>
      <flowRoot
         transform="matrix(0.21196957,0,0,0.25005704,40.674651,6.8132592)"
         style="font-style:normal;font-weight:normal;font-size:40px;line-height:1.25;font-family:sans-serif;letter-spacing:0px;word-spacing:0px;fill:#000000;fill-opacity:1;stroke:none"
         id="flowRoot863"
         xml:space="preserve"><flowRegion
           id="flowRegion865"><rect
             y="1016.8054"
             x="304.28571"
             height="107.14286"
             width="488.57144"
             id="rect867" /></flowRegion><flowPara
           style="font-style:normal;font-variant:normal;font-weight:normal;font-stretch:normal;font-size:85.33333588px;font-family:sans-serif;-inkscape-font-specification:'sans-serif, Normal';font-variant-ligatures:normal;font-variant-caps:normal;font-variant-numeric:normal;font-feature-settings:normal;text-align:start;writing-mode:lr-tb;text-anchor:start;fill:#007800;fill-opacity:1"
           id="flowPara869">basics</flowPara></flowRoot>    </g>
  </g>
  <style
     id="style815"
     type="text/css">
	.st0{fill:#EE4C2C;}
	.st1{fill:#252525;}
</style>
</svg>
