<?xml version="1.0" encoding="UTF-8" standalone="no"?>
<!-- Created with Inkscape (http://www.inkscape.org/) -->

<svg
   xmlns:dc="http://purl.org/dc/elements/1.1/"
   xmlns:cc="http://creativecommons.org/ns#"
   xmlns:rdf="http://www.w3.org/1999/02/22-rdf-syntax-ns#"
   xmlns:svg="http://www.w3.org/2000/svg"
   xmlns="http://www.w3.org/2000/svg"
   xmlns:sodipodi="http://sodipodi.sourceforge.net/DTD/sodipodi-0.dtd"
   xmlns:inkscape="http://www.inkscape.org/namespaces/inkscape"
   width="184mm"
   height="83mm"
   viewBox="0 0 184 83"
   version="1.1"
   id="svg8"
   inkscape:version="0.92.5 (2060ec1f9f, 2020-04-08)"
   sodipodi:docname="logoCasaEMMa.svg">
  <defs
     id="defs2" />
  <sodipodi:namedview
     id="base"
     pagecolor="#ffffff"
     bordercolor="#666666"
     borderopacity="1.0"
     inkscape:pageopacity="0.0"
     inkscape:pageshadow="2"
     inkscape:zoom="0.98994949"
     inkscape:cx="217.22337"
     inkscape:cy="197.94519"
     inkscape:document-units="mm"
     inkscape:current-layer="g833"
     showgrid="false"
     inkscape:window-width="2488"
     inkscape:window-height="1563"
     inkscape:window-x="1992"
     inkscape:window-y="0"
     inkscape:window-maximized="1" />
  <metadata
     id="metadata5">
    <rdf:RDF>
      <cc:Work
         rdf:about="">
        <dc:format>image/svg+xml</dc:format>
        <dc:type
           rdf:resource="http://purl.org/dc/dcmitype/StillImage" />
        <dc:title></dc:title>
      </cc:Work>
    </rdf:RDF>
  </metadata>
  <g
     inkscape:label="Layer 1"
     inkscape:groupmode="layer"
     id="layer1"
     transform="translate(0,-214)">
    <g
       id="g833"
       transform="translate(-2.1673896,114.98317)">
      <g
         id="g860"
         transform="translate(-3.1271368e-8,-4.0346417)">
        <rect
           style="opacity:1;vector-effect:none;fill:#fffeec;fill-opacity:1;fill-rule:nonzero;stroke:#343434;stroke-width:1.86500001;stroke-linecap:round;stroke-linejoin:miter;stroke-miterlimit:4;stroke-dasharray:none;stroke-dashoffset:0;stroke-opacity:1"
           id="rect906"
           width="181.476"
           height="80.241096"
           x="3.4293907"
           y="104.43092"
           ry="13.229167" />
        <g
           id="g888"
           transform="translate(-3.4915677,-4.7624998)">
          <path
             style="color:#000000;font-style:normal;font-variant:normal;font-weight:normal;font-stretch:normal;font-size:medium;line-height:normal;font-family:sans-serif;font-variant-ligatures:normal;font-variant-position:normal;font-variant-caps:normal;font-variant-numeric:normal;font-variant-alternates:normal;font-feature-settings:normal;text-indent:0;text-align:start;text-decoration:none;text-decoration-line:none;text-decoration-style:solid;text-decoration-color:#000000;letter-spacing:normal;word-spacing:normal;text-transform:none;writing-mode:lr-tb;direction:ltr;text-orientation:mixed;dominant-baseline:auto;baseline-shift:baseline;text-anchor:start;white-space:normal;shape-padding:0;clip-rule:nonzero;display:inline;overflow:visible;visibility:visible;opacity:1;isolation:auto;mix-blend-mode:normal;color-interpolation:sRGB;color-interpolation-filters:linearRGB;solid-color:#000000;solid-opacity:1;vector-effect:none;fill:#5782bb;fill-opacity:1;fill-rule:nonzero;stroke:none;stroke-width:3.06500006;stroke-linecap:round;stroke-linejoin:miter;stroke-miterlimit:4;stroke-dasharray:none;stroke-dashoffset:0;stroke-opacity:1;color-rendering:auto;image-rendering:auto;shape-rendering:auto;text-rendering:auto;enable-background:accumulate"
             d="m 82.476422,116.77553 -16.327984,16.32799 c -1.507714,1.44499 0.724338,3.67503 2.167968,2.16601 l 18.523438,-18.52344 18.476566,18.47657 c 1.44364,1.50864 3.67531,-0.72102 2.16797,-2.16602 L 91.213491,116.78576 c -4.337218,-5.00576 -4.351185,-4.39611 -8.737069,-0.0102 z"
             id="path830"
             inkscape:connector-curvature="0"
             sodipodi:nodetypes="cccccccc" />
          <path
             style="color:#000000;font-style:normal;font-variant:normal;font-weight:normal;font-stretch:normal;font-size:medium;line-height:normal;font-family:sans-serif;font-variant-ligatures:normal;font-variant-position:normal;font-variant-caps:normal;font-variant-numeric:normal;font-variant-alternates:normal;font-feature-settings:normal;text-indent:0;text-align:start;text-decoration:none;text-decoration-line:none;text-decoration-style:solid;text-decoration-color:#000000;letter-spacing:normal;word-spacing:normal;text-transform:none;writing-mode:lr-tb;direction:ltr;text-orientation:mixed;dominant-baseline:auto;baseline-shift:baseline;text-anchor:start;white-space:normal;shape-padding:0;clip-rule:nonzero;display:inline;overflow:visible;visibility:visible;opacity:1;isolation:auto;mix-blend-mode:normal;color-interpolation:sRGB;color-interpolation-filters:linearRGB;solid-color:#000000;solid-opacity:1;vector-effect:none;fill:#5782bb;fill-opacity:1;fill-rule:nonzero;stroke:none;stroke-width:3.06500006;stroke-linecap:round;stroke-linejoin:miter;stroke-miterlimit:4;stroke-dasharray:none;stroke-dashoffset:0;stroke-opacity:1;color-rendering:auto;image-rendering:auto;shape-rendering:auto;text-rendering:auto;enable-background:accumulate"
             d="m 88.78125,118.64844 16.98437,17.02539 21.20408,-0.043 c 4.84071,0 2.4054,-2.30519 -1.28262,-5.99398 l -10.89414,-10.98839 z"
             id="path836"
             inkscape:connector-curvature="0"
             sodipodi:nodetypes="cccccc" />
          <path
             style="color:#000000;font-style:normal;font-variant:normal;font-weight:normal;font-stretch:normal;font-size:medium;line-height:normal;font-family:sans-serif;font-variant-ligatures:normal;font-variant-position:normal;font-variant-caps:normal;font-variant-numeric:normal;font-variant-alternates:normal;font-feature-settings:normal;text-indent:0;text-align:start;text-decoration:none;text-decoration-line:none;text-decoration-style:solid;text-decoration-color:#000000;letter-spacing:normal;word-spacing:normal;text-transform:none;writing-mode:lr-tb;direction:ltr;text-orientation:mixed;dominant-baseline:auto;baseline-shift:baseline;text-anchor:start;white-space:normal;shape-padding:0;clip-rule:nonzero;display:inline;overflow:visible;visibility:visible;opacity:1;isolation:auto;mix-blend-mode:normal;color-interpolation:sRGB;color-interpolation-filters:linearRGB;solid-color:#000000;solid-opacity:1;vector-effect:none;fill:#5782bb;fill-opacity:1;fill-rule:nonzero;stroke:none;stroke-width:1.86500001;stroke-linecap:butt;stroke-linejoin:miter;stroke-miterlimit:4;stroke-dasharray:none;stroke-dashoffset:0;stroke-opacity:1;color-rendering:auto;image-rendering:auto;shape-rendering:auto;text-rendering:auto;enable-background:accumulate"
             d="m 107.04883,113.30469 v 7.16797 h 1.60547 v 0.0234 h 1.86523 v -7.1914 z"
             id="path838"
             inkscape:connector-curvature="0" />
          <path
             style="opacity:1;vector-effect:none;fill:#5782bb;fill-opacity:1;fill-rule:nonzero;stroke:none;stroke-width:2.34936619;stroke-linecap:round;stroke-linejoin:miter;stroke-miterlimit:4;stroke-dasharray:none;stroke-dashoffset:0;stroke-opacity:1"
             d="m 82.593704,127.1977 h 3.638021 v 3.42971 h -3.638021 z"
             id="rect846"
             inkscape:connector-curvature="0" />
          <path
             style="opacity:1;vector-effect:none;fill:#5782bb;fill-opacity:1;fill-rule:nonzero;stroke:none;stroke-width:2.34936619;stroke-linecap:round;stroke-linejoin:miter;stroke-miterlimit:4;stroke-dasharray:none;stroke-dashoffset:0;stroke-opacity:1"
             d="m 87.257164,127.1977 h 3.638021 v 3.42971 h -3.638021 z"
             id="rect846-3"
             inkscape:connector-curvature="0" />
          <path
             style="opacity:1;vector-effect:none;fill:#5782bb;fill-opacity:1;fill-rule:nonzero;stroke:none;stroke-width:2.34936619;stroke-linecap:round;stroke-linejoin:miter;stroke-miterlimit:4;stroke-dasharray:none;stroke-dashoffset:0;stroke-opacity:1"
             d="m 82.582985,131.85767 h 3.638021 v 3.4297 h -3.638021 z"
             id="rect846-6"
             inkscape:connector-curvature="0" />
          <path
             style="opacity:1;vector-effect:none;fill:#5782bb;fill-opacity:1;fill-rule:nonzero;stroke:none;stroke-width:2.34936619;stroke-linecap:round;stroke-linejoin:miter;stroke-miterlimit:4;stroke-dasharray:none;stroke-dashoffset:0;stroke-opacity:1"
             d="m 87.257164,131.85767 h 3.638021 v 3.4297 h -3.638021 z"
             id="rect846-3-7"
             inkscape:connector-curvature="0" />
        </g>
        <g
           transform="translate(1.247425e-7,-10.054166)"
           id="g845">
          <path
             inkscape:connector-curvature="0"
             id="path826"
             d="m 138.62125,174.0463 c -1.18417,-0.51589 -2.448,-1.89688 -2.75824,-3.01395 -0.16479,-0.59331 -0.27082,-4.85158 -0.26819,-10.77083 0.004,-8.95352 0.0461,-9.87997 0.49278,-10.84792 0.93834,-2.0331 2.24922,-2.77813 4.88815,-2.77813 3.04938,0 4.93053,1.94987 4.93053,5.11062 v 1.50397 h -1.83826 -1.83825 l -0.08,-1.38906 -0.08,-1.38907 -1.01065,-0.0832 c -1.83145,-0.1508 -1.76747,-0.517 -1.76747,10.11687 0,7.09209 0.0823,9.65423 0.3175,9.88948 0.41012,0.41013 1.86529,0.41013 2.27541,0 0.22494,-0.22494 0.3175,-1.8015 0.3175,-5.40799 v -5.09049 l -0.99218,-0.0821 -0.99219,-0.0821 -0.0782,-1.78594 -0.0782,-1.78594 h 2.9225 2.92251 v 7.25882 c 0,7.52229 -0.0857,8.22626 -1.1421,9.37869 -1.3257,1.44624 -4.30085,2.05082 -6.14293,1.24832 z M 12.027115,160.5261 v -13.62604 h 4.365625 4.365625 v 1.85208 1.85208 h -2.645834 -2.645833 v 2.77813 2.77812 h 2.645833 2.645834 v 1.85209 1.85208 h -2.645834 -2.645833 v 5.29167 5.29166 h 2.645833 2.645834 v 1.85209 1.85208 H 16.39274 12.027115 Z m 12.7,0 v -13.62604 h 3.120991 3.120991 l 1.001255,6.81302 c 0.889888,6.05522 1.404183,8.79287 1.467124,7.80963 0.01148,-0.17947 0.497139,-3.44063 1.079222,-7.24702 0.582084,-3.80639 1.058334,-7.02307 1.058334,-7.14817 0,-0.12511 1.42875,-0.22746 3.175,-0.22746 h 3.175 v 13.62604 13.62604 H 40.20524 38.485449 V 163.657 c 0,-5.77232 -0.05309,-10.44205 -0.117976,-10.37716 -0.09796,0.098 -3.321608,20.19442 -3.321608,20.70716 0,0.0908 -0.764447,0.16514 -1.698768,0.16514 -1.640431,0 -1.703924,-0.025 -1.848855,-0.7276 -0.08255,-0.40019 -0.809794,-5.01386 -1.616105,-10.25261 -0.806312,-5.23875 -1.51274,-9.64406 -1.569842,-9.78958 -0.0571,-0.14552 -0.11322,4.46815 -0.124709,10.2526 l -0.02089,10.51719 h -1.719791 -1.719792 z m 21.166667,0 v -13.62604 h 3.120991 3.12099 l 1.001255,6.81302 c 0.889889,6.05522 1.404184,8.79287 1.467125,7.80963 0.01148,-0.17947 0.497139,-3.44063 1.079223,-7.24702 0.582083,-3.80639 1.058333,-7.02307 1.058333,-7.14817 0,-0.12511 1.42875,-0.22746 3.175,-0.22746 h 3.175 v 13.62604 13.62604 H 61.371907 59.652116 V 163.657 c 0,-5.77232 -0.05309,-10.44205 -0.117975,-10.37716 -0.09796,0.098 -3.321609,20.19442 -3.321609,20.70716 0,0.0908 -0.764447,0.16514 -1.698768,0.16514 -1.639959,0 -1.704033,-0.0252 -1.8508,-0.7276 -0.08362,-0.40019 -0.810823,-5.01386 -1.616019,-10.25261 -0.805196,-5.23875 -1.51075,-9.64406 -1.567897,-9.78958 -0.05715,-0.14552 -0.113306,4.46815 -0.124794,10.2526 l -0.02089,10.51719 h -1.71979 -1.719792 z m 20.372917,13.21638 c 0,-0.22532 0.892969,-6.31145 1.984375,-13.52473 1.091406,-7.21328 1.984375,-13.16512 1.984375,-13.2263 0,-0.0612 1.101328,-0.077 2.447396,-0.0352 l 2.447396,0.0761 2.301071,13.09687 c 1.265586,7.20329 2.307383,13.30524 2.315104,13.5599 0.01196,0.39479 -0.238665,0.46302 -1.700718,0.46302 -2.007825,0 -1.728983,0.56703 -2.535878,-5.15671 -0.307509,-2.18135 -0.61504,-4.05658 -0.683398,-4.16719 -0.06836,-0.1106 -0.940231,-0.2011 -1.937498,-0.2011 h -1.813211 l -0.152366,0.99219 c -0.0838,0.5457 -0.335216,2.42094 -0.558704,4.16719 -0.61176,4.78007 -0.385512,4.36562 -2.383193,4.36562 -1.371626,0 -1.714751,-0.082 -1.714751,-0.40966 z m 7.921043,-13.41482 c -0.02854,-1.49126 -1.219938,-8.55149 -1.372918,-8.13594 -0.08036,0.21829 -0.342444,1.88516 -0.582419,3.70417 -0.239974,1.81901 -0.505023,3.75378 -0.588994,4.29948 l -0.152678,0.99219 h 1.356733 1.356733 z M 93.2542,160.5261 v -13.62604 h 1.719791 1.719793 v 11.77396 11.77395 h 2.64583 2.645836 v 1.85209 1.85208 H 97.619824 93.2542 Z m 23.8125,13.52208 c 0,-0.0572 -0.83344,-6.05729 -1.85209,-13.33358 -1.01864,-7.2763 -1.85208,-13.36123 -1.85208,-13.52208 0,-0.18325 0.63557,-0.29246 1.70196,-0.29246 1.39458,0 1.72564,0.0836 1.83308,0.46302 0.0721,0.25466 0.5241,3.29918 1.00441,6.7656 0.49674,3.58499 0.95309,6.09486 1.05837,5.82083 0.10179,-0.26496 0.50113,-3.04159 0.88744,-6.17029 0.3863,-3.12869 0.76493,-5.95643 0.8414,-6.28385 0.1263,-0.54077 0.29399,-0.59531 1.83015,-0.59531 1.53886,0 1.69111,0.0498 1.69111,0.55285 0,0.63718 -3.11148,24.87605 -3.33391,25.97163 -0.14403,0.70942 -0.19346,0.7276 -1.97878,0.7276 -1.00709,0 -1.83106,-0.0468 -1.83106,-0.10396 z m 32.80833,-13.52208 v -13.62604 h 2.87734 2.87735 l 0.14019,0.7276 c 0.0771,0.40018 0.71707,4.94657 1.42214,10.10308 l 1.28194,9.37548 0.16352,-7.12652 c 0.0899,-3.91958 0.17923,-8.46597 0.19844,-10.10308 l 0.0349,-2.97656 h 1.7198 1.71979 v 13.62604 13.62604 h -2.88309 -2.88309 l -0.30998,-2.18281 c -0.17049,-1.20055 -0.82602,-5.63563 -1.45674,-9.85573 l -1.14676,-7.67292 -0.0258,9.85573 -0.0258,9.85573 h -1.85209 -1.85208 z m 19.44688,13.12597 c -1.28085,-0.59115 -2.08693,-1.42876 -2.63321,-2.73619 -0.34413,-0.82362 -0.40857,-2.49144 -0.40369,-10.44743 0.005,-8.61274 0.0496,-9.56387 0.49151,-10.53663 1.73633,-3.82251 7.22505,-3.97736 9.02717,-0.25468 0.52925,1.09327 0.54545,1.47622 0.47271,11.1697 l -0.0753,10.03761 -0.66146,0.9769 c -0.78518,1.15963 -2.8784,2.29326 -4.21913,2.28498 -0.51713,-0.003 -1.41649,-0.22562 -1.99857,-0.49426 z m 3.15999,-3.79214 c 0.35285,-0.50376 0.41188,-1.85631 0.41188,-9.43802 0,-7.8637 -0.0488,-8.9039 -0.43788,-9.33383 -0.49727,-0.54947 -1.68057,-0.64082 -2.15504,-0.16636 -0.23488,0.23489 -0.3175,2.73403 -0.3175,9.60438 0,6.87035 0.0826,9.36949 0.3175,9.60437 0.52627,0.52627 1.72728,0.3773 2.18104,-0.27054 z m -66.5277,-9.46612 v -13.49375 h 1.71979 1.71979 v 13.49375 13.49375 h -1.71979 -1.71979 z m 22.225,0 v -13.49375 h 1.85208 1.85208 v 13.49375 13.49375 h -1.85208 -1.85208 z"
             style="fill:#343434;fill-opacity:1;stroke-width:0.26458332" />
          <text
             xml:space="preserve"
             style="font-style:normal;font-weight:normal;font-size:11.32856655px;line-height:1.25;font-family:sans-serif;letter-spacing:0px;word-spacing:0px;fill:#343434;fill-opacity:1;stroke:none;stroke-width:0.28321418"
             x="17.388399"
             y="187.36635"
             id="text840"><tspan
               sodipodi:role="line"
               id="tspan838"
               x="17.388399"
               y="187.36635"
               style="font-style:oblique;font-variant:normal;font-weight:bold;font-stretch:normal;font-family:Purisa;-inkscape-font-specification:'Purisa Bold Oblique';fill:#343434;fill-opacity:1;stroke-width:0.28321418">Mansarda in stile alpino</tspan></text>
        </g>
      </g>
    </g>
  </g>
</svg>
