<?xml version="1.0" encoding="UTF-8" standalone="no"?>
<!-- Created with Inkscape (http://www.inkscape.org/) -->

<svg
   xmlns:dc="http://purl.org/dc/elements/1.1/"
   xmlns:cc="http://creativecommons.org/ns#"
   xmlns:rdf="http://www.w3.org/1999/02/22-rdf-syntax-ns#"
   xmlns:svg="http://www.w3.org/2000/svg"
   xmlns="http://www.w3.org/2000/svg"
   xmlns:sodipodi="http://sodipodi.sourceforge.net/DTD/sodipodi-0.dtd"
   xmlns:inkscape="http://www.inkscape.org/namespaces/inkscape"
   version="1.1"
   id="svg2"
   xml:space="preserve"
   width="695.43311"
   height="313.70078"
   viewBox="0 0 695.43311 313.70078"
   sodipodi:docname="logoCasaEMMa.pdf"
   inkscape:version="0.92.5 (2060ec1f9f, 2020-04-08)"><metadata
     id="metadata8"><rdf:RDF><cc:Work
         rdf:about=""><dc:format>image/svg+xml</dc:format><dc:type
           rdf:resource="http://purl.org/dc/dcmitype/StillImage" /><dc:title></dc:title></cc:Work></rdf:RDF></metadata><defs
     id="defs6" /><sodipodi:namedview
     pagecolor="#ffffff"
     bordercolor="#666666"
     borderopacity="1"
     objecttolerance="10"
     gridtolerance="10"
     guidetolerance="10"
     inkscape:pageopacity="0"
     inkscape:pageshadow="2"
     inkscape:window-width="1003"
     inkscape:window-height="480"
     id="namedview4"
     showgrid="false"
     inkscape:zoom="0.54067026"
     inkscape:cx="347.71655"
     inkscape:cy="156.85039"
     inkscape:window-x="2843"
     inkscape:window-y="435"
     inkscape:window-maximized="0"
     inkscape:current-layer="g10" /><g
     id="g10"
     inkscape:groupmode="layer"
     inkscape:label="logoCasaEMMa"
     transform="matrix(1.3333333,0,0,1.3333333,0,1.2509186e-5)"><g
       id="g12"><g
         id="g14"><path
           d="m 41.078,3.91 h 439.418 c 20.777,0 37.5,16.727 37.5,37.5 v 152.457 c 0,20.774 -16.723,37.5 -37.5,37.5 H 41.078 c -20.777,0 -37.5,-16.726 -37.5,-37.5 V 41.41 c 0,-20.773 16.723,-37.5 37.5,-37.5 z"
           style="fill:#fffeec;fill-opacity:1;fill-rule:nonzero;stroke:#343434;stroke-width:5.28661394;stroke-linecap:round;stroke-linejoin:miter;stroke-miterlimit:4;stroke-dasharray:none;stroke-opacity:1"
           id="path16"
           inkscape:connector-curvature="0" /></g><path
         d="m 217.75,25.402 -46.285,46.286 c -4.274,4.093 2.055,10.417 6.148,6.14 l 52.504,-52.508 52.375,52.375 c 4.094,4.274 10.418,-2.047 6.149,-6.14 L 242.516,25.434 C 230.223,11.242 230.184,12.969 217.75,25.402 Z"
         style="fill:#5782bb;fill-opacity:1;fill-rule:nonzero;stroke:none"
         id="path18"
         inkscape:connector-curvature="0" /><path
         d="m 235.621,30.711 48.145,48.262 60.105,-0.121 c 13.723,0 6.82,-6.536 -3.633,-16.993 L 309.355,30.711 Z"
         style="fill:#5782bb;fill-opacity:1;fill-rule:nonzero;stroke:none"
         id="path20"
         inkscape:connector-curvature="0" /><path
         d="m 287.406,15.562 v 20.321 h 4.551 v 0.066 h 5.285 V 15.562 Z"
         style="fill:#5782bb;fill-opacity:1;fill-rule:nonzero;stroke:none"
         id="path22"
         inkscape:connector-curvature="0" /><path
         d="m 218.082,54.945 h 10.312 v 9.723 h -10.312 z"
         style="fill:#5782bb;fill-opacity:1;fill-rule:nonzero;stroke:none"
         id="path24"
         inkscape:connector-curvature="0" /><path
         d="m 231.301,54.945 h 10.312 v 9.723 h -10.312 z"
         style="fill:#5782bb;fill-opacity:1;fill-rule:nonzero;stroke:none"
         id="path26"
         inkscape:connector-curvature="0" /><path
         d="m 218.051,68.156 h 10.312 v 9.723 h -10.312 z"
         style="fill:#5782bb;fill-opacity:1;fill-rule:nonzero;stroke:none"
         id="path28"
         inkscape:connector-curvature="0" /><path
         d="m 231.301,68.156 h 10.312 v 9.723 h -10.312 z"
         style="fill:#5782bb;fill-opacity:1;fill-rule:nonzero;stroke:none"
         id="path30"
         inkscape:connector-curvature="0" /><path
         d="m 386.797,172.746 c -3.356,-1.465 -6.938,-5.379 -7.817,-8.543 -0.468,-1.683 -0.769,-13.754 -0.761,-30.531 0.011,-25.383 0.133,-28.008 1.398,-30.75 2.66,-5.766 6.375,-7.875 13.856,-7.875 8.644,0 13.976,5.527 13.976,14.484 v 4.266 h -10.422 l -0.453,-7.875 -2.867,-0.238 c -5.191,-0.426 -5.008,-1.465 -5.008,28.679 0,20.102 0.235,27.364 0.899,28.032 1.164,1.164 5.289,1.164 6.449,0 0.641,-0.637 0.902,-5.106 0.902,-15.329 v -14.429 l -2.812,-0.235 -2.813,-0.23 -0.445,-10.125 h 16.57 v 20.574 c 0,21.324 -0.242,23.32 -3.238,26.586 -3.758,4.098 -12.191,5.813 -17.414,3.539 z M 27.949,134.422 V 95.797 h 24.75 v 10.5 h -15 v 15.75 h 15 v 10.5 h -15 v 30 h 15 v 10.5 h -24.75 z m 36,0 V 95.797 h 17.696 l 2.835,19.312 c 2.524,17.164 3.981,24.922 4.161,22.137 0.031,-0.508 1.41,-9.754 3.058,-20.543 1.649,-10.789 3,-19.91 3,-20.262 0,-0.355 4.051,-0.644 9,-0.644 h 9 v 77.25 h -9.75 v -29.75 c 0,-16.363 -0.152,-29.602 -0.336,-29.418 -0.277,0.277 -9.414,57.246 -9.414,58.699 0,0.258 -2.168,0.469 -4.816,0.469 -4.649,0 -4.828,-0.074 -5.242,-2.063 -0.231,-1.136 -2.293,-14.214 -4.579,-29.062 -2.285,-14.852 -4.289,-27.34 -4.449,-27.75 -0.164,-0.414 -0.324,12.664 -0.355,29.062 l -0.059,29.813 h -9.75 z m 60,0 V 95.797 h 17.696 l 2.835,19.312 c 2.524,17.164 3.981,24.922 4.161,22.137 0.031,-0.508 1.41,-9.754 3.058,-20.543 1.649,-10.789 3,-19.91 3,-20.262 0,-0.355 4.051,-0.644 9,-0.644 h 9 v 77.25 h -9.75 v -29.75 c 0,-16.363 -0.152,-29.602 -0.336,-29.418 -0.277,0.277 -9.414,57.246 -9.414,58.699 0,0.258 -2.168,0.469 -4.816,0.469 -4.649,0 -4.828,-0.074 -5.246,-2.063 -0.239,-1.136 -2.297,-14.214 -4.582,-29.062 -2.282,-14.852 -4.282,-27.34 -4.442,-27.75 -0.164,-0.414 -0.324,12.664 -0.355,29.062 l -0.059,29.813 h -9.75 z m 57.75,37.461 c 0,-0.637 2.531,-17.891 5.625,-38.336 3.094,-20.449 5.625,-37.32 5.625,-37.492 0,-0.176 3.121,-0.219 6.938,-0.102 l 6.937,0.219 6.524,37.125 c 3.586,20.418 6.539,37.715 6.562,38.437 0.031,1.118 -0.676,1.313 -4.82,1.313 -5.692,0 -4.902,1.605 -7.192,-14.617 -0.871,-6.184 -1.742,-11.5 -1.937,-11.813 -0.191,-0.316 -2.664,-0.57 -5.492,-0.57 h -5.137 l -0.434,2.812 c -0.238,1.547 -0.949,6.86 -1.582,11.813 -1.734,13.547 -1.093,12.375 -6.757,12.375 -3.887,0 -4.86,-0.235 -4.86,-1.164 z m 22.453,-38.024 c -0.082,-4.23 -3.457,-24.242 -3.89,-23.062 -0.231,0.617 -0.973,5.344 -1.653,10.5 -0.679,5.156 -1.429,10.641 -1.668,12.187 l -0.433,2.813 h 7.691 z m 54.047,0.563 V 95.797 h 9.75 v 66.75 h 15 v 10.5 h -24.75 z m 67.5,38.328 c 0,-0.16 -2.363,-17.168 -5.25,-37.797 -2.887,-20.625 -5.25,-37.871 -5.25,-38.328 0,-0.52 1.801,-0.828 4.824,-0.828 3.954,0 4.891,0.234 5.196,1.312 0.203,0.719 1.484,9.352 2.847,19.176 1.411,10.164 2.704,17.277 3,16.5 0.289,-0.75 1.422,-8.621 2.516,-17.488 1.094,-8.871 2.168,-16.887 2.387,-17.813 0.355,-1.535 0.832,-1.687 5.187,-1.687 4.36,0 4.793,0.141 4.793,1.566 0,1.805 -8.82,70.516 -9.449,73.621 -0.41,2.008 -0.551,2.063 -5.609,2.063 -2.856,0 -5.192,-0.133 -5.192,-0.297 z m 93,-38.328 V 95.797 h 16.313 l 0.398,2.062 c 0.219,1.133 2.031,14.02 4.031,28.637 l 3.633,26.578 0.465,-20.203 c 0.254,-11.109 0.508,-23.996 0.563,-28.637 l 0.097,-8.437 h 9.75 v 77.25 h -16.344 l -0.878,-6.188 c -0.485,-3.406 -2.344,-15.976 -4.133,-27.937 l -3.25,-21.75 -0.071,27.937 -0.074,27.938 h -10.5 z m 55.125,37.207 c -3.633,-1.676 -5.918,-4.051 -7.465,-7.758 -0.976,-2.336 -1.156,-7.062 -1.144,-29.613 0.015,-24.414 0.14,-27.11 1.394,-29.867 4.922,-10.836 20.481,-11.278 25.59,-0.723 1.5,3.098 1.543,4.184 1.34,31.66 l -0.215,28.453 -1.875,2.77 c -2.226,3.289 -8.16,6.5 -11.961,6.476 -1.465,-0.007 -4.015,-0.636 -5.664,-1.398 z m 8.957,-10.75 c 1,-1.43 1.168,-5.262 1.168,-26.754 0,-22.289 -0.14,-25.238 -1.242,-26.457 -1.41,-1.559 -4.762,-1.816 -6.109,-0.473 -0.664,0.664 -0.899,7.75 -0.899,27.227 0,19.473 0.235,26.558 0.899,27.223 1.492,1.492 4.898,1.07 6.183,-0.766 z M 294.199,134.047 v -38.25 h 9.75 v 76.5 h -9.75 z m 63,0 v -38.25 h 10.5 v 76.5 h -10.5 z"
         style="fill:#343434;fill-opacity:1;fill-rule:nonzero;stroke:none"
         id="path32"
         inkscape:connector-curvature="0" /><path
         d="m 101.906,197.535 c 0,0.637 -0.179,1.153 -0.531,1.547 -0.355,0.398 -0.711,0.594 -1.063,0.594 -0.074,0 -0.164,-0.008 -0.265,-0.031 -0.106,-0.02 -0.246,-0.118 -0.422,-0.297 -0.168,-0.188 -0.25,-0.438 -0.25,-0.75 -0.023,-0.582 -0.246,-1.196 -0.672,-1.844 -0.199,-0.27 -0.355,-0.457 -0.469,-0.563 -0.117,-0.113 -0.48,-0.238 -1.093,-0.375 -0.606,-0.144 -1.453,-0.218 -2.547,-0.218 -0.813,0 -1.453,0.125 -1.922,0.375 -0.461,0.25 -1.094,0.781 -1.906,1.593 -1.243,1.219 -2.18,2.352 -2.813,3.391 -0.625,1.031 -0.937,2.184 -0.937,3.453 0,0.168 0.007,0.328 0.031,0.485 0.019,0.148 0.039,0.273 0.062,0.375 0.02,0.105 0.063,0.218 0.125,0.343 0.063,0.117 0.11,0.203 0.141,0.266 0.031,0.062 0.086,0.152 0.172,0.266 0.094,0.105 0.16,0.171 0.203,0.203 0.039,0.031 0.113,0.105 0.219,0.218 0.113,0.106 0.179,0.168 0.203,0.188 0.508,0.512 0.898,0.84 1.172,0.984 0.281,0.137 0.711,0.203 1.297,0.203 1.82,0 4.144,-1.222 6.968,-3.671 1.582,-1.364 2.707,-2.047 3.375,-2.047 0.383,0 0.578,0.226 0.578,0.672 0,0.667 -0.718,1.683 -2.156,3.046 -1.437,1.356 -2.586,2.289 -3.437,2.797 -2.157,1.262 -4.008,1.891 -5.547,1.891 -1.117,0 -2.25,-0.285 -3.406,-0.859 -0.95,-0.446 -1.633,-1.02 -2.047,-1.719 -0.418,-0.696 -0.625,-1.625 -0.625,-2.781 0,-1.219 0.148,-2.504 0.453,-3.86 0.363,-1.644 1.578,-3.336 3.641,-5.078 2.062,-1.75 3.8,-2.785 5.218,-3.109 0.625,-0.145 1.426,-0.219 2.406,-0.219 1.696,0 3.094,0.48 4.188,1.437 1.102,0.95 1.656,1.981 1.656,3.094 z"
         style="fill:#343434;fill-opacity:1;fill-rule:nonzero;stroke:none"
         id="path34"
         inkscape:connector-curvature="0" /><path
         d="m 107.504,207.301 c 0,0.25 0.195,0.465 0.594,0.64 0.394,0.168 0.754,0.25 1.078,0.25 0.469,0 1.082,-0.113 1.844,-0.343 0.757,-0.239 1.406,-0.469 1.937,-0.688 l 0.766,-0.344 c 0.07,-0.281 0.539,-0.726 1.406,-1.343 0.863,-0.625 1.297,-1.004 1.297,-1.141 0,-0.102 -0.063,-0.227 -0.188,-0.375 -0.117,-0.156 -0.422,-0.316 -0.922,-0.484 -0.5,-0.164 -1.168,-0.25 -2,-0.25 -1.824,0 -3.25,0.461 -4.281,1.375 -1.023,0.918 -1.531,1.82 -1.531,2.703 z m 13.609,-10.547 c 0,0.586 -0.304,2.387 -0.906,5.406 -0.594,3.012 -0.965,5.246 -1.109,6.703 -0.157,0.492 -0.438,0.914 -0.844,1.266 -0.406,0.355 -0.719,0.531 -0.938,0.531 -0.656,0 -0.984,-0.648 -0.984,-1.953 0,-0.145 0.031,-0.672 0.094,-1.578 -0.856,0.793 -2.031,1.559 -3.531,2.297 -1.5,0.742 -2.711,1.109 -3.625,1.109 -0.606,0 -1.309,-0.094 -2.11,-0.281 -0.805,-0.195 -1.367,-0.438 -1.687,-0.719 -0.325,-0.289 -0.485,-0.847 -0.485,-1.672 0,-1.531 0.395,-2.722 1.188,-3.578 0.789,-0.863 2.004,-1.66 3.64,-2.39 1.707,-0.79 3.258,-1.188 4.657,-1.188 0.593,0 1.07,0.078 1.437,0.234 0.363,0.149 0.633,0.325 0.813,0.532 0.187,0.199 0.289,0.297 0.312,0.297 0.32,0.062 0.586,0.203 0.797,0.421 0.406,-1.882 0.609,-3.406 0.609,-4.562 0,-1.52 -0.418,-2.281 -1.25,-2.281 -1.023,0 -2.171,0.203 -3.453,0.609 -1.273,0.406 -2.429,0.82 -3.468,1.234 -1.032,0.418 -1.762,0.625 -2.188,0.625 -0.449,0 -0.672,-0.191 -0.672,-0.578 0,-0.019 0.004,-0.047 0.016,-0.078 0.008,-0.031 0.015,-0.055 0.015,-0.078 0.082,-0.363 0.219,-0.676 0.407,-0.937 0.195,-0.27 0.523,-0.516 0.984,-0.735 0.457,-0.226 0.852,-0.406 1.188,-0.531 0.332,-0.133 0.937,-0.344 1.812,-0.625 0.875,-0.281 1.57,-0.516 2.094,-0.703 1.281,-0.446 2.457,-0.672 3.531,-0.672 1.727,0 2.848,0.812 3.359,2.437 0.196,0.532 0.297,1.012 0.297,1.438 z"
         style="fill:#343434;fill-opacity:1;fill-rule:nonzero;stroke:none"
         id="path36"
         inkscape:connector-curvature="0" /><path
         d="m 123.871,208.895 c 0,-0.551 0.149,-1.004 0.453,-1.36 0.301,-0.351 0.602,-0.531 0.906,-0.531 0.532,0 0.926,0.375 1.188,1.125 0.144,0.449 0.566,0.871 1.266,1.266 0.695,0.398 1.382,0.593 2.062,0.593 0.883,0 1.805,-0.508 2.766,-1.531 0.968,-1.031 1.453,-1.758 1.453,-2.187 0,-0.727 -0.465,-1.243 -1.391,-1.547 -0.687,-0.207 -1.422,-0.477 -2.203,-0.813 -0.781,-0.332 -1.367,-0.539 -1.75,-0.625 -0.555,-0.133 -1.246,-0.535 -2.078,-1.203 -0.836,-0.676 -1.25,-1.41 -1.25,-2.203 0,-0.926 0.797,-2.109 2.391,-3.547 1.593,-1.445 3.343,-2.363 5.25,-2.75 l 3.265,-0.281 c 0.582,0 1.004,0.07 1.266,0.203 0.269,0.137 0.578,0.465 0.922,0.984 0.468,0.68 0.703,1.242 0.703,1.688 0,0.242 -0.09,0.461 -0.266,0.656 -0.168,0.188 -0.406,0.281 -0.719,0.281 -0.343,0 -0.621,-0.078 -0.828,-0.234 -0.199,-0.164 -0.351,-0.336 -0.453,-0.516 -0.094,-0.187 -0.277,-0.359 -0.547,-0.515 -0.261,-0.164 -0.617,-0.25 -1.062,-0.25 -0.949,0 -2.012,0.277 -3.188,0.828 -1.179,0.543 -2.136,1.121 -2.875,1.734 -0.742,0.606 -1.109,1.039 -1.109,1.297 0,0.281 0.269,0.621 0.812,1.016 0.551,0.398 1.364,0.765 2.438,1.109 1.844,0.594 3.145,1.164 3.906,1.703 0.758,0.531 1.141,1.227 1.141,2.078 0,0.469 -0.133,1.075 -0.391,1.813 -0.261,0.742 -0.539,1.336 -0.828,1.781 -0.461,0.711 -1.211,1.445 -2.25,2.203 -1.031,0.758 -2.008,1.141 -2.922,1.141 -0.668,0 -1.515,-0.094 -2.547,-0.281 -1.023,-0.18 -1.793,-0.399 -2.312,-0.657 -0.344,-0.187 -0.637,-0.515 -0.875,-0.984 -0.231,-0.469 -0.344,-0.961 -0.344,-1.484 z"
         style="fill:#343434;fill-opacity:1;fill-rule:nonzero;stroke:none"
         id="path38"
         inkscape:connector-curvature="0" /><path
         d="m 144.496,207.301 c 0,0.25 0.195,0.465 0.594,0.64 0.394,0.168 0.754,0.25 1.078,0.25 0.469,0 1.082,-0.113 1.844,-0.343 0.758,-0.239 1.406,-0.469 1.937,-0.688 l 0.766,-0.344 c 0.07,-0.281 0.539,-0.726 1.406,-1.343 0.863,-0.625 1.297,-1.004 1.297,-1.141 0,-0.102 -0.063,-0.227 -0.188,-0.375 -0.117,-0.156 -0.421,-0.316 -0.921,-0.484 -0.5,-0.164 -1.168,-0.25 -2,-0.25 -1.825,0 -3.25,0.461 -4.282,1.375 -1.023,0.918 -1.531,1.82 -1.531,2.703 z m 13.609,-10.547 c 0,0.586 -0.304,2.387 -0.906,5.406 -0.594,3.012 -0.965,5.246 -1.109,6.703 -0.156,0.492 -0.438,0.914 -0.844,1.266 -0.406,0.355 -0.719,0.531 -0.937,0.531 -0.657,0 -0.985,-0.648 -0.985,-1.953 0,-0.145 0.031,-0.672 0.094,-1.578 -0.856,0.793 -2.031,1.559 -3.531,2.297 -1.5,0.742 -2.711,1.109 -3.625,1.109 -0.606,0 -1.309,-0.094 -2.11,-0.281 -0.804,-0.195 -1.367,-0.438 -1.687,-0.719 -0.324,-0.289 -0.485,-0.847 -0.485,-1.672 0,-1.531 0.395,-2.722 1.188,-3.578 0.789,-0.863 2.004,-1.66 3.641,-2.39 1.707,-0.79 3.257,-1.188 4.656,-1.188 0.594,0 1.07,0.078 1.437,0.234 0.364,0.149 0.633,0.325 0.813,0.532 0.187,0.199 0.289,0.297 0.312,0.297 0.321,0.062 0.586,0.203 0.797,0.421 0.406,-1.882 0.61,-3.406 0.61,-4.562 0,-1.52 -0.418,-2.281 -1.25,-2.281 -1.024,0 -2.172,0.203 -3.454,0.609 -1.273,0.406 -2.429,0.82 -3.468,1.234 -1.032,0.418 -1.762,0.625 -2.188,0.625 -0.449,0 -0.672,-0.191 -0.672,-0.578 0,-0.019 0.004,-0.047 0.016,-0.078 0.008,-0.031 0.016,-0.055 0.016,-0.078 0.082,-0.363 0.218,-0.676 0.406,-0.937 0.195,-0.27 0.523,-0.516 0.984,-0.735 0.457,-0.226 0.852,-0.406 1.188,-0.531 0.332,-0.133 0.937,-0.344 1.812,-0.625 0.875,-0.281 1.571,-0.516 2.094,-0.703 1.281,-0.446 2.457,-0.672 3.531,-0.672 1.727,0 2.848,0.812 3.36,2.437 0.195,0.532 0.296,1.012 0.296,1.438 z"
         style="fill:#343434;fill-opacity:1;fill-rule:nonzero;stroke:none"
         id="path40"
         inkscape:connector-curvature="0" /><path
         d="m 187.422,191.816 c 0.383,0 0.625,0.118 0.719,0.344 0.101,0.219 0.156,0.563 0.156,1.031 0,1.7 -0.383,4.762 -1.141,9.188 -0.761,4.43 -1.324,6.883 -1.687,7.359 -0.492,0.344 -0.985,0.516 -1.485,0.516 -0.324,0 -0.589,-0.051 -0.796,-0.156 -0.2,-0.114 -0.325,-0.219 -0.376,-0.313 -0.054,-0.094 -0.078,-0.176 -0.078,-0.25 0,-0.531 0.313,-2.816 0.938,-6.859 0.633,-4.051 1.101,-6.738 1.406,-8.063 0.281,-1.289 0.676,-2.093 1.188,-2.406 0.425,-0.258 0.812,-0.391 1.156,-0.391 z m 0.031,-6.64 c 0,-0.539 0.211,-0.988 0.641,-1.344 0.426,-0.352 0.812,-0.531 1.156,-0.531 0.281,0 0.613,0.125 1,0.375 0.383,0.25 0.578,0.57 0.578,0.953 0,0.406 -0.183,0.875 -0.547,1.406 -0.367,0.531 -0.804,0.797 -1.312,0.797 -0.387,0 -0.735,-0.148 -1.047,-0.453 -0.313,-0.313 -0.469,-0.711 -0.469,-1.203 z"
         style="fill:#343434;fill-opacity:1;fill-rule:nonzero;stroke:none"
         id="path42"
         inkscape:connector-curvature="0" /><path
         d="m 207.199,192.332 c 0.77,0 1.367,0.422 1.797,1.266 0.438,0.843 0.656,1.703 0.656,2.578 0,1.719 -0.625,5.371 -1.875,10.953 -0.293,1.418 -0.589,2.375 -0.89,2.875 -0.305,0.5 -0.75,0.75 -1.344,0.75 -0.523,0 -0.781,-0.227 -0.781,-0.672 0,-0.082 0.379,-1.828 1.14,-5.234 0.758,-3.414 1.141,-6.004 1.141,-7.766 0,-0.383 -0.07,-0.707 -0.203,-0.969 -0.125,-0.269 -0.235,-0.441 -0.328,-0.515 -0.094,-0.082 -0.164,-0.125 -0.203,-0.125 -0.344,0 -1.204,0.718 -2.579,2.156 -1.367,1.437 -2.562,2.902 -3.593,4.391 -1.094,1.593 -1.84,2.757 -2.235,3.484 -0.398,0.719 -0.797,1.699 -1.203,2.937 -0.492,1.461 -0.836,2.407 -1.031,2.844 -0.188,0.438 -0.414,0.656 -0.672,0.656 -0.086,0 -0.18,-0.027 -0.281,-0.078 -0.106,-0.054 -0.231,-0.14 -0.375,-0.265 -0.137,-0.125 -0.25,-0.321 -0.344,-0.578 -0.094,-0.262 -0.141,-0.563 -0.141,-0.907 0,-0.445 0.063,-1.125 0.188,-2.031 0.125,-0.906 0.312,-2.258 0.562,-4.062 0.258,-1.801 0.489,-3.676 0.688,-5.625 0.281,-2.758 0.516,-4.438 0.703,-5.032 0.301,-0.883 0.738,-1.328 1.313,-1.328 0.281,0 0.476,0.094 0.593,0.281 0.125,0.18 0.188,0.528 0.188,1.047 0,0.512 -0.164,2.371 -0.485,5.578 l -0.359,3.657 0.578,-1.047 c 0.75,-1.375 1.36,-2.379 1.828,-3.016 0.477,-0.644 1.297,-1.566 2.453,-2.765 2.219,-2.29 3.915,-3.438 5.094,-3.438 z"
         style="fill:#343434;fill-opacity:1;fill-rule:nonzero;stroke:none"
         id="path44"
         inkscape:connector-curvature="0" /><path
         d="m 233.695,208.895 c 0,-0.551 0.149,-1.004 0.453,-1.36 0.301,-0.351 0.602,-0.531 0.907,-0.531 0.531,0 0.925,0.375 1.187,1.125 0.145,0.449 0.567,0.871 1.266,1.266 0.695,0.398 1.383,0.593 2.062,0.593 0.883,0 1.805,-0.508 2.766,-1.531 0.969,-1.031 1.453,-1.758 1.453,-2.187 0,-0.727 -0.465,-1.243 -1.391,-1.547 -0.687,-0.207 -1.421,-0.477 -2.203,-0.813 -0.781,-0.332 -1.367,-0.539 -1.75,-0.625 -0.554,-0.133 -1.246,-0.535 -2.078,-1.203 -0.836,-0.676 -1.25,-1.41 -1.25,-2.203 0,-0.926 0.797,-2.109 2.391,-3.547 1.594,-1.445 3.344,-2.363 5.25,-2.75 l 3.265,-0.281 c 0.582,0 1.004,0.07 1.266,0.203 0.27,0.137 0.578,0.465 0.922,0.984 0.469,0.68 0.703,1.242 0.703,1.688 0,0.242 -0.09,0.461 -0.266,0.656 -0.168,0.188 -0.406,0.281 -0.718,0.281 -0.344,0 -0.621,-0.078 -0.828,-0.234 -0.2,-0.164 -0.352,-0.336 -0.454,-0.516 -0.093,-0.187 -0.277,-0.359 -0.546,-0.515 -0.262,-0.164 -0.618,-0.25 -1.063,-0.25 -0.949,0 -2.012,0.277 -3.187,0.828 -1.18,0.543 -2.137,1.121 -2.875,1.734 -0.743,0.606 -1.11,1.039 -1.11,1.297 0,0.281 0.27,0.621 0.813,1.016 0.55,0.398 1.363,0.765 2.437,1.109 1.844,0.594 3.145,1.164 3.906,1.703 0.758,0.531 1.141,1.227 1.141,2.078 0,0.469 -0.133,1.075 -0.391,1.813 -0.261,0.742 -0.539,1.336 -0.828,1.781 -0.461,0.711 -1.211,1.445 -2.25,2.203 -1.031,0.758 -2.007,1.141 -2.922,1.141 -0.668,0 -1.515,-0.094 -2.546,-0.281 -1.024,-0.18 -1.793,-0.399 -2.313,-0.657 -0.344,-0.187 -0.637,-0.515 -0.875,-0.984 -0.23,-0.469 -0.344,-0.961 -0.344,-1.484 z"
         style="fill:#343434;fill-opacity:1;fill-rule:nonzero;stroke:none"
         id="path46"
         inkscape:connector-curvature="0" /><path
         d="m 259.711,211.473 c -0.586,0 -1.008,-0.133 -1.266,-0.391 -0.25,-0.262 -0.375,-0.785 -0.375,-1.578 0,-0.789 0.071,-1.453 0.219,-1.984 0.156,-0.75 0.273,-1.516 0.359,-2.297 0.082,-0.782 0.196,-2 0.344,-3.657 0.156,-1.664 0.332,-3.382 0.531,-5.156 0.063,-0.488 0.118,-0.961 0.172,-1.422 0.051,-0.468 0.086,-0.804 0.11,-1.015 0.019,-0.219 0.039,-0.414 0.062,-0.594 0.02,-0.188 0.031,-0.332 0.031,-0.438 -0.687,0.043 -1.648,0.168 -2.875,0.375 -1.23,0.2 -2.046,0.297 -2.453,0.297 -0.793,0 -1.187,-0.254 -1.187,-0.765 0,-0.688 0.429,-1.203 1.297,-1.547 0.875,-0.344 1.937,-0.602 3.187,-0.781 1.25,-0.188 2.047,-0.364 2.391,-0.532 0.164,-0.156 0.347,-0.617 0.547,-1.39 0.164,-0.758 0.281,-1.758 0.343,-3 0.071,-1.25 0.211,-2.375 0.422,-3.375 0.145,-0.688 0.438,-1.196 0.875,-1.532 0.446,-0.332 0.883,-0.5 1.313,-0.5 0.57,0 0.859,0.258 0.859,0.766 0,0.481 -0.125,1.883 -0.375,4.203 -0.242,2.324 -0.371,3.688 -0.39,4.094 0.187,-0.02 0.781,-0.109 1.781,-0.266 1,-0.164 1.754,-0.25 2.265,-0.25 1.196,0 1.797,0.321 1.797,0.953 0,0.993 -1.445,1.711 -4.328,2.157 l -1.875,0.297 -0.797,4.875 c -0.492,3.042 -0.804,5.886 -0.937,8.531 -0.125,2.637 -0.219,4.137 -0.281,4.5 -0.2,0.945 -0.789,1.422 -1.766,1.422 z"
         style="fill:#343434;fill-opacity:1;fill-rule:nonzero;stroke:none"
         id="path48"
         inkscape:connector-curvature="0" /><path
         d="m 276.117,191.816 c 0.383,0 0.625,0.118 0.719,0.344 0.102,0.219 0.156,0.563 0.156,1.031 0,1.7 -0.383,4.762 -1.14,9.188 -0.762,4.43 -1.325,6.883 -1.688,7.359 -0.492,0.344 -0.984,0.516 -1.484,0.516 -0.325,0 -0.59,-0.051 -0.797,-0.156 -0.199,-0.114 -0.324,-0.219 -0.375,-0.313 -0.055,-0.094 -0.078,-0.176 -0.078,-0.25 0,-0.531 0.312,-2.816 0.937,-6.859 0.633,-4.051 1.102,-6.738 1.406,-8.063 0.282,-1.289 0.676,-2.093 1.188,-2.406 0.426,-0.258 0.812,-0.391 1.156,-0.391 z m 0.031,-6.64 c 0,-0.539 0.211,-0.988 0.641,-1.344 0.426,-0.352 0.813,-0.531 1.156,-0.531 0.282,0 0.614,0.125 1,0.375 0.383,0.25 0.578,0.57 0.578,0.953 0,0.406 -0.183,0.875 -0.546,1.406 -0.368,0.531 -0.805,0.797 -1.313,0.797 -0.387,0 -0.734,-0.148 -1.047,-0.453 -0.312,-0.313 -0.469,-0.711 -0.469,-1.203 z"
         style="fill:#343434;fill-opacity:1;fill-rule:nonzero;stroke:none"
         id="path50"
         inkscape:connector-curvature="0" /><path
         d="m 285.629,184.598 c 0.344,-1.563 0.66,-2.758 0.953,-3.594 0.301,-0.844 0.563,-1.375 0.781,-1.594 0.227,-0.226 0.504,-0.344 0.828,-0.344 0.219,0 0.407,0.071 0.563,0.204 0.164,0.125 0.25,0.281 0.25,0.468 0,0.524 -0.356,3.278 -1.063,8.266 -0.711,4.98 -1.414,9.836 -2.109,14.562 -0.699,4.719 -1.059,7.122 -1.078,7.204 -0.149,0.75 -0.637,1.125 -1.469,1.125 -0.406,0 -0.699,-0.106 -0.875,-0.313 -0.168,-0.195 -0.25,-0.609 -0.25,-1.234 0,-0.645 0.086,-1.649 0.266,-3.016 0.187,-1.375 0.508,-3.672 0.969,-6.891 0.457,-3.218 0.89,-6.421 1.296,-9.609 0.239,-1.656 0.551,-3.398 0.938,-5.234 z"
         style="fill:#343434;fill-opacity:1;fill-rule:nonzero;stroke:none"
         id="path52"
         inkscape:connector-curvature="0" /><path
         d="m 305.395,197.941 c 0.07,-0.101 0.109,-0.195 0.109,-0.281 0,-0.082 -0.059,-0.187 -0.172,-0.312 -0.105,-0.133 -0.293,-0.332 -0.562,-0.594 l -0.391,-0.375 c -0.555,-0.52 -0.969,-0.844 -1.25,-0.969 -0.281,-0.125 -0.688,-0.187 -1.219,-0.187 -1.074,0 -1.883,0.086 -2.422,0.25 -0.531,0.156 -1.125,0.5 -1.781,1.031 -2.023,1.625 -3.086,2.664 -3.187,3.109 0.082,0.024 0.265,0.032 0.546,0.032 2.071,0 5.024,-0.36 8.86,-1.079 0.383,-0.07 0.707,-0.171 0.969,-0.296 0.257,-0.125 0.425,-0.235 0.5,-0.329 z m 1.437,5.688 c 0.82,-0.57 1.395,-0.859 1.719,-0.859 0.32,0 0.484,0.164 0.484,0.484 0,0.43 -0.402,1.121 -1.203,2.078 -0.805,0.949 -1.652,1.75 -2.547,2.406 -2.836,2.063 -5.523,3.094 -8.062,3.094 -1.782,0 -3.313,-0.602 -4.594,-1.812 -1.281,-1.219 -1.922,-2.907 -1.922,-5.063 0,-1.801 0.375,-3.383 1.125,-4.75 0.738,-1.332 2.039,-2.719 3.906,-4.156 1.864,-1.446 3.516,-2.172 4.953,-2.172 0.364,0 0.922,0.031 1.672,0.094 1.125,0.086 1.91,0.199 2.36,0.343 0.457,0.137 0.953,0.407 1.484,0.813 0.508,0.406 0.953,0.953 1.328,1.641 0.375,0.687 0.563,1.339 0.563,1.953 0,0.449 -0.11,0.851 -0.328,1.203 -0.211,0.355 -0.454,0.64 -0.735,0.859 -0.273,0.211 -0.668,0.406 -1.187,0.594 -0.512,0.18 -0.953,0.312 -1.328,0.406 -0.375,0.086 -0.86,0.18 -1.454,0.281 -2.168,0.407 -4.359,0.672 -6.578,0.797 l -2.828,0.125 -0.172,0.844 c -0.086,0.469 -0.125,0.793 -0.125,0.969 0,1 0.504,2.008 1.516,3.015 0.914,0.938 1.973,1.407 3.172,1.407 0.945,0 2.008,-0.282 3.187,-0.844 1.176,-0.57 2.196,-1.195 3.063,-1.875 0.863,-0.688 1.707,-1.313 2.531,-1.875 z"
         style="fill:#343434;fill-opacity:1;fill-rule:nonzero;stroke:none"
         id="path54"
         inkscape:connector-curvature="0" /><path
         d="m 335.918,207.301 c 0,0.25 0.195,0.465 0.594,0.64 0.394,0.168 0.754,0.25 1.078,0.25 0.469,0 1.082,-0.113 1.844,-0.343 0.757,-0.239 1.406,-0.469 1.937,-0.688 l 0.766,-0.344 c 0.07,-0.281 0.539,-0.726 1.406,-1.343 0.863,-0.625 1.297,-1.004 1.297,-1.141 0,-0.102 -0.063,-0.227 -0.188,-0.375 -0.117,-0.156 -0.422,-0.316 -0.922,-0.484 -0.5,-0.164 -1.168,-0.25 -2,-0.25 -1.824,0 -3.25,0.461 -4.281,1.375 -1.023,0.918 -1.531,1.82 -1.531,2.703 z m 13.609,-10.547 c 0,0.586 -0.304,2.387 -0.906,5.406 -0.594,3.012 -0.965,5.246 -1.109,6.703 -0.157,0.492 -0.438,0.914 -0.844,1.266 -0.406,0.355 -0.719,0.531 -0.938,0.531 -0.656,0 -0.984,-0.648 -0.984,-1.953 0,-0.145 0.031,-0.672 0.094,-1.578 -0.856,0.793 -2.031,1.559 -3.531,2.297 -1.5,0.742 -2.711,1.109 -3.625,1.109 -0.606,0 -1.309,-0.094 -2.11,-0.281 -0.804,-0.195 -1.367,-0.438 -1.687,-0.719 -0.325,-0.289 -0.485,-0.847 -0.485,-1.672 0,-1.531 0.395,-2.722 1.188,-3.578 0.789,-0.863 2.004,-1.66 3.64,-2.39 1.708,-0.79 3.258,-1.188 4.657,-1.188 0.593,0 1.07,0.078 1.437,0.234 0.364,0.149 0.633,0.325 0.813,0.532 0.187,0.199 0.289,0.297 0.312,0.297 0.321,0.062 0.586,0.203 0.797,0.421 0.406,-1.882 0.609,-3.406 0.609,-4.562 0,-1.52 -0.417,-2.281 -1.25,-2.281 -1.023,0 -2.171,0.203 -3.453,0.609 -1.273,0.406 -2.429,0.82 -3.468,1.234 -1.032,0.418 -1.762,0.625 -2.188,0.625 -0.449,0 -0.672,-0.191 -0.672,-0.578 0,-0.019 0.004,-0.047 0.016,-0.078 0.008,-0.031 0.015,-0.055 0.015,-0.078 0.083,-0.363 0.219,-0.676 0.407,-0.937 0.195,-0.27 0.523,-0.516 0.984,-0.735 0.457,-0.226 0.852,-0.406 1.188,-0.531 0.332,-0.133 0.937,-0.344 1.812,-0.625 0.875,-0.281 1.57,-0.516 2.094,-0.703 1.281,-0.446 2.457,-0.672 3.531,-0.672 1.727,0 2.848,0.812 3.359,2.437 0.196,0.532 0.297,1.012 0.297,1.438 z"
         style="fill:#343434;fill-opacity:1;fill-rule:nonzero;stroke:none"
         id="path56"
         inkscape:connector-curvature="0" /><path
         d="m 357.848,184.598 c 0.343,-1.563 0.66,-2.758 0.953,-3.594 0.301,-0.844 0.562,-1.375 0.781,-1.594 0.227,-0.226 0.504,-0.344 0.828,-0.344 0.219,0 0.406,0.071 0.563,0.204 0.164,0.125 0.25,0.281 0.25,0.468 0,0.524 -0.356,3.278 -1.063,8.266 -0.711,4.98 -1.414,9.836 -2.109,14.562 -0.699,4.719 -1.059,7.122 -1.078,7.204 -0.149,0.75 -0.637,1.125 -1.469,1.125 -0.406,0 -0.699,-0.106 -0.875,-0.313 -0.168,-0.195 -0.25,-0.609 -0.25,-1.234 0,-0.645 0.086,-1.649 0.266,-3.016 0.187,-1.375 0.507,-3.672 0.968,-6.891 0.457,-3.218 0.891,-6.421 1.297,-9.609 0.238,-1.656 0.551,-3.398 0.938,-5.234 z"
         style="fill:#343434;fill-opacity:1;fill-rule:nonzero;stroke:none"
         id="path58"
         inkscape:connector-curvature="0" /><path
         d="m 364.816,214.129 c 0,-2.336 0.207,-5.375 0.625,-9.125 0.414,-3.758 0.625,-5.801 0.625,-6.125 0,-0.551 -0.121,-0.828 -0.359,-0.828 -0.875,0 -1.312,-0.27 -1.312,-0.813 0,-0.343 0.179,-0.676 0.546,-1 0.364,-0.332 0.75,-0.648 1.157,-0.953 0.406,-0.301 0.629,-0.566 0.672,-0.797 0.039,-0.238 0.144,-0.539 0.312,-0.906 0.176,-0.363 0.457,-0.742 0.844,-1.141 0.383,-0.394 0.801,-0.593 1.25,-0.593 0.258,0 0.469,0.058 0.625,0.172 0.164,0.105 0.273,0.214 0.328,0.328 0.051,0.117 0.113,0.23 0.187,0.343 0.071,0.106 0.164,0.157 0.282,0.157 0.187,0 1.05,-0.164 2.593,-0.5 1.539,-0.332 2.899,-0.5 4.079,-0.5 0.988,0 2.05,0.121 3.187,0.359 1.945,0.449 2.922,1.539 2.922,3.266 0,1.886 -1.203,4.531 -3.609,7.937 -1.325,1.887 -2.809,3.344 -4.454,4.375 -1.648,1.024 -3.296,1.531 -4.953,1.531 -0.429,0 -0.777,-0.019 -1.047,-0.062 l -0.937,-0.125 0.031,1.094 c 0,0.043 0.004,0.195 0.016,0.453 0.008,0.269 0.019,0.629 0.031,1.078 0.008,0.445 0.016,0.941 0.016,1.484 0,0.657 -0.008,1.16 -0.016,1.516 -0.012,0.351 -0.031,0.769 -0.062,1.25 -0.032,0.488 -0.094,0.844 -0.188,1.062 -0.086,0.227 -0.199,0.461 -0.344,0.704 -0.148,0.25 -0.34,0.421 -0.578,0.515 -0.242,0.102 -0.515,0.156 -0.828,0.156 -0.625,0 -1.043,-0.183 -1.25,-0.546 -0.262,-0.481 -0.391,-1.735 -0.391,-3.766 z m 6.188,-7.219 c 0.906,0 2.082,-0.601 3.531,-1.812 1.457,-1.207 2.75,-2.625 3.875,-4.25 1.125,-1.633 1.688,-2.985 1.688,-4.047 0,-0.301 -0.043,-0.582 -0.125,-0.844 -0.086,-0.258 -0.168,-0.441 -0.25,-0.547 -0.075,-0.101 -0.133,-0.176 -0.172,-0.219 -0.211,-0.132 -0.821,-0.203 -1.828,-0.203 -2.075,0 -3.981,0.242 -5.719,0.719 l -2.156,0.609 -0.313,1.766 c -0.586,3.43 -0.875,5.875 -0.875,7.344 0,0.449 0.047,0.672 0.141,0.672 0.426,0 0.847,0.136 1.265,0.406 0.414,0.273 0.727,0.406 0.938,0.406 z"
         style="fill:#343434;fill-opacity:1;fill-rule:nonzero;stroke:none"
         id="path60"
         inkscape:connector-curvature="0" /><path
         d="m 391.207,191.816 c 0.383,0 0.625,0.118 0.719,0.344 0.101,0.219 0.156,0.563 0.156,1.031 0,1.7 -0.383,4.762 -1.141,9.188 -0.761,4.43 -1.324,6.883 -1.687,7.359 -0.492,0.344 -0.984,0.516 -1.484,0.516 -0.325,0 -0.59,-0.051 -0.797,-0.156 -0.2,-0.114 -0.325,-0.219 -0.375,-0.313 -0.055,-0.094 -0.078,-0.176 -0.078,-0.25 0,-0.531 0.312,-2.816 0.937,-6.859 0.633,-4.051 1.102,-6.738 1.406,-8.063 0.282,-1.289 0.676,-2.093 1.188,-2.406 0.426,-0.258 0.812,-0.391 1.156,-0.391 z m 0.031,-6.64 c 0,-0.539 0.211,-0.988 0.641,-1.344 0.426,-0.352 0.812,-0.531 1.156,-0.531 0.281,0 0.613,0.125 1,0.375 0.383,0.25 0.578,0.57 0.578,0.953 0,0.406 -0.183,0.875 -0.547,1.406 -0.367,0.531 -0.804,0.797 -1.312,0.797 -0.387,0 -0.734,-0.148 -1.047,-0.453 -0.312,-0.313 -0.469,-0.711 -0.469,-1.203 z"
         style="fill:#343434;fill-opacity:1;fill-rule:nonzero;stroke:none"
         id="path62"
         inkscape:connector-curvature="0" /><path
         d="m 410.984,192.332 c 0.77,0 1.368,0.422 1.797,1.266 0.438,0.843 0.657,1.703 0.657,2.578 0,1.719 -0.626,5.371 -1.876,10.953 -0.292,1.418 -0.589,2.375 -0.89,2.875 -0.305,0.5 -0.75,0.75 -1.344,0.75 -0.523,0 -0.781,-0.227 -0.781,-0.672 0,-0.082 0.379,-1.828 1.141,-5.234 0.757,-3.414 1.14,-6.004 1.14,-7.766 0,-0.383 -0.07,-0.707 -0.203,-0.969 -0.125,-0.269 -0.234,-0.441 -0.328,-0.515 -0.094,-0.082 -0.164,-0.125 -0.203,-0.125 -0.344,0 -1.203,0.718 -2.578,2.156 -1.368,1.437 -2.563,2.902 -3.594,4.391 -1.094,1.593 -1.84,2.757 -2.234,3.484 -0.399,0.719 -0.797,1.699 -1.204,2.937 -0.492,1.461 -0.836,2.407 -1.031,2.844 -0.187,0.438 -0.414,0.656 -0.672,0.656 -0.086,0 -0.179,-0.027 -0.281,-0.078 -0.105,-0.054 -0.23,-0.14 -0.375,-0.265 -0.137,-0.125 -0.25,-0.321 -0.344,-0.578 -0.093,-0.262 -0.14,-0.563 -0.14,-0.907 0,-0.445 0.062,-1.125 0.187,-2.031 0.125,-0.906 0.313,-2.258 0.563,-4.062 0.257,-1.801 0.488,-3.676 0.687,-5.625 0.281,-2.758 0.516,-4.438 0.703,-5.032 0.301,-0.883 0.739,-1.328 1.313,-1.328 0.281,0 0.476,0.094 0.594,0.281 0.124,0.18 0.187,0.528 0.187,1.047 0,0.512 -0.164,2.371 -0.484,5.578 l -0.36,3.657 0.578,-1.047 c 0.75,-1.375 1.36,-2.379 1.829,-3.016 0.476,-0.644 1.296,-1.566 2.453,-2.765 2.218,-2.29 3.914,-3.438 5.093,-3.438 z"
         style="fill:#343434;fill-opacity:1;fill-rule:nonzero;stroke:none"
         id="path64"
         inkscape:connector-curvature="0" /><path
         d="m 432.031,192.238 c 1.989,0 3.348,0.328 4.078,0.985 0.739,0.648 1.11,1.621 1.11,2.922 0,2.25 -0.844,4.824 -2.531,7.718 -1.688,2.887 -3.618,4.867 -5.782,5.938 -1.793,0.875 -3.57,1.312 -5.328,1.312 -1.199,0 -2.289,-0.199 -3.266,-0.593 -0.968,-0.395 -1.71,-0.969 -2.218,-1.719 -0.906,-1.281 -1.36,-2.477 -1.36,-3.594 0,-0.625 0.098,-1.395 0.297,-2.312 0.551,-2.657 2.145,-4.946 4.781,-6.875 2.145,-1.54 3.899,-2.555 5.266,-3.047 1.375,-0.489 3.024,-0.735 4.953,-0.735 z m 2.469,4.625 c 0,-0.406 -0.293,-0.773 -0.875,-1.109 -0.574,-0.332 -1.172,-0.5 -1.797,-0.5 -0.125,0 -0.305,0.016 -0.531,0.047 -0.219,0.031 -0.563,0.074 -1.031,0.125 -0.461,0.054 -0.946,0.101 -1.454,0.14 -0.73,0.075 -1.339,0.215 -1.828,0.422 -0.492,0.2 -1.132,0.586 -1.922,1.157 -1.636,1.179 -2.871,2.328 -3.703,3.453 -0.836,1.125 -1.25,2.359 -1.25,3.703 0,1.25 0.438,2.258 1.313,3.015 0.883,0.75 2.07,1.125 3.562,1.125 1.758,0 3.618,-1.113 5.578,-3.343 1.958,-2.239 3.239,-4.782 3.844,-7.625 0.063,-0.258 0.094,-0.461 0.094,-0.61 z"
         style="fill:#343434;fill-opacity:1;fill-rule:nonzero;stroke:none"
         id="path66"
         inkscape:connector-curvature="0" /></g></g></svg>