<?xml version="1.0" encoding="UTF-8" standalone="no"?>
<!-- Created with Inkscape (http://www.inkscape.org/) -->

<svg
   xmlns:dc="http://purl.org/dc/elements/1.1/"
   xmlns:cc="http://creativecommons.org/ns#"
   xmlns:rdf="http://www.w3.org/1999/02/22-rdf-syntax-ns#"
   xmlns:svg="http://www.w3.org/2000/svg"
   xmlns="http://www.w3.org/2000/svg"
   xmlns:sodipodi="http://sodipodi.sourceforge.net/DTD/sodipodi-0.dtd"
   xmlns:inkscape="http://www.inkscape.org/namespaces/inkscape"
   width="184mm"
   height="83mm"
   viewBox="0 0 184 83"
   version="1.1"
   id="svg8"
   inkscape:version="0.92.5 (2060ec1f9f, 2020-04-08)"
   sodipodi:docname="logoCasaEMMa.svg">
  <defs
     id="defs2" />
  <sodipodi:namedview
     id="base"
     pagecolor="#ffffff"
     bordercolor="#666666"
     borderopacity="1.0"
     inkscape:pageopacity="0.0"
     inkscape:pageshadow="2"
     inkscape:zoom="0.98994949"
     inkscape:cx="415.72049"
     inkscape:cy="189.60305"
     inkscape:document-units="mm"
     inkscape:current-layer="text840"
     showgrid="false"
     inkscape:window-width="2488"
     inkscape:window-height="1563"
     inkscape:window-x="1992"
     inkscape:window-y="0"
     inkscape:window-maximized="1" />
  <metadata
     id="metadata5">
    <rdf:RDF>
      <cc:Work
         rdf:about="">
        <dc:format>image/svg+xml</dc:format>
        <dc:type
           rdf:resource="http://purl.org/dc/dcmitype/StillImage" />
        <dc:title />
      </cc:Work>
    </rdf:RDF>
  </metadata>
  <g
     inkscape:label="Layer 1"
     inkscape:groupmode="layer"
     id="layer1"
     transform="translate(0,-214)">
    <g
       id="g833"
       transform="translate(-2.1673896,114.98317)">
      <g
         id="g860"
         transform="translate(-3.1271368e-8,-4.0346417)">
        <rect
           style="opacity:1;vector-effect:none;fill:#fffeec;fill-opacity:1;fill-rule:nonzero;stroke:#343434;stroke-width:1.86500001;stroke-linecap:round;stroke-linejoin:miter;stroke-miterlimit:4;stroke-dasharray:none;stroke-dashoffset:0;stroke-opacity:1"
           id="rect906"
           width="181.476"
           height="80.241096"
           x="3.4293907"
           y="104.43092"
           ry="13.229167" />
        <g
           id="g888"
           transform="translate(-3.4915677,-4.7624998)">
          <path
             style="color:#000000;font-style:normal;font-variant:normal;font-weight:normal;font-stretch:normal;font-size:medium;line-height:normal;font-family:sans-serif;font-variant-ligatures:normal;font-variant-position:normal;font-variant-caps:normal;font-variant-numeric:normal;font-variant-alternates:normal;font-feature-settings:normal;text-indent:0;text-align:start;text-decoration:none;text-decoration-line:none;text-decoration-style:solid;text-decoration-color:#000000;letter-spacing:normal;word-spacing:normal;text-transform:none;writing-mode:lr-tb;direction:ltr;text-orientation:mixed;dominant-baseline:auto;baseline-shift:baseline;text-anchor:start;white-space:normal;shape-padding:0;clip-rule:nonzero;display:inline;overflow:visible;visibility:visible;opacity:1;isolation:auto;mix-blend-mode:normal;color-interpolation:sRGB;color-interpolation-filters:linearRGB;solid-color:#000000;solid-opacity:1;vector-effect:none;fill:#5782bb;fill-opacity:1;fill-rule:nonzero;stroke:none;stroke-width:3.06500006;stroke-linecap:round;stroke-linejoin:miter;stroke-miterlimit:4;stroke-dasharray:none;stroke-dashoffset:0;stroke-opacity:1;color-rendering:auto;image-rendering:auto;shape-rendering:auto;text-rendering:auto;enable-background:accumulate"
             d="m 82.476422,116.77553 -16.327984,16.32799 c -1.507714,1.44499 0.724338,3.67503 2.167968,2.16601 l 18.523438,-18.52344 18.476566,18.47657 c 1.44364,1.50864 3.67531,-0.72102 2.16797,-2.16602 L 91.213491,116.78576 c -4.337218,-5.00576 -4.351185,-4.39611 -8.737069,-0.0102 z"
             id="path830"
             inkscape:connector-curvature="0"
             sodipodi:nodetypes="cccccccc" />
          <path
             style="color:#000000;font-style:normal;font-variant:normal;font-weight:normal;font-stretch:normal;font-size:medium;line-height:normal;font-family:sans-serif;font-variant-ligatures:normal;font-variant-position:normal;font-variant-caps:normal;font-variant-numeric:normal;font-variant-alternates:normal;font-feature-settings:normal;text-indent:0;text-align:start;text-decoration:none;text-decoration-line:none;text-decoration-style:solid;text-decoration-color:#000000;letter-spacing:normal;word-spacing:normal;text-transform:none;writing-mode:lr-tb;direction:ltr;text-orientation:mixed;dominant-baseline:auto;baseline-shift:baseline;text-anchor:start;white-space:normal;shape-padding:0;clip-rule:nonzero;display:inline;overflow:visible;visibility:visible;opacity:1;isolation:auto;mix-blend-mode:normal;color-interpolation:sRGB;color-interpolation-filters:linearRGB;solid-color:#000000;solid-opacity:1;vector-effect:none;fill:#5782bb;fill-opacity:1;fill-rule:nonzero;stroke:none;stroke-width:3.06500006;stroke-linecap:round;stroke-linejoin:miter;stroke-miterlimit:4;stroke-dasharray:none;stroke-dashoffset:0;stroke-opacity:1;color-rendering:auto;image-rendering:auto;shape-rendering:auto;text-rendering:auto;enable-background:accumulate"
             d="m 88.78125,118.64844 16.98437,17.02539 21.20408,-0.043 c 4.84071,0 2.4054,-2.30519 -1.28262,-5.99398 l -10.89414,-10.98839 z"
             id="path836"
             inkscape:connector-curvature="0"
             sodipodi:nodetypes="cccccc" />
          <path
             style="color:#000000;font-style:normal;font-variant:normal;font-weight:normal;font-stretch:normal;font-size:medium;line-height:normal;font-family:sans-serif;font-variant-ligatures:normal;font-variant-position:normal;font-variant-caps:normal;font-variant-numeric:normal;font-variant-alternates:normal;font-feature-settings:normal;text-indent:0;text-align:start;text-decoration:none;text-decoration-line:none;text-decoration-style:solid;text-decoration-color:#000000;letter-spacing:normal;word-spacing:normal;text-transform:none;writing-mode:lr-tb;direction:ltr;text-orientation:mixed;dominant-baseline:auto;baseline-shift:baseline;text-anchor:start;white-space:normal;shape-padding:0;clip-rule:nonzero;display:inline;overflow:visible;visibility:visible;opacity:1;isolation:auto;mix-blend-mode:normal;color-interpolation:sRGB;color-interpolation-filters:linearRGB;solid-color:#000000;solid-opacity:1;vector-effect:none;fill:#5782bb;fill-opacity:1;fill-rule:nonzero;stroke:none;stroke-width:1.86500001;stroke-linecap:butt;stroke-linejoin:miter;stroke-miterlimit:4;stroke-dasharray:none;stroke-dashoffset:0;stroke-opacity:1;color-rendering:auto;image-rendering:auto;shape-rendering:auto;text-rendering:auto;enable-background:accumulate"
             d="m 107.04883,113.30469 v 7.16797 h 1.60547 v 0.0234 h 1.86523 v -7.1914 z"
             id="path838"
             inkscape:connector-curvature="0" />
          <path
             style="opacity:1;vector-effect:none;fill:#5782bb;fill-opacity:1;fill-rule:nonzero;stroke:none;stroke-width:2.34936619;stroke-linecap:round;stroke-linejoin:miter;stroke-miterlimit:4;stroke-dasharray:none;stroke-dashoffset:0;stroke-opacity:1"
             d="m 82.593704,127.1977 h 3.638021 v 3.42971 h -3.638021 z"
             id="rect846"
             inkscape:connector-curvature="0" />
          <path
             style="opacity:1;vector-effect:none;fill:#5782bb;fill-opacity:1;fill-rule:nonzero;stroke:none;stroke-width:2.34936619;stroke-linecap:round;stroke-linejoin:miter;stroke-miterlimit:4;stroke-dasharray:none;stroke-dashoffset:0;stroke-opacity:1"
             d="m 87.257164,127.1977 h 3.638021 v 3.42971 h -3.638021 z"
             id="rect846-3"
             inkscape:connector-curvature="0" />
          <path
             style="opacity:1;vector-effect:none;fill:#5782bb;fill-opacity:1;fill-rule:nonzero;stroke:none;stroke-width:2.34936619;stroke-linecap:round;stroke-linejoin:miter;stroke-miterlimit:4;stroke-dasharray:none;stroke-dashoffset:0;stroke-opacity:1"
             d="m 82.582985,131.85767 h 3.638021 v 3.4297 h -3.638021 z"
             id="rect846-6"
             inkscape:connector-curvature="0" />
          <path
             style="opacity:1;vector-effect:none;fill:#5782bb;fill-opacity:1;fill-rule:nonzero;stroke:none;stroke-width:2.34936619;stroke-linecap:round;stroke-linejoin:miter;stroke-miterlimit:4;stroke-dasharray:none;stroke-dashoffset:0;stroke-opacity:1"
             d="m 87.257164,131.85767 h 3.638021 v 3.4297 h -3.638021 z"
             id="rect846-3-7"
             inkscape:connector-curvature="0" />
        </g>
        <g
           transform="translate(1.247425e-7,-10.054166)"
           id="g845">
          <path
             inkscape:connector-curvature="0"
             id="path826"
             d="m 138.62125,174.0463 c -1.18417,-0.51589 -2.448,-1.89688 -2.75824,-3.01395 -0.16479,-0.59331 -0.27082,-4.85158 -0.26819,-10.77083 0.004,-8.95352 0.0461,-9.87997 0.49278,-10.84792 0.93834,-2.0331 2.24922,-2.77813 4.88815,-2.77813 3.04938,0 4.93053,1.94987 4.93053,5.11062 v 1.50397 h -1.83826 -1.83825 l -0.08,-1.38906 -0.08,-1.38907 -1.01065,-0.0832 c -1.83145,-0.1508 -1.76747,-0.517 -1.76747,10.11687 0,7.09209 0.0823,9.65423 0.3175,9.88948 0.41012,0.41013 1.86529,0.41013 2.27541,0 0.22494,-0.22494 0.3175,-1.8015 0.3175,-5.40799 v -5.09049 l -0.99218,-0.0821 -0.99219,-0.0821 -0.0782,-1.78594 -0.0782,-1.78594 h 2.9225 2.92251 v 7.25882 c 0,7.52229 -0.0857,8.22626 -1.1421,9.37869 -1.3257,1.44624 -4.30085,2.05082 -6.14293,1.24832 z M 12.027115,160.5261 v -13.62604 h 4.365625 4.365625 v 1.85208 1.85208 h -2.645834 -2.645833 v 2.77813 2.77812 h 2.645833 2.645834 v 1.85209 1.85208 h -2.645834 -2.645833 v 5.29167 5.29166 h 2.645833 2.645834 v 1.85209 1.85208 H 16.39274 12.027115 Z m 12.7,0 v -13.62604 h 3.120991 3.120991 l 1.001255,6.81302 c 0.889888,6.05522 1.404183,8.79287 1.467124,7.80963 0.01148,-0.17947 0.497139,-3.44063 1.079222,-7.24702 0.582084,-3.80639 1.058334,-7.02307 1.058334,-7.14817 0,-0.12511 1.42875,-0.22746 3.175,-0.22746 h 3.175 v 13.62604 13.62604 H 40.20524 38.485449 V 163.657 c 0,-5.77232 -0.05309,-10.44205 -0.117976,-10.37716 -0.09796,0.098 -3.321608,20.19442 -3.321608,20.70716 0,0.0908 -0.764447,0.16514 -1.698768,0.16514 -1.640431,0 -1.703924,-0.025 -1.848855,-0.7276 -0.08255,-0.40019 -0.809794,-5.01386 -1.616105,-10.25261 -0.806312,-5.23875 -1.51274,-9.64406 -1.569842,-9.78958 -0.0571,-0.14552 -0.11322,4.46815 -0.124709,10.2526 l -0.02089,10.51719 h -1.719791 -1.719792 z m 21.166667,0 v -13.62604 h 3.120991 3.12099 l 1.001255,6.81302 c 0.889889,6.05522 1.404184,8.79287 1.467125,7.80963 0.01148,-0.17947 0.497139,-3.44063 1.079223,-7.24702 0.582083,-3.80639 1.058333,-7.02307 1.058333,-7.14817 0,-0.12511 1.42875,-0.22746 3.175,-0.22746 h 3.175 v 13.62604 13.62604 H 61.371907 59.652116 V 163.657 c 0,-5.77232 -0.05309,-10.44205 -0.117975,-10.37716 -0.09796,0.098 -3.321609,20.19442 -3.321609,20.70716 0,0.0908 -0.764447,0.16514 -1.698768,0.16514 -1.639959,0 -1.704033,-0.0252 -1.8508,-0.7276 -0.08362,-0.40019 -0.810823,-5.01386 -1.616019,-10.25261 -0.805196,-5.23875 -1.51075,-9.64406 -1.567897,-9.78958 -0.05715,-0.14552 -0.113306,4.46815 -0.124794,10.2526 l -0.02089,10.51719 h -1.71979 -1.719792 z m 20.372917,13.21638 c 0,-0.22532 0.892969,-6.31145 1.984375,-13.52473 1.091406,-7.21328 1.984375,-13.16512 1.984375,-13.2263 0,-0.0612 1.101328,-0.077 2.447396,-0.0352 l 2.447396,0.0761 2.301071,13.09687 c 1.265586,7.20329 2.307383,13.30524 2.315104,13.5599 0.01196,0.39479 -0.238665,0.46302 -1.700718,0.46302 -2.007825,0 -1.728983,0.56703 -2.535878,-5.15671 -0.307509,-2.18135 -0.61504,-4.05658 -0.683398,-4.16719 -0.06836,-0.1106 -0.940231,-0.2011 -1.937498,-0.2011 h -1.813211 l -0.152366,0.99219 c -0.0838,0.5457 -0.335216,2.42094 -0.558704,4.16719 -0.61176,4.78007 -0.385512,4.36562 -2.383193,4.36562 -1.371626,0 -1.714751,-0.082 -1.714751,-0.40966 z m 7.921043,-13.41482 c -0.02854,-1.49126 -1.219938,-8.55149 -1.372918,-8.13594 -0.08036,0.21829 -0.342444,1.88516 -0.582419,3.70417 -0.239974,1.81901 -0.505023,3.75378 -0.588994,4.29948 l -0.152678,0.99219 h 1.356733 1.356733 z M 93.2542,160.5261 v -13.62604 h 1.719791 1.719793 v 11.77396 11.77395 h 2.64583 2.645836 v 1.85209 1.85208 H 97.619824 93.2542 Z m 23.8125,13.52208 c 0,-0.0572 -0.83344,-6.05729 -1.85209,-13.33358 -1.01864,-7.2763 -1.85208,-13.36123 -1.85208,-13.52208 0,-0.18325 0.63557,-0.29246 1.70196,-0.29246 1.39458,0 1.72564,0.0836 1.83308,0.46302 0.0721,0.25466 0.5241,3.29918 1.00441,6.7656 0.49674,3.58499 0.95309,6.09486 1.05837,5.82083 0.10179,-0.26496 0.50113,-3.04159 0.88744,-6.17029 0.3863,-3.12869 0.76493,-5.95643 0.8414,-6.28385 0.1263,-0.54077 0.29399,-0.59531 1.83015,-0.59531 1.53886,0 1.69111,0.0498 1.69111,0.55285 0,0.63718 -3.11148,24.87605 -3.33391,25.97163 -0.14403,0.70942 -0.19346,0.7276 -1.97878,0.7276 -1.00709,0 -1.83106,-0.0468 -1.83106,-0.10396 z m 32.80833,-13.52208 v -13.62604 h 2.87734 2.87735 l 0.14019,0.7276 c 0.0771,0.40018 0.71707,4.94657 1.42214,10.10308 l 1.28194,9.37548 0.16352,-7.12652 c 0.0899,-3.91958 0.17923,-8.46597 0.19844,-10.10308 l 0.0349,-2.97656 h 1.7198 1.71979 v 13.62604 13.62604 h -2.88309 -2.88309 l -0.30998,-2.18281 c -0.17049,-1.20055 -0.82602,-5.63563 -1.45674,-9.85573 l -1.14676,-7.67292 -0.0258,9.85573 -0.0258,9.85573 h -1.85209 -1.85208 z m 19.44688,13.12597 c -1.28085,-0.59115 -2.08693,-1.42876 -2.63321,-2.73619 -0.34413,-0.82362 -0.40857,-2.49144 -0.40369,-10.44743 0.005,-8.61274 0.0496,-9.56387 0.49151,-10.53663 1.73633,-3.82251 7.22505,-3.97736 9.02717,-0.25468 0.52925,1.09327 0.54545,1.47622 0.47271,11.1697 l -0.0753,10.03761 -0.66146,0.9769 c -0.78518,1.15963 -2.8784,2.29326 -4.21913,2.28498 -0.51713,-0.003 -1.41649,-0.22562 -1.99857,-0.49426 z m 3.15999,-3.79214 c 0.35285,-0.50376 0.41188,-1.85631 0.41188,-9.43802 0,-7.8637 -0.0488,-8.9039 -0.43788,-9.33383 -0.49727,-0.54947 -1.68057,-0.64082 -2.15504,-0.16636 -0.23488,0.23489 -0.3175,2.73403 -0.3175,9.60438 0,6.87035 0.0826,9.36949 0.3175,9.60437 0.52627,0.52627 1.72728,0.3773 2.18104,-0.27054 z m -66.5277,-9.46612 v -13.49375 h 1.71979 1.71979 v 13.49375 13.49375 h -1.71979 -1.71979 z m 22.225,0 v -13.49375 h 1.85208 1.85208 v 13.49375 13.49375 h -1.85208 -1.85208 z"
             style="fill:#343434;fill-opacity:1;stroke-width:0.26458332" />
          <g
             aria-label="Mansarda in stile alpino"
             style="font-style:normal;font-weight:normal;font-size:11.32856655px;line-height:1.25;font-family:sans-serif;letter-spacing:0px;word-spacing:0px;fill:#343434;fill-opacity:1;stroke:none;stroke-width:0.28321418"
             id="text840">
            <path
               d="m 25.035182,187.50229 q -0.249229,0 -0.430486,-0.1586 -0.181257,-0.1586 -0.181257,-0.41916 0,-0.45314 0.509785,-3.40989 0.521115,-2.96809 0.577757,-3.46655 -0.135942,0.1586 -0.543771,0.75902 -0.3965,0.60041 -1.348099,1.76725 -0.351186,0.43049 -0.985586,0.80433 -0.623071,0.36252 -1.064885,0.36252 -0.169928,0 -0.385171,-0.3172 -0.215243,-0.3172 -0.373843,-0.73636 l -0.203914,-0.52111 -0.509785,2.379 q -0.328529,1.55201 -0.5551,2.32235 -0.226572,0.77034 -0.419157,1.0309 -0.192586,0.27189 -0.453143,0.27189 -0.351185,0 -0.351185,-0.57776 0,-0.81566 0.996913,-5.48303 0.441815,-2.05047 0.623072,-2.76417 0.181257,-0.72503 0.317199,-0.86097 0.271886,-0.27188 0.566429,-0.27188 0.249228,0 0.351185,0.32852 0.113286,0.3172 0.181257,1.14419 0.113286,1.21216 0.328529,2.08446 0.226571,0.8723 0.385171,1.01957 0.2379,-0.13595 1.008243,-1.07622 0.781671,-0.94027 2.016484,-2.66221 0.226572,-0.32853 0.577757,-0.5551 0.351186,-0.22657 0.6344,-0.22657 0.498457,0 0.498457,0.78167 0,0.61174 -0.600414,3.5685 -0.589086,2.95675 -0.589086,3.77241 0,0.11329 0.01133,0.2379 0.01133,0.12462 0.01133,0.1586 0,0.27189 -0.135943,0.49846 -0.135943,0.21524 -0.464471,0.21524 z"
               style="font-style:oblique;font-variant:normal;font-weight:bold;font-stretch:normal;font-family:Purisa;-inkscape-font-specification:'Purisa Bold Oblique';fill:#343434;fill-opacity:1;stroke-width:0.28321418"
               id="path827" />
            <path
               d="m 28.411086,186.23349 q 0,0.13594 0.203915,0.22657 0.215242,0.0906 0.385171,0.0906 0.249228,0 0.645728,-0.12461 0.407829,-0.12462 0.691043,-0.2379 l 0.271885,-0.12462 q 0.03399,-0.14727 0.487129,-0.4758 0.464471,-0.32853 0.464471,-0.3965 0,-0.0566 -0.06797,-0.13594 -0.05664,-0.0793 -0.328529,-0.16993 -0.260557,-0.0906 -0.702371,-0.0906 -0.962928,0 -1.506699,0.48713 -0.543772,0.48713 -0.543772,0.9516 z m 4.803313,-3.71577 q 0,0.30587 -0.3172,1.9032 -0.3172,1.59733 -0.3965,2.36767 -0.0793,0.26056 -0.294543,0.45314 -0.215242,0.18126 -0.328528,0.18126 -0.351186,0 -0.351186,-0.69104 0,-0.0793 0.03399,-0.5551 -0.453143,0.41916 -1.246142,0.81566 -0.793,0.38517 -1.280128,0.38517 -0.3172,0 -0.747686,-0.10196 -0.419157,-0.10196 -0.589085,-0.24923 -0.169929,-0.1586 -0.169929,-0.58908 0,-0.81566 0.419157,-1.2688 0.419157,-0.45315 1.280128,-0.83832 0.906286,-0.41915 1.642642,-0.41915 0.3172,0 0.509786,0.0793 0.192586,0.0793 0.283214,0.19258 0.101957,0.10196 0.113286,0.10196 0.169928,0.034 0.283214,0.14727 0.215243,-0.99691 0.215243,-1.60866 0,-0.80433 -0.441814,-0.80433 -0.543772,0 -1.223486,0.21525 -0.668385,0.21524 -1.223485,0.44181 -0.543771,0.21524 -0.770342,0.21524 -0.2379,0 -0.2379,-0.20391 0,-0.0113 0,-0.0227 0.01133,-0.0226 0.01133,-0.034 0.04532,-0.19259 0.147272,-0.32853 0.101957,-0.14727 0.339857,-0.26056 0.249228,-0.12461 0.419157,-0.19258 0.181257,-0.068 0.645728,-0.21525 0.464471,-0.14727 0.736357,-0.24922 0.679714,-0.2379 1.246142,-0.2379 0.917614,0 1.1895,0.86097 0.101957,0.28321 0.101957,0.50978 z"
               style="font-style:oblique;font-variant:normal;font-weight:bold;font-stretch:normal;font-family:Purisa;-inkscape-font-specification:'Purisa Bold Oblique';fill:#343434;fill-opacity:1;stroke-width:0.28321418"
               id="path829" />
            <path
               d="m 39.773636,180.95438 q 0.407829,0 0.6344,0.45314 0.226571,0.44182 0.226571,0.90629 0,0.90628 -0.657057,3.86304 -0.1586,0.74768 -0.3172,1.01957 -0.158599,0.26056 -0.475799,0.26056 -0.271886,0 -0.271886,-0.2379 0,-0.0453 0.3965,-1.84656 0.407828,-1.81257 0.407828,-2.74151 0,-0.20392 -0.06797,-0.33986 -0.06797,-0.14727 -0.124614,-0.18126 -0.04532,-0.0453 -0.06797,-0.0453 -0.181257,0 -0.906285,0.75901 -0.725028,0.75902 -1.268799,1.55202 -0.577757,0.83831 -0.793,1.22348 -0.203914,0.38517 -0.419157,1.04223 -0.260557,0.77034 -0.362514,0.99691 -0.101957,0.2379 -0.2379,0.2379 -0.04531,0 -0.101957,-0.034 -0.05664,-0.0227 -0.135943,-0.0906 -0.06797,-0.068 -0.124614,-0.20391 -0.04532,-0.13595 -0.04532,-0.3172 0,-0.2379 0.06797,-0.7137 0.06797,-0.48713 0.203914,-1.43873 0.135943,-0.9516 0.2379,-1.9825 0.147271,-1.46139 0.249228,-1.77859 0.1586,-0.46447 0.464472,-0.46447 0.147271,0 0.203914,0.10196 0.06797,0.0906 0.06797,0.36251 0,0.27189 -0.169928,1.97117 l -0.124614,1.29146 0.203914,-0.37384 q 0.3965,-0.72503 0.645728,-1.06489 0.249228,-0.33985 0.860971,-0.97425 1.178171,-1.21216 1.801242,-1.21216 z"
               style="font-style:oblique;font-variant:normal;font-weight:bold;font-stretch:normal;font-family:Purisa;-inkscape-font-specification:'Purisa Bold Oblique';fill:#343434;fill-opacity:1;stroke-width:0.28321418"
               id="path831" />
            <path
               d="m 41.790116,186.79992 q 0,-0.29454 0.1586,-0.4758 0.1586,-0.19259 0.3172,-0.19259 0.283214,0 0.419157,0.3965 0.0793,0.2379 0.441814,0.45315 0.373843,0.20391 0.736357,0.20391 0.464471,0 0.974257,-0.54377 0.509785,-0.54377 0.509785,-0.77034 0,-0.38517 -0.487128,-0.54377 -0.362514,-0.11329 -0.781671,-0.28322 -0.407829,-0.18125 -0.611743,-0.22657 -0.294543,-0.068 -0.736357,-0.41916 -0.441814,-0.36251 -0.441814,-0.78167 0,-0.48713 0.838314,-1.24614 0.849643,-0.77034 1.857885,-0.97426 l 1.155514,-0.10195 q 0.305871,0 0.441814,0.0793 0.147271,0.068 0.328528,0.33985 0.249229,0.36252 0.249229,0.60042 0,0.12461 -0.09063,0.22657 -0.09063,0.10196 -0.260557,0.10196 -0.181257,0 -0.294543,-0.0793 -0.101957,-0.0906 -0.1586,-0.18126 -0.04531,-0.10196 -0.192585,-0.18126 -0.135943,-0.0906 -0.373843,-0.0906 -0.498457,0 -1.121528,0.29455 -0.623071,0.28321 -1.019571,0.61174 -0.385171,0.3172 -0.385171,0.45314 0,0.14727 0.283214,0.36252 0.294543,0.20391 0.860971,0.38517 0.974257,0.3172 1.370757,0.60041 0.407828,0.28321 0.407828,0.73636 0,0.24923 -0.135943,0.64573 -0.135943,0.38517 -0.294543,0.62307 -0.237899,0.37384 -0.792999,0.77034 -0.543771,0.40783 -1.0309,0.40783 -0.351185,0 -0.894957,-0.10196 -0.543771,-0.0906 -0.815656,-0.22657 -0.181257,-0.10196 -0.305872,-0.35119 -0.124614,-0.24922 -0.124614,-0.52111 z"
               style="font-style:oblique;font-variant:normal;font-weight:bold;font-stretch:normal;font-family:Purisa;-inkscape-font-specification:'Purisa Bold Oblique';fill:#343434;fill-opacity:1;stroke-width:0.28321418"
               id="path833" />
            <path
               d="m 49.063041,186.23349 q 0,0.13594 0.203914,0.22657 0.215243,0.0906 0.385172,0.0906 0.249228,0 0.645728,-0.12461 0.407828,-0.12462 0.691042,-0.2379 l 0.271886,-0.12462 q 0.03399,-0.14727 0.487128,-0.4758 0.464472,-0.32853 0.464472,-0.3965 0,-0.0566 -0.06797,-0.13594 -0.05664,-0.0793 -0.328528,-0.16993 -0.260557,-0.0906 -0.702371,-0.0906 -0.962928,0 -1.5067,0.48713 -0.543771,0.48713 -0.543771,0.9516 z m 4.803312,-3.71577 q 0,0.30587 -0.3172,1.9032 -0.317199,1.59733 -0.396499,2.36767 -0.0793,0.26056 -0.294543,0.45314 -0.215243,0.18126 -0.328528,0.18126 -0.351186,0 -0.351186,-0.69104 0,-0.0793 0.03399,-0.5551 -0.453143,0.41916 -1.246143,0.81566 -0.792999,0.38517 -1.280128,0.38517 -0.3172,0 -0.747685,-0.10196 -0.419157,-0.10196 -0.589086,-0.24923 -0.169928,-0.1586 -0.169928,-0.58908 0,-0.81566 0.419157,-1.2688 0.419157,-0.45315 1.280128,-0.83832 0.906285,-0.41915 1.642642,-0.41915 0.3172,0 0.509786,0.0793 0.192585,0.0793 0.283214,0.19258 0.101957,0.10196 0.113285,0.10196 0.169929,0.034 0.283215,0.14727 0.215242,-0.99691 0.215242,-1.60866 0,-0.80433 -0.441814,-0.80433 -0.543771,0 -1.223485,0.21525 -0.668385,0.21524 -1.223485,0.44181 -0.543771,0.21524 -0.770343,0.21524 -0.2379,0 -0.2379,-0.20391 0,-0.0113 0,-0.0227 0.01133,-0.0226 0.01133,-0.034 0.04531,-0.19259 0.147271,-0.32853 0.101957,-0.14727 0.339857,-0.26056 0.249229,-0.12461 0.419157,-0.19258 0.181257,-0.068 0.645729,-0.21525 0.464471,-0.14727 0.736356,-0.24922 0.679714,-0.2379 1.246143,-0.2379 0.917614,0 1.189499,0.86097 0.101957,0.28321 0.101957,0.50978 z"
               style="font-style:oblique;font-variant:normal;font-weight:bold;font-stretch:normal;font-family:Purisa;-inkscape-font-specification:'Purisa Bold Oblique';fill:#343434;fill-opacity:1;stroke-width:0.28321418"
               id="path835" />
            <path
               d="m 56.981707,181.54347 q 0,0.0113 -0.02266,0.13594 -0.01133,0.11328 -0.04531,0.3172 -0.02266,0.20391 -0.05664,0.46447 -0.02266,0.26056 -0.04531,0.62307 -0.01133,0.36251 -0.01133,0.73636 v 0.22657 q 0.147271,-0.14727 0.351185,-0.38517 0.566428,-0.70237 1.461385,-1.25747 0.894957,-0.56643 1.450057,-0.56643 0.283214,0 0.407828,0.13594 0.124614,0.13594 0.124614,0.27189 0,0.24922 -0.600414,0.45314 -0.747685,0.26056 -1.778585,1.28013 -1.019571,1.01957 -1.382085,1.91452 -0.453142,1.13286 -0.691042,1.51803 -0.226572,0.38517 -0.509786,0.38517 -0.3965,0 -0.3965,-0.48712 0,-0.11329 0.0793,-0.8723 0.09063,-0.77035 0.271886,-1.99383 0.181257,-1.22349 0.373843,-2.15243 0.0793,-0.37384 0.169928,-0.57776 0.101957,-0.21524 0.305871,-0.37384 0.135943,-0.10196 0.271886,-0.10196 0.271886,0 0.271886,0.30588 z"
               style="font-style:oblique;font-variant:normal;font-weight:bold;font-stretch:normal;font-family:Purisa;-inkscape-font-specification:'Purisa Bold Oblique';fill:#343434;fill-opacity:1;stroke-width:0.28321418"
               id="path837" />
            <path
               d="m 66.180492,182.69898 q -0.566428,-0.38517 -0.815656,-0.38517 -0.1586,0 -1.121529,0.66838 -0.951599,0.66839 -1.200828,1.01957 -0.124614,0.19259 -0.260557,0.75902 -0.124614,0.56643 -0.124614,0.89495 0,0.11329 0.02266,0.20392 0.06797,0.1586 0.464471,0.36251 0.3965,0.20392 0.793,0.20392 0.759014,0 2.186413,-1.01957 1.155514,-0.81566 1.155514,-1.06489 0,-0.3172 -0.339857,-0.82698 -0.339857,-0.52112 -0.759014,-0.81566 z m -2.571584,4.78065 q -0.283214,0 -0.611743,-0.0793 -0.3172,-0.0793 -0.679714,-0.24922 -0.351185,-0.18126 -0.589085,-0.54378 -0.226572,-0.37384 -0.226572,-0.88362 0,-0.2379 0.0793,-0.65706 0.181257,-0.84964 0.7137,-1.60866 0.532443,-0.75901 1.155514,-1.22348 0.634399,-0.46447 1.234814,-0.72503 0.600414,-0.27189 0.996913,-0.27189 0.351186,0 1.042228,0.40783 0.691043,0.40783 0.917614,0.78167 0.124615,0.21525 0.203915,0.29455 0.135942,-0.38518 0.736356,-3.08137 0.611743,-2.6962 0.781672,-2.96809 0.260557,-0.44181 0.668385,-0.44181 h 0.453143 l -1.778585,7.76007 q -0.373843,1.75592 -0.453143,2.49228 -0.06797,0.73636 -0.09063,0.84964 -0.03399,0.13595 -0.101957,0.28322 -0.06797,0.14727 -0.2379,0.29454 -0.158599,0.1586 -0.362514,0.1586 -0.441814,0 -0.441814,-0.70237 0,-0.27189 0.0793,-0.83832 0.0793,-0.57775 0.0793,-0.75901 v -0.0566 q -0.01133,0.0113 -0.283214,0.24923 -0.271886,0.2379 -0.589085,0.46447 -0.305872,0.21524 -0.736357,0.4758 -0.419157,0.26055 -0.940271,0.41915 -0.521114,0.1586 -1.019571,0.1586 z"
               style="font-style:oblique;font-variant:normal;font-weight:bold;font-stretch:normal;font-family:Purisa;-inkscape-font-specification:'Purisa Bold Oblique';fill:#343434;fill-opacity:1;stroke-width:0.28321418"
               id="path839" />
            <path
               d="m 71.1877,186.23349 q 0,0.13594 0.203914,0.22657 0.215243,0.0906 0.385171,0.0906 0.249229,0 0.645728,-0.12461 0.407829,-0.12462 0.691043,-0.2379 l 0.271886,-0.12462 q 0.03399,-0.14727 0.487128,-0.4758 0.464471,-0.32853 0.464471,-0.3965 0,-0.0566 -0.06797,-0.13594 -0.05664,-0.0793 -0.328529,-0.16993 -0.260557,-0.0906 -0.702371,-0.0906 -0.962928,0 -1.506699,0.48713 -0.543771,0.48713 -0.543771,0.9516 z m 4.803312,-3.71577 q 0,0.30587 -0.3172,1.9032 -0.3172,1.59733 -0.3965,2.36767 -0.0793,0.26056 -0.294542,0.45314 -0.215243,0.18126 -0.328529,0.18126 -0.351185,0 -0.351185,-0.69104 0,-0.0793 0.03399,-0.5551 -0.453142,0.41916 -1.246142,0.81566 -0.793,0.38517 -1.280128,0.38517 -0.3172,0 -0.747686,-0.10196 -0.419156,-0.10196 -0.589085,-0.24923 -0.169928,-0.1586 -0.169928,-0.58908 0,-0.81566 0.419156,-1.2688 0.419157,-0.45315 1.280129,-0.83832 0.906285,-0.41915 1.642642,-0.41915 0.3172,0 0.509785,0.0793 0.192586,0.0793 0.283214,0.19258 0.101957,0.10196 0.113286,0.10196 0.169928,0.034 0.283214,0.14727 0.215243,-0.99691 0.215243,-1.60866 0,-0.80433 -0.441814,-0.80433 -0.543771,0 -1.223485,0.21525 -0.668386,0.21524 -1.223486,0.44181 -0.543771,0.21524 -0.770342,0.21524 -0.2379,0 -0.2379,-0.20391 0,-0.0113 0,-0.0227 0.01133,-0.0226 0.01133,-0.034 0.04531,-0.19259 0.147271,-0.32853 0.101957,-0.14727 0.339857,-0.26056 0.249228,-0.12461 0.419157,-0.19258 0.181257,-0.068 0.645728,-0.21525 0.464471,-0.14727 0.736357,-0.24922 0.679714,-0.2379 1.246142,-0.2379 0.917614,0 1.1895,0.86097 0.101957,0.28321 0.101957,0.50978 z"
               style="font-style:oblique;font-variant:normal;font-weight:bold;font-stretch:normal;font-family:Purisa;-inkscape-font-specification:'Purisa Bold Oblique';fill:#343434;fill-opacity:1;stroke-width:0.28321418"
               id="path841" />
            <path
               d="m 86.333985,180.77312 q 0.203914,0 0.249228,0.12462 0.05664,0.11328 0.05664,0.36251 0,0.89496 -0.407829,3.23997 -0.396499,2.34501 -0.589085,2.59424 -0.260557,0.18126 -0.521114,0.18126 -0.169929,0 -0.283214,-0.0566 -0.101957,-0.0566 -0.135943,-0.10196 -0.02266,-0.0566 -0.02266,-0.0906 0,-0.28321 0.328528,-2.42431 0.339857,-2.1411 0.498457,-2.84347 0.147272,-0.67972 0.419157,-0.84964 0.226571,-0.13595 0.407829,-0.13595 z m 0.01133,-2.34501 q 0,-0.28321 0.226571,-0.46447 0.226572,-0.19259 0.407829,-0.19259 0.147271,0 0.351185,0.13595 0.203915,0.12461 0.203915,0.32852 0,0.21525 -0.192586,0.49846 -0.192586,0.28321 -0.464471,0.28321 -0.203914,0 -0.373843,-0.1586 -0.1586,-0.16992 -0.1586,-0.43048 z"
               style="font-style:oblique;font-variant:normal;font-weight:bold;font-stretch:normal;font-family:Purisa;-inkscape-font-specification:'Purisa Bold Oblique';fill:#343434;fill-opacity:1;stroke-width:0.28321418"
               id="path843" />
            <path
               d="m 93.312374,180.95438 q 0.407829,0 0.6344,0.45314 0.226571,0.44182 0.226571,0.90629 0,0.90628 -0.657056,3.86304 -0.1586,0.74768 -0.3172,1.01957 -0.1586,0.26056 -0.4758,0.26056 -0.271886,0 -0.271886,-0.2379 0,-0.0453 0.3965,-1.84656 0.407829,-1.81257 0.407829,-2.74151 0,-0.20392 -0.06797,-0.33986 -0.06797,-0.14727 -0.124614,-0.18126 -0.04531,-0.0453 -0.06797,-0.0453 -0.181258,0 -0.906286,0.75901 -0.725028,0.75902 -1.268799,1.55202 -0.577757,0.83831 -0.793,1.22348 -0.203914,0.38517 -0.419157,1.04223 -0.260557,0.77034 -0.362514,0.99691 -0.101957,0.2379 -0.2379,0.2379 -0.04531,0 -0.101957,-0.034 -0.05664,-0.0227 -0.135943,-0.0906 -0.06797,-0.068 -0.124614,-0.20391 -0.04531,-0.13595 -0.04531,-0.3172 0,-0.2379 0.06797,-0.7137 0.06797,-0.48713 0.203914,-1.43873 0.135943,-0.9516 0.2379,-1.9825 0.147272,-1.46139 0.249229,-1.77859 0.1586,-0.46447 0.464471,-0.46447 0.147271,0 0.203914,0.10196 0.06797,0.0906 0.06797,0.36251 0,0.27189 -0.169929,1.97117 l -0.124614,1.29146 0.203914,-0.37384 q 0.3965,-0.72503 0.645728,-1.06489 0.249229,-0.33985 0.860971,-0.97425 1.178171,-1.21216 1.801242,-1.21216 z"
               style="font-style:oblique;font-variant:normal;font-weight:bold;font-stretch:normal;font-family:Purisa;-inkscape-font-specification:'Purisa Bold Oblique';fill:#343434;fill-opacity:1;stroke-width:0.28321418"
               id="path845" />
            <path
               d="m 102.65843,186.79992 q 0,-0.29454 0.1586,-0.4758 0.1586,-0.19259 0.3172,-0.19259 0.28321,0 0.41916,0.3965 0.0793,0.2379 0.44181,0.45315 0.37384,0.20391 0.73636,0.20391 0.46447,0 0.97425,-0.54377 0.50979,-0.54377 0.50979,-0.77034 0,-0.38517 -0.48713,-0.54377 -0.36251,-0.11329 -0.78167,-0.28322 -0.40783,-0.18125 -0.61174,-0.22657 -0.29455,-0.068 -0.73636,-0.41916 -0.44181,-0.36251 -0.44181,-0.78167 0,-0.48713 0.83831,-1.24614 0.84964,-0.77034 1.85788,-0.97426 l 1.15552,-0.10195 q 0.30587,0 0.44181,0.0793 0.14727,0.068 0.32853,0.33985 0.24923,0.36252 0.24923,0.60042 0,0.12461 -0.0906,0.22657 -0.0906,0.10196 -0.26056,0.10196 -0.18125,0 -0.29454,-0.0793 -0.10196,-0.0906 -0.1586,-0.18126 -0.0453,-0.10196 -0.19258,-0.18126 -0.13595,-0.0906 -0.37385,-0.0906 -0.49845,0 -1.12153,0.29455 -0.62307,0.28321 -1.01957,0.61174 -0.38517,0.3172 -0.38517,0.45314 0,0.14727 0.28322,0.36252 0.29454,0.20391 0.86097,0.38517 0.97425,0.3172 1.37075,0.60041 0.40783,0.28321 0.40783,0.73636 0,0.24923 -0.13594,0.64573 -0.13594,0.38517 -0.29454,0.62307 -0.2379,0.37384 -0.793,0.77034 -0.54377,0.40783 -1.0309,0.40783 -0.35119,0 -0.89496,-0.10196 -0.54377,-0.0906 -0.81566,-0.22657 -0.18125,-0.10196 -0.30587,-0.35119 -0.12461,-0.24922 -0.12461,-0.52111 z"
               style="font-style:oblique;font-variant:normal;font-weight:bold;font-stretch:normal;font-family:Purisa;-inkscape-font-specification:'Purisa Bold Oblique';fill:#343434;fill-opacity:1;stroke-width:0.28321418"
               id="path847" />
            <path
               d="m 111.83456,187.70621 q -0.30588,0 -0.44182,-0.13595 -0.13594,-0.13594 -0.13594,-0.5551 0,-0.41915 0.0793,-0.70237 0.0793,-0.3965 0.12461,-0.80433 0.0453,-0.41915 0.12462,-1.29145 0.0793,-0.88363 0.18125,-1.8239 0.034,-0.26056 0.0566,-0.49846 0.034,-0.24923 0.0453,-0.36251 0.0113,-0.11329 0.0227,-0.20392 0.0113,-0.10195 0.0113,-0.1586 -0.36252,0.0227 -1.01957,0.13595 -0.64573,0.10195 -0.86098,0.10195 -0.41915,0 -0.41915,-0.27188 0,-0.36252 0.45314,-0.54377 0.46447,-0.18126 1.12153,-0.27189 0.66838,-0.10196 0.84964,-0.19259 0.0906,-0.0793 0.19259,-0.48712 0.0906,-0.40783 0.12461,-1.06489 0.034,-0.65706 0.14727,-1.1895 0.0793,-0.36251 0.30587,-0.53244 0.2379,-0.18126 0.46447,-0.18126 0.30588,0 0.30588,0.27189 0,0.24923 -0.13595,1.48404 -0.12461,1.22348 -0.13594,1.43873 0.10196,-0.0113 0.62307,-0.0906 0.53244,-0.0906 0.80433,-0.0906 0.6344,0 0.6344,0.33986 0,0.52111 -1.52936,0.75901 l -0.65705,0.10196 -0.28322,1.72194 q -0.26056,1.60866 -0.32853,3.0134 -0.068,1.39341 -0.10195,1.586 -0.10196,0.49846 -0.62307,0.49846 z"
               style="font-style:oblique;font-variant:normal;font-weight:bold;font-stretch:normal;font-family:Purisa;-inkscape-font-specification:'Purisa Bold Oblique';fill:#343434;fill-opacity:1;stroke-width:0.28321418"
               id="path849" />
            <path
               d="m 117.62343,180.77312 q 0.20391,0 0.24923,0.12462 0.0566,0.11328 0.0566,0.36251 0,0.89496 -0.40783,3.23997 -0.3965,2.34501 -0.58908,2.59424 -0.26056,0.18126 -0.52112,0.18126 -0.16993,0 -0.28321,-0.0566 -0.10196,-0.0566 -0.13595,-0.10196 -0.0226,-0.0566 -0.0226,-0.0906 0,-0.28321 0.32853,-2.42431 0.33985,-2.1411 0.49845,-2.84347 0.14727,-0.67972 0.41916,-0.84964 0.22657,-0.13595 0.40783,-0.13595 z m 0.0113,-2.34501 q 0,-0.28321 0.22657,-0.46447 0.22657,-0.19259 0.40783,-0.19259 0.14727,0 0.35118,0.13595 0.20392,0.12461 0.20392,0.32852 0,0.21525 -0.19259,0.49846 -0.19258,0.28321 -0.46447,0.28321 -0.20391,0 -0.37384,-0.1586 -0.1586,-0.16992 -0.1586,-0.43048 z"
               style="font-style:oblique;font-variant:normal;font-weight:bold;font-stretch:normal;font-family:Purisa;-inkscape-font-specification:'Purisa Bold Oblique';fill:#343434;fill-opacity:1;stroke-width:0.28321418"
               id="path851" />
            <path
               d="m 120.97668,178.2242 q 0.18126,-0.82699 0.33986,-1.2688 0.1586,-0.44182 0.27189,-0.5551 0.12461,-0.12462 0.29454,-0.12462 0.11329,0 0.19259,0.068 0.0906,0.068 0.0906,0.16993 0,0.27189 -0.37384,2.91144 -0.37384,2.63956 -0.74768,5.14317 -0.36252,2.49229 -0.37385,2.5376 -0.0793,0.3965 -0.52111,0.3965 -0.21524,0 -0.30587,-0.11328 -0.0906,-0.10196 -0.0906,-0.43049 0,-0.33986 0.0906,-1.06489 0.10196,-0.72502 0.33986,-2.42431 0.24922,-1.71061 0.46447,-3.39857 0.12461,-0.8723 0.32852,-1.84655 z"
               style="font-style:oblique;font-variant:normal;font-weight:bold;font-stretch:normal;font-family:Purisa;-inkscape-font-specification:'Purisa Bold Oblique';fill:#343434;fill-opacity:1;stroke-width:0.28321418"
               id="path853" />
            <path
               d="m 127.94374,182.93688 q 0.0453,-0.0566 0.0453,-0.10196 0,-0.0453 -0.0566,-0.11328 -0.0566,-0.068 -0.20391,-0.20392 l -0.13595,-0.13594 q -0.29454,-0.27189 -0.44181,-0.33986 -0.14727,-0.068 -0.43049,-0.068 -0.56642,0 -0.84964,0.0906 -0.28321,0.0793 -0.6344,0.36251 -1.06488,0.86097 -1.12153,1.09887 0.0453,0.0113 0.19259,0.0113 1.09887,0 3.12668,-0.38517 0.20392,-0.034 0.33986,-0.10196 0.13594,-0.068 0.16993,-0.11328 z m 0.50978,2.00516 q 0.44182,-0.30588 0.61175,-0.30588 0.16993,0 0.16993,0.16993 0,0.22657 -0.43049,0.73636 -0.41916,0.49846 -0.89496,0.84964 -1.49537,1.08754 -2.84347,1.08754 -0.94027,0 -1.61998,-0.6344 -0.67972,-0.64572 -0.67972,-1.78991 0,-0.9516 0.3965,-1.67663 0.3965,-0.70237 1.38209,-1.46138 0.98558,-0.77034 1.7446,-0.77034 0.19258,0 0.58908,0.034 0.60042,0.0453 0.83832,0.12462 0.2379,0.068 0.52111,0.28321 0.27189,0.21524 0.46447,0.57776 0.20392,0.36251 0.20392,0.69104 0,0.2379 -0.11329,0.43048 -0.11328,0.18126 -0.26056,0.29455 -0.14727,0.11328 -0.41915,0.21524 -0.27189,0.0906 -0.4758,0.13594 -0.19259,0.0453 -0.50979,0.10196 -1.14418,0.21524 -2.32235,0.28321 l -0.99692,0.0453 -0.0566,0.29454 q -0.0453,0.24923 -0.0453,0.33986 0,0.53244 0.53244,1.06488 0.48713,0.49846 1.12153,0.49846 0.49845,0 1.12152,-0.29454 0.62308,-0.30587 1.07622,-0.66839 0.46447,-0.36251 0.89495,-0.65705 z"
               style="font-style:oblique;font-variant:normal;font-weight:bold;font-stretch:normal;font-family:Purisa;-inkscape-font-specification:'Purisa Bold Oblique';fill:#343434;fill-opacity:1;stroke-width:0.28321418"
               id="path855" />
            <path
               d="m 138.71718,186.23349 q 0,0.13594 0.20392,0.22657 0.21524,0.0906 0.38517,0.0906 0.24923,0 0.64573,-0.12461 0.40783,-0.12462 0.69104,-0.2379 l 0.27189,-0.12462 q 0.034,-0.14727 0.48712,-0.4758 0.46448,-0.32853 0.46448,-0.3965 0,-0.0566 -0.068,-0.13594 -0.0566,-0.0793 -0.32852,-0.16993 -0.26056,-0.0906 -0.70238,-0.0906 -0.96292,0 -1.5067,0.48713 -0.54377,0.48713 -0.54377,0.9516 z m 4.80332,-3.71577 q 0,0.30587 -0.3172,1.9032 -0.3172,1.59733 -0.3965,2.36767 -0.0793,0.26056 -0.29455,0.45314 -0.21524,0.18126 -0.32853,0.18126 -0.35118,0 -0.35118,-0.69104 0,-0.0793 0.034,-0.5551 -0.45315,0.41916 -1.24615,0.81566 -0.793,0.38517 -1.28013,0.38517 -0.3172,0 -0.74768,-0.10196 -0.41916,-0.10196 -0.58909,-0.24923 -0.16992,-0.1586 -0.16992,-0.58908 0,-0.81566 0.41915,-1.2688 0.41916,-0.45315 1.28013,-0.83832 0.90629,-0.41915 1.64264,-0.41915 0.3172,0 0.50979,0.0793 0.19258,0.0793 0.28321,0.19258 0.10196,0.10196 0.11329,0.10196 0.16993,0.034 0.28321,0.14727 0.21524,-0.99691 0.21524,-1.60866 0,-0.80433 -0.44181,-0.80433 -0.54377,0 -1.22348,0.21525 -0.66839,0.21524 -1.22349,0.44181 -0.54377,0.21524 -0.77034,0.21524 -0.2379,0 -0.2379,-0.20391 0,-0.0113 0,-0.0227 0.0113,-0.0226 0.0113,-0.034 0.0453,-0.19259 0.14727,-0.32853 0.10195,-0.14727 0.33985,-0.26056 0.24923,-0.12461 0.41916,-0.19258 0.18126,-0.068 0.64573,-0.21525 0.46447,-0.14727 0.73636,-0.24922 0.67971,-0.2379 1.24614,-0.2379 0.91761,0 1.1895,0.86097 0.10196,0.28321 0.10196,0.50978 z"
               style="font-style:oblique;font-variant:normal;font-weight:bold;font-stretch:normal;font-family:Purisa;-inkscape-font-specification:'Purisa Bold Oblique';fill:#343434;fill-opacity:1;stroke-width:0.28321418"
               id="path857" />
            <path
               d="m 146.45459,178.2242 q 0.18126,-0.82699 0.33986,-1.2688 0.1586,-0.44182 0.27188,-0.5551 0.12462,-0.12462 0.29455,-0.12462 0.11328,0 0.19258,0.068 0.0906,0.068 0.0906,0.16993 0,0.27189 -0.37384,2.91144 -0.37385,2.63956 -0.74769,5.14317 -0.36251,2.49229 -0.37384,2.5376 -0.0793,0.3965 -0.52112,0.3965 -0.21524,0 -0.30587,-0.11328 -0.0906,-0.10196 -0.0906,-0.43049 0,-0.33986 0.0906,-1.06489 0.10196,-0.72502 0.33986,-2.42431 0.24923,-1.71061 0.46447,-3.39857 0.12462,-0.8723 0.32853,-1.84655 z"
               style="font-style:oblique;font-variant:normal;font-weight:bold;font-stretch:normal;font-family:Purisa;-inkscape-font-specification:'Purisa Bold Oblique';fill:#343434;fill-opacity:1;stroke-width:0.28321418"
               id="path859" />
            <path
               d="m 148.91288,188.64648 q 0,-1.23482 0.21524,-3.21732 0.22657,-1.99382 0.22657,-2.16375 0,-0.29455 -0.12462,-0.29455 -0.46447,0 -0.46447,-0.28321 0,-0.18126 0.19259,-0.35119 0.19259,-0.18125 0.40783,-0.33985 0.21524,-0.1586 0.2379,-0.28322 0.0226,-0.12461 0.11328,-0.3172 0.0906,-0.19258 0.29455,-0.3965 0.20391,-0.21524 0.44181,-0.21524 0.13594,0 0.21524,0.0566 0.0906,0.0566 0.11329,0.12462 0.034,0.0566 0.068,0.11328 0.0453,0.0566 0.10196,0.0566 0.10195,0 0.91761,-0.16993 0.81566,-0.18126 1.43873,-0.18126 0.52111,0 1.12153,0.12462 1.0309,0.2379 1.0309,1.15551 0,0.99691 -1.2688,2.79816 -0.70237,0.99691 -1.57467,1.54068 -0.8723,0.54377 -1.7446,0.54377 -0.22657,0 -0.37385,-0.0227 l -0.32852,-0.0453 0.0113,0.38517 q 0,0.0227 0,0.1586 0.0113,0.14727 0.0113,0.38517 0.0113,0.2379 0.0113,0.52112 0,0.35118 -0.0113,0.53244 0,0.19258 -0.0226,0.44181 -0.0113,0.26056 -0.0567,0.37385 -0.0453,0.12461 -0.12461,0.24922 -0.0793,0.13595 -0.20392,0.18126 -0.12461,0.0566 -0.29454,0.0566 -0.32853,0 -0.44181,-0.19258 -0.13594,-0.24923 -0.13594,-1.32544 z m 2.18641,-2.54893 q 0.4758,0 1.24614,-0.6344 0.77034,-0.64573 1.35943,-1.5067 0.60041,-0.86097 0.60041,-1.4274 0,-0.1586 -0.0453,-0.29454 -0.0453,-0.13595 -0.0906,-0.19259 -0.034,-0.0566 -0.0566,-0.0793 -0.11329,-0.068 -0.64573,-0.068 -1.09887,0 -2.01649,0.24923 l -0.75901,0.21524 -0.11329,0.62307 q -0.30587,1.81257 -0.30587,2.59424 0,0.2379 0.0453,0.2379 0.22657,0 0.44181,0.14728 0.22657,0.13594 0.33986,0.13594 z"
               style="font-style:oblique;font-variant:normal;font-weight:bold;font-stretch:normal;font-family:Purisa;-inkscape-font-specification:'Purisa Bold Oblique';fill:#343434;fill-opacity:1;stroke-width:0.28321418"
               id="path861" />
            <path
               d="m 158.22495,180.77312 q 0.20392,0 0.24923,0.12462 0.0566,0.11328 0.0566,0.36251 0,0.89496 -0.40782,3.23997 -0.3965,2.34501 -0.58909,2.59424 -0.26056,0.18126 -0.52111,0.18126 -0.16993,0 -0.28322,-0.0566 -0.10196,-0.0566 -0.13594,-0.10196 -0.0227,-0.0566 -0.0227,-0.0906 0,-0.28321 0.32853,-2.42431 0.33986,-2.1411 0.49846,-2.84347 0.14727,-0.67972 0.41915,-0.84964 0.22658,-0.13595 0.40783,-0.13595 z m 0.0113,-2.34501 q 0,-0.28321 0.22657,-0.46447 0.22657,-0.19259 0.40783,-0.19259 0.14727,0 0.35119,0.13595 0.20391,0.12461 0.20391,0.32852 0,0.21525 -0.19258,0.49846 -0.19259,0.28321 -0.46448,0.28321 -0.20391,0 -0.37384,-0.1586 -0.1586,-0.16992 -0.1586,-0.43048 z"
               style="font-style:oblique;font-variant:normal;font-weight:bold;font-stretch:normal;font-family:Purisa;-inkscape-font-specification:'Purisa Bold Oblique';fill:#343434;fill-opacity:1;stroke-width:0.28321418"
               id="path863" />
            <path
               d="m 165.20334,180.95438 q 0.40782,0 0.63439,0.45314 0.22658,0.44182 0.22658,0.90629 0,0.90628 -0.65706,3.86304 -0.1586,0.74768 -0.3172,1.01957 -0.1586,0.26056 -0.4758,0.26056 -0.27189,0 -0.27189,-0.2379 0,-0.0453 0.3965,-1.84656 0.40783,-1.81257 0.40783,-2.74151 0,-0.20392 -0.068,-0.33986 -0.068,-0.14727 -0.12461,-0.18126 -0.0453,-0.0453 -0.068,-0.0453 -0.18126,0 -0.90629,0.75901 -0.72503,0.75902 -1.2688,1.55202 -0.57776,0.83831 -0.793,1.22348 -0.20391,0.38517 -0.41916,1.04223 -0.26055,0.77034 -0.36251,0.99691 -0.10196,0.2379 -0.2379,0.2379 -0.0453,0 -0.10196,-0.034 -0.0566,-0.0227 -0.13594,-0.0906 -0.068,-0.068 -0.12461,-0.20391 -0.0453,-0.13595 -0.0453,-0.3172 0,-0.2379 0.068,-0.7137 0.068,-0.48713 0.20392,-1.43873 0.13594,-0.9516 0.2379,-1.9825 0.14727,-1.46139 0.24923,-1.77859 0.1586,-0.46447 0.46447,-0.46447 0.14727,0 0.20391,0.10196 0.068,0.0906 0.068,0.36251 0,0.27189 -0.16993,1.97117 l -0.12461,1.29146 0.20391,-0.37384 q 0.3965,-0.72503 0.64573,-1.06489 0.24923,-0.33985 0.86097,-0.97425 1.17817,-1.21216 1.80125,-1.21216 z"
               style="font-style:oblique;font-variant:normal;font-weight:bold;font-stretch:normal;font-family:Purisa;-inkscape-font-specification:'Purisa Bold Oblique';fill:#343434;fill-opacity:1;stroke-width:0.28321418"
               id="path865" />
            <path
               d="m 172.62355,180.92039 q 1.05356,0 1.43873,0.35119 0.3965,0.33986 0.3965,1.0309 0,1.1895 -0.89496,2.71885 -0.89496,1.52936 -2.03914,2.09579 -0.9516,0.46447 -1.88054,0.46447 -0.6344,0 -1.15552,-0.21524 -0.50978,-0.20392 -0.78167,-0.60042 -0.4758,-0.67971 -0.4758,-1.2688 0,-0.32852 0.10196,-0.81565 0.29454,-1.40474 1.68795,-2.42432 1.13286,-0.81565 1.85789,-1.07621 0.72503,-0.26056 1.7446,-0.26056 z m 0.8723,1.63132 q 0,-0.21525 -0.30587,-0.38517 -0.30587,-0.18126 -0.6344,-0.18126 -0.068,0 -0.19259,0.0227 -0.11328,0.0113 -0.36251,0.0453 -0.2379,0.0227 -0.50979,0.0453 -0.38517,0.034 -0.64573,0.14728 -0.26055,0.10195 -0.67971,0.40782 -0.86097,0.62308 -1.30279,1.22349 -0.44181,0.58909 -0.44181,1.30278 0,0.65706 0.46447,1.06489 0.46447,0.3965 1.25747,0.3965 0.92895,0 1.95984,-1.17817 1.04223,-1.1895 1.35943,-2.6962 0.034,-0.13594 0.034,-0.21524 z"
               style="font-style:oblique;font-variant:normal;font-weight:bold;font-stretch:normal;font-family:Purisa;-inkscape-font-specification:'Purisa Bold Oblique';fill:#343434;fill-opacity:1;stroke-width:0.28321418"
               id="path867" />
          </g>
        </g>
      </g>
    </g>
  </g>
</svg>
