<?xml version="1.0" encoding="UTF-8" standalone="no"?>
<!-- Created with Inkscape (http://www.inkscape.org/) -->

<svg
   xmlns:dc="http://purl.org/dc/elements/1.1/"
   xmlns:cc="http://creativecommons.org/ns#"
   xmlns:rdf="http://www.w3.org/1999/02/22-rdf-syntax-ns#"
   xmlns:svg="http://www.w3.org/2000/svg"
   xmlns="http://www.w3.org/2000/svg"
   xmlns:sodipodi="http://sodipodi.sourceforge.net/DTD/sodipodi-0.dtd"
   xmlns:inkscape="http://www.inkscape.org/namespaces/inkscape"
   width="32"
   height="32"
   viewBox="0 0 8.4666665 8.4666669"
   version="1.1"
   id="svg8"
   inkscape:version="0.92.3 (2405546, 2018-03-11)"
   sodipodi:docname="drawing.svg"
   inkscape:export-filename="/home/antonio/Desktop/Dottorato/mysite/antoniolonga94.github.io/img/icone/keras_icon.png"
   inkscape:export-xdpi="96"
   inkscape:export-ydpi="96">
  <defs
     id="defs2" />
  <sodipodi:namedview
     id="base"
     pagecolor="#ffffff"
     bordercolor="#666666"
     borderopacity="1.0"
     inkscape:pageopacity="0.0"
     inkscape:pageshadow="2"
     inkscape:zoom="15.839192"
     inkscape:cx="27.768283"
     inkscape:cy="18.792898"
     inkscape:document-units="mm"
     inkscape:current-layer="layer1"
     showgrid="false"
     inkscape:window-width="1847"
     inkscape:window-height="1018"
     inkscape:window-x="73"
     inkscape:window-y="34"
     inkscape:window-maximized="1"
     units="px" />
  <metadata
     id="metadata5">
    <rdf:RDF>
      <cc:Work
         rdf:about="">
        <dc:format>image/svg+xml</dc:format>
        <dc:type
           rdf:resource="http://purl.org/dc/dcmitype/StillImage" />
        <dc:title></dc:title>
      </cc:Work>
    </rdf:RDF>
  </metadata>
  <g
     inkscape:label="Layer 1"
     inkscape:groupmode="layer"
     id="layer1"
     transform="translate(0,-288.53332)">
    <path
       style="fill:#d40000;stroke-width:0.02516278"
       d="m 0.6823771,296.99165 c -0.23432156,-0.0641 -0.44731846,-0.23959 -0.55600592,-0.45824 -0.09155789,-0.18417 -0.09388844,-0.27835 -0.09388844,-3.75995 0,-2.99819 0.0049953,-3.43485 0.03862124,-3.56699 0.08656381,-0.33688 0.34788656,-0.57957 0.6932927,-0.64393 0.0882285,-0.0169 1.34721572,-0.023 3.56825952,-0.0187 l 3.432038,0.007 0.1424974,0.058 c 0.1894747,0.0773 0.3751375,0.25618 0.4637988,0.44719 l 0.070416,0.1515 v 3.5751 3.57506 l -0.081736,0.16729 c -0.095054,0.19468 -0.2309589,0.32826 -0.4291068,0.42189 l -0.1408326,0.0667 -3.4964448,0.005 c -2.7151733,0.004 -3.52204777,-0.002 -3.61100871,-0.0266 z m 2.5504358,-1.7131 0.058098,-0.0549 v -2.45033 c 0,-2.2446 -0.00333,-2.45422 -0.04145,-2.49651 -0.036124,-0.0403 -0.083568,-0.0462 -0.3677296,-0.0462 -0.2683977,0 -0.3343694,0.007 -0.3720746,0.0418 -0.043781,0.0399 -0.045779,0.15084 -0.045779,2.50524 0,2.25681 0.00333,2.46732 0.04145,2.50963 0.035957,0.0401 0.083068,0.0462 0.3555442,0.0462 0.2879577,0 0.3188877,-0.005 0.3720744,-0.0549 z m 3.2732767,-0.0244 c 0.038122,-0.0675 0.039619,-0.085 0.00999,-0.11978 -0.050107,-0.0595 -0.9001803,-1.10655 -1.1202021,-1.37981 -0.476617,-0.59195 -0.9555478,-1.17347 -0.9779212,-1.18742 -0.021474,-0.0134 -0.6011189,0.47842 -0.6011189,0.51 0,0.007 0.4182862,0.51698 0.9295287,1.13421 l 0.929512,1.12222 0.3926168,-1.3e-4 0.3926167,-1.5e-4 0.044614,-0.079 z m -2.8590524,-2.1864 c 0.5173519,-0.43175 0.8500399,-0.74569 2.2617788,-2.13449 l 0.5502128,-0.54124 -0.033127,-0.0807 -0.033127,-0.0806 -0.4042529,8.9e-4 -0.4042529,8.9e-4 -1.097529,1.09157 -1.0975456,1.09159 9.849e-4,0.42315 c 5.661e-4,0.23271 0.00666,0.42313 0.013318,0.42313 0.00666,0 0.1163618,-0.0874 0.2443763,-0.19428 z"
       id="path8"
       inkscape:connector-curvature="0" />
  </g>
</svg>
