<?xml version="1.0" encoding="UTF-8" standalone="no"?>
<!-- Created with Inkscape (http://www.inkscape.org/) -->

<svg
   xmlns:dc="http://purl.org/dc/elements/1.1/"
   xmlns:cc="http://creativecommons.org/ns#"
   xmlns:rdf="http://www.w3.org/1999/02/22-rdf-syntax-ns#"
   xmlns:svg="http://www.w3.org/2000/svg"
   xmlns="http://www.w3.org/2000/svg"
   xmlns:sodipodi="http://sodipodi.sourceforge.net/DTD/sodipodi-0.dtd"
   xmlns:inkscape="http://www.inkscape.org/namespaces/inkscape"
   version="1.1"
   id="svg2"
   width="32"
   height="32"
   viewBox="0 0 32 32"
   sodipodi:docname="nx.svg"
   inkscape:version="0.92.3 (2405546, 2018-03-11)">
  <metadata
     id="metadata8">
    <rdf:RDF>
      <cc:Work
         rdf:about="">
        <dc:format>image/svg+xml</dc:format>
        <dc:type
           rdf:resource="http://purl.org/dc/dcmitype/StillImage" />
        <dc:title />
      </cc:Work>
    </rdf:RDF>
  </metadata>
  <defs
     id="defs6" />
  <sodipodi:namedview
     pagecolor="#ffffff"
     bordercolor="#666666"
     borderopacity="1"
     objecttolerance="10"
     gridtolerance="10"
     guidetolerance="10"
     inkscape:pageopacity="0"
     inkscape:pageshadow="2"
     inkscape:window-width="1847"
     inkscape:window-height="1018"
     id="namedview4"
     showgrid="false"
     inkscape:zoom="12.586667"
     inkscape:cx="5.1701814"
     inkscape:cy="28.462812"
     inkscape:window-x="73"
     inkscape:window-y="34"
     inkscape:window-maximized="1"
     inkscape:current-layer="svg2" />
  <g
     id="g26"
     transform="matrix(0.04212478,0,0,0.04212478,45.37639,30.232805)">
    <path
       style="fill:#fdfdfd"
       d="m -1134.1553,-347.96576 v -366 h 421.5 421.5 v 366 366 h -421.5 -421.5 z"
       id="path43"
       inkscape:connector-curvature="0" />
    <path
       style="fill:#d7d7d7"
       d="m -991.2522,7.81199 c -8.39884,-4.17306 -13.1231,-9.48259 -15.3734,-17.27775 -1.9656,-6.80915 -1.6261,-11.50455 1.4178,-19.61011 1.6045,-4.27288 3.1102,-6.19422 7.26508,-9.27098 6.98338,-5.17131 9.43314,-5.89262 18.59047,-5.47387 7.02629,0.32131 8.23303,0.69318 12.72954,3.92271 7.80764,5.60769 11.03602,10.53085 11.81919,18.02384 0.37352,3.57365 0.18027,8.79854 -0.44252,11.96412 -1.52071,7.7296 -7.9354,14.7294 -16.40926,17.90602 -9.51654,3.5675 -12.09528,3.54328 -19.5969,-0.18398 z m -20.5367,-46.71658 c -1.7235,-0.93156 -5.7186,-3.91392 -8.8779,-6.62746 -14.8756,-12.77667 -24.5852,-21.28537 -31.1943,-27.33641 -3.9633,-3.62851 -11.0676,-9.7473 -15.7875,-13.5973 -4.7199,-3.85 -8.828,-7.97059 -9.1292,-9.15686 -0.5456,-2.14902 1.0486,-6.34651 2.4077,-6.3394 1.7719,0.009 7.9159,4.80508 23.7148,18.51092 9.35,8.1113 20.2625,17.45304 24.25,20.75942 3.9875,3.30637 7.25,6.29842 7.25,6.64899 0,0.35057 2.4942,2.42379 5.5427,4.60716 5.909,4.23209 9.4573,8.8612 9.4573,12.3378 0,2.61554 -3.011,2.69171 -7.6336,0.19314 z m 51.67343,-3.51318 c -1.83915,-2.21604 -0.47092,-4.90389 5.76304,-11.32138 3.13342,-3.22567 14.69713,-15.72033 25.69713,-27.76591 26.5731,-29.09894 26.08186,-28.63411 29.87005,-28.26449 6.7758,0.66112 5.20281,3.18402 -17.37005,27.85972 -6.325,6.91422 -17.28031,18.95518 -24.34513,26.75769 -10.65882,11.77178 -13.31872,14.18638 -15.62756,14.18638 -1.53033,0 -3.3247,-0.65341 -3.98748,-1.45201 z m -26.99076,-9.45631 c -0.56172,-1.04958 -1.73708,-8.36208 -2.61191,-16.25 -0.87483,-7.88792 -1.98181,-17.71668 -2.45996,-21.84168 -0.47815,-4.125 -0.89363,-12.04276 -0.92328,-17.59501 -0.0739,-13.83485 0.19263,-13.63437 -17.16822,-12.91376 -7.3621,0.30558 -19.9107,0.74954 -27.8857,0.98658 -7.975,0.23704 -16.975,0.71886 -20,1.07072 -4.7922,0.55742 -5.7967,0.35855 -7.8058,-1.54534 -1.2682,-1.2018 -2.1642,-2.92036 -1.9912,-3.81902 0.6123,-3.17926 4.8743,-4.15375 18.297,-4.18355 20.3407,-0.0452 46.0728,-1.79526 49.89841,-3.39373 5.09163,-2.12741 5.39067,-3.40753 3.47205,-14.86287 -0.94365,-5.63421 -2.21414,-19.24402 -2.8233,-30.24402 -0.60916,-11 -1.50876,-24.72131 -1.99916,-30.4918 -0.603,-7.09578 -0.5535,-10.89905 0.1527,-11.75 1.51485,-1.82531 5.2324,-1.5421 7.11879,0.54234 1.84929,2.04344 2.31404,6.46798 3.69732,35.19946 0.51635,10.725 1.60811,23.1 2.42612,27.5 0.81801,4.4 1.50299,10.56241 1.52218,13.69424 0.0272,4.43782 0.53346,6.27386 2.29449,8.32118 l 2.2596,2.62694 8.4904,-1.11411 c 14.6124,-1.91743 56.95947,-2.90127 60.7404,-1.41116 3.87097,1.52559 4.32154,4.51897 1.02749,6.82621 -1.77621,1.2441 -5.34052,1.56103 -17.75,1.57824 -8.54012,0.0119 -22.72749,0.67367 -31.52749,1.47072 -8.8,0.79705 -17.22713,1.46236 -18.72695,1.47846 -5.04712,0.0542 -5.72466,2.74035 -4.67365,18.52928 0.51256,7.7 1.57054,16.7 2.35107,20 1.87595,7.93136 2.8917,28.99213 1.52172,31.55196 -1.34627,2.51552 -5.5851,2.53984 -6.92312,0.0397 z m -121.84607,-43.48029 c -8.8918,-1.81773 -14.4168,-7.26156 -17.3519,-17.09686 -1.1513,-3.85799 -2.095,-7.9631 -2.0972,-9.12247 -0.01,-4.73853 4.4486,-13.97074 8.9809,-18.60102 3.9852,-4.0715 5.5462,-4.92209 11.5311,-6.28333 7.4632,-1.69746 14.9032,-1.02297 20.47,1.85574 4.0953,2.11774 11.3784,11.22622 12.3623,15.46068 2.4811,10.67808 0.2981,19.8748 -6.2787,26.45166 -7.6627,7.66264 -15.645,9.78294 -27.6165,7.3356 z m 224.08412,-10.98439 c -8.78006,-3.31867 -10.31036,-4.55257 -14.53712,-11.72133 -3.419,-5.79878 -3.75,-7.01083 -3.75,-13.73179 0,-8.56647 1.47863,-12.36504 7.0465,-18.10236 5.46534,-5.63165 7.6748,-6.83374 14.59858,-7.94252 9.70443,-1.55407 17.28205,0.41134 22.98569,5.96183 5.00979,4.87527 10.36969,15.36793 10.36844,20.29749 -0.001,4.67161 -5.19742,14.56258 -10.17275,19.36372 -3.05196,2.9451 -6.08456,4.73315 -9.86639,5.81731 -8.79899,2.52247 -10.1396,2.52711 -16.67295,0.0576 z m -197.08712,-39.827 c -2.9116,-2.91162 -0.6382,-7.79494 8.7522,-18.8 2.5811,-3.025 6.9103,-8.55145 9.6204,-12.28099 2.7101,-3.72955 6.1799,-8.45455 7.7107,-10.5 1.5309,-2.04546 3.7809,-5.12749 5,-6.84897 2.3995,-3.38811 8.2916,-11.25168 19.0713,-25.45264 5.9269,-7.80806 7.2114,-8.98861 9.4914,-8.72373 2.823,0.32795 3.7302,2.37428 2.7623,6.23077 -0.5416,2.15783 -7.5664,12.02304 -17.8558,25.07556 -2.6014,3.3 -8.2462,10.725 -12.5438,16.5 -21.7556,29.23388 -27.3398,36 -29.7116,36 -0.6034,0 -1.6371,-0.54 -2.2971,-1.2 z m 165.7304,-19.05 c -43.84104,-42.80664 -52.16676,-50.83025 -56.7845,-54.72398 -7.16782,-6.044 -7.11179,-11.02602 0.12399,-11.02602 1.32503,0 5.52839,3.43106 11.33208,9.25 5.07417,5.0875 14.89927,14.65 21.83356,21.25 28.25232,26.89032 41.56447,40.68988 41.56447,43.08628 0,2.09477 -2.46729,4.41372 -4.69605,4.41372 -0.45514,0 -6.47324,-5.5125 -13.37355,-12.25 z m -98.4562,-65.07228 c -2.8859,-1.96893 -6.7004,-5.93015 -8.9588,-9.30332 -3.3998,-5.07805 -3.9875,-6.78568 -4.3355,-12.59666 -0.3531,-5.89793 -0.074,-7.28235 2.2743,-11.28974 4.2832,-7.30876 8.4481,-11.4099 14.8896,-14.66154 8.664,-4.37359 13.32245,-4.21394 22.13609,0.75865 6.04208,3.40889 7.56243,4.87695 11.31558,10.92644 4.18991,6.75348 4.32446,7.22381 4.00174,13.98845 -0.28163,5.90323 -0.87209,7.8684 -3.76854,12.54246 -1.88902,3.04835 -5.48075,7.09835 -7.98163,9 -4.39091,3.33882 -4.89041,3.46796 -14.54704,3.76086 -9.9545,0.30193 -10.0229,0.2877 -15.0258,-3.1256 z m 6.2557,-57.09073 c -0.9893,-0.98923 -1.6136,-5.26293 -2.0818,-14.25 -0.3678,-7.06034 -1.3047,-15.53699 -2.0819,-18.83699 -1.7883,-7.59263 -3.5662,-23.47821 -3.5662,-31.86423 0,-3.54369 -1.1129,-13.12392 -2.4731,-21.28942 -1.3601,-8.16549 -2.9113,-21.37135 -3.4469,-29.34635 -0.5356,-7.975 -1.7321,-17.38759 -2.659,-20.91686 -1.6114,-6.1361 -1.6053,-6.47519 0.1381,-7.75 2.7549,-2.01441 6.2166,-1.60977 7.8439,0.91686 1.9309,2.99823 2.4171,6.39658 3.5849,25.06166 0.5441,8.69641 1.64,18.37141 2.4353,21.5 0.7953,3.12859 1.9659,12.88834 2.6012,21.68834 0.6354,8.8 2.199,22.525 3.4746,30.5 1.2756,7.975 2.6109,21.10794 2.9672,29.18431 0.6171,13.98825 0.5534,14.73483 -1.3435,15.75 -2.6401,1.41298 -3.7009,1.34466 -5.3928,-0.34732 z m 522.7701,-106.51544 c -6.79163,-3.45348 -11.44554,-8.02069 -14.65839,-14.38532 -2.71175,-5.37195 -3.02315,-6.83581 -2.5933,-12.19082 1.09893,-13.69037 11.81847,-24.82113 25.23796,-26.20615 6.93374,-0.71562 15.83062,3.16112 21.58746,9.40656 5.429,5.88976 6.92627,9.84663 6.92627,18.30418 0,11.25999 -2.7775,16.13413 -13,22.81326 -4.73835,3.09593 -6.46937,3.64195 -12.5,3.94291 -5.54731,0.27685 -7.83011,-0.0727 -11,-1.68462 z m 40.53983,-35.52356 c -2.85791,-3.44357 2.87527,-8.98747 12.05132,-11.65346 2.42487,-0.70451 5.30885,-1.8461 6.40885,-2.53687 1.1,-0.69076 4.49764,-1.90579 7.55032,-2.70006 3.05268,-0.79427 7.10268,-2.39048 9,-3.54713 1.89732,-1.15665 4.39516,-2.10468 5.55074,-2.10673 1.15558,-0.002 4.17524,-1.10659 6.71034,-2.45452 2.5351,-1.34792 6.5355,-2.96945 8.88977,-3.60339 2.35427,-0.63394 5.47909,-2.00609 6.94403,-3.04922 1.46495,-1.04314 3.71907,-1.90649 5.00917,-1.91857 1.2901,-0.0121 4.30727,-0.91208 6.70483,-2 5.52302,-2.50613 6.80003,-2.48329 8.20763,0.14684 1.80666,3.37576 -1.55253,6.98708 -8.72057,9.37512 -3.3018,1.1 -7.13966,2.75477 -8.52857,3.67726 -1.38891,0.92249 -4.27858,1.98378 -6.42149,2.35842 -2.14291,0.37464 -5.4712,1.72605 -7.3962,3.00315 -1.925,1.27709 -5.29625,2.64878 -7.49166,3.0482 -2.19541,0.39942 -5.97493,1.78074 -8.39894,3.0696 -2.424,1.28885 -5.19985,2.34337 -6.16855,2.34337 -0.9687,0 -4.61418,1.34964 -8.10106,2.99921 -3.48689,1.64957 -7.01479,3.00125 -7.83979,3.00374 -0.825,0.002 -2.97338,0.90284 -4.77417,2.00079 -3.86111,2.35412 -7.50478,2.57 -9.186,0.54425 z m -584.24283,-12.00698 c -13.5208,-4.64823 -22.3191,-16.77392 -20.4643,-28.20367 1.0022,-6.17617 6.5815,-14.17608 12.6673,-18.16318 5.0387,-3.30108 6.068,-3.59192 12.272,-3.4673 11.8311,0.23765 19.4755,5.65698 23.6255,16.74869 2.62658,7.0202 2.63124,9.63828 0.029,16.54445 -3.6473,9.6814 -7.8434,12.80402 -23.4742,17.46905 -0.5759,0.1719 -2.6711,-0.24572 -4.6558,-0.92804 z m 691.42354,-7.60346 c -5.22244,-1.02914 -8.77326,-3.46535 -13.55351,-9.29902 -4.77486,-5.82708 -5.66815,-8.42323 -5.66145,-16.45363 0.008,-9.29404 1.28123,-12.98417 6.27568,-18.1849 4.66026,-4.85273 15.34779,-10 20.7635,-10 4.05019,0 15.69443,6.02357 19.68079,10.18088 3.40525,3.55129 7.27445,13.14721 7.27445,18.04121 0,1.59995 -1.5039,6.16398 -3.34199,10.14229 -6.00987,13.00757 -16.95162,18.42778 -31.43747,15.57317 z m -155.89929,-2.7836 c -1.82018,-1.66689 -3.65764,-4.68949 -4.29923,-7.07217 -0.61626,-2.28861 -2.22332,-6.23528 -3.57124,-8.77038 -1.34793,-2.5351 -2.45309,-5.32976 -2.4559,-6.21034 -0.003,-0.88058 -1.11378,-3.40106 -2.46879,-5.60106 -1.35502,-2.2 -2.47772,-4.72415 -2.49488,-5.60923 -0.0172,-0.88508 -1.38121,-4.13908 -3.03121,-7.23111 -1.65,-3.09203 -3,-6.18641 -3,-6.87641 0,-0.69 -1.18519,-3.736 -2.63375,-6.7689 -9.44384,-19.77286 -15.23732,-33.11969 -15.973,-36.7981 -0.50307,-2.51533 -0.16425,-3.32019 1.99259,-4.73341 2.9104,-1.90696 5.37109,-1.41586 6.23552,1.24448 0.3168,0.97497 1.841,4.47268 3.38711,7.77268 1.5461,3.3 3.26347,7.68042 3.81637,9.73428 0.55289,2.05385 1.94349,4.92703 3.09021,6.38485 1.14672,1.45782 2.08495,3.42656 2.08495,4.37496 0,0.94841 1.35,4.25422 3,7.34625 1.65,3.09203 3.00169,6.19287 3.00376,6.89076 0.002,0.6979 1.35038,3.9689 2.99624,7.2689 1.64586,3.3 2.99585,6.675 2.99998,7.5 0.004,0.825 0.92172,2.99953 2.0391,4.83228 1.11738,1.83276 2.8687,5.43276 3.89182,8 1.02312,2.56725 3.49571,8.49272 5.49464,13.16772 1.99894,4.675 3.50843,9.625 3.35444,11 -0.4015,3.58504 -3.63916,3.65187 -7.45873,0.15395 z m 30.15902,0.45628 c -2.02803,-3.09516 -1.83268,-3.76115 5.65174,-19.26816 3.22739,-6.68686 5.86799,-12.78694 5.86799,-13.55572 0,-0.76878 1.125,-2.92264 2.5,-4.78635 1.375,-1.86371 2.5,-4.08217 2.5,-4.92993 0,-0.84775 1.09851,-3.79782 2.44114,-6.55572 4.88866,-10.04183 8.35002,-18.89501 7.87323,-20.1375 -0.50184,-1.30776 -13.62391,-8.37685 -15.54962,-8.37685 -0.59178,0 -2.46844,-1.05673 -4.17036,-2.34829 -1.70191,-1.29156 -4.89439,-2.92114 -7.09439,-3.62128 -2.2,-0.70014 -5.35,-2.04859 -7,-2.99654 -1.65,-0.94795 -4.575,-2.32552 -6.5,-3.06127 -1.925,-0.73574 -4.57319,-2.15557 -5.88486,-3.15517 -1.31167,-0.9996 -3.11971,-1.81745 -4.01786,-1.81745 -0.89816,0 -3.23065,-1.08562 -5.18332,-2.41249 -1.95266,-1.32688 -5.3797,-2.90511 -7.61564,-3.50718 -2.23594,-0.60208 -4.62721,-1.77169 -5.31394,-2.59915 -0.68673,-0.82746 -3.21415,-2.37392 -5.61649,-3.43659 -3.5278,-1.56052 -4.36789,-2.4279 -4.36789,-4.5098 0,-1.77597 0.77403,-2.93034 2.48868,-3.71159 2.11862,-0.9653 3.41974,-0.67215 8.75,1.97146 3.44373,1.70796 7.83632,3.81085 9.76132,4.67309 1.925,0.86224 4.625,2.19929 6,2.97123 1.375,0.77194 5.875,2.98436 10,4.91649 8.57316,4.01562 34.17083,16.56193 37.36655,18.31464 1.1734,0.64356 3.82284,1.48149 5.88765,1.86208 3.6431,0.67149 3.80019,0.57768 5.30847,-3.17011 0.85485,-2.12414 2.39239,-5.66208 3.41676,-7.86208 1.02436,-2.2 3.2658,-7.375 4.98097,-11.5 1.71517,-4.125 4.19783,-9.75 5.51702,-12.5 1.3192,-2.75 2.88207,-6.54578 3.47305,-8.43507 0.59099,-1.88928 1.68608,-4.13928 2.43355,-5 0.74746,-0.86071 2.12943,-3.93171 3.07103,-6.82445 1.78711,-5.49024 4.11635,-7.584 7.84653,-7.05327 4.85232,0.69039 3.67091,4.98812 -8.19534,29.81279 -1.70886,3.575 -3.10684,7.18304 -3.10663,8.01787 2.2e-4,0.83482 -1.15669,3.22065 -2.57089,5.30185 -1.41421,2.08119 -2.83484,5.44815 -3.15695,7.48213 -0.32211,2.03398 -1.86503,5.26318 -3.42871,7.17599 -4.81643,5.89182 -3.3447,12.44653 3.36711,14.99632 3.51697,1.33608 16.27599,7.33298 37.28983,17.5267 7.15,3.46843 13.98948,6.59766 15.19885,6.95384 3.18671,0.93855 3.95079,4.3401 1.52075,6.77014 -2.68184,2.68184 -8.83824,1.65437 -13.82294,-2.30697 -2.01942,-1.60483 -4.39729,-2.92554 -5.28416,-2.93492 -0.88688,-0.009 -3.8625,-1.35171 -6.6125,-2.98295 -2.75,-1.63124 -5.72681,-2.97357 -6.61514,-2.98295 -0.88833,-0.009 -2.80791,-0.95528 -4.26573,-2.102 -1.45782,-1.14672 -4.31115,-2.54345 -6.34074,-3.10385 -2.02959,-0.5604 -5.27697,-2.09717 -7.21641,-3.41505 -1.93944,-1.31788 -4.2611,-2.39615 -5.15926,-2.39615 -0.89815,0 -2.81903,-0.93293 -4.26862,-2.07318 -3.91933,-3.08294 -5.79792,-2.12905 -9.00645,4.57318 -1.57979,3.3 -3.94229,8.13773 -5.25,10.75052 -1.30771,2.61279 -2.37765,5.36194 -2.37765,6.10923 0,0.74729 -1.28883,3.78456 -2.86407,6.74948 -1.57523,2.96492 -3.20927,6.51577 -3.63119,7.89077 -0.42192,1.375 -1.54906,3.625 -2.50474,5 -0.95568,1.375 -2.06475,3.625 -2.46458,5 -0.64887,2.2314 -5.41035,13.08866 -7.4554,17 -1.34117,2.56512 -4.79738,2.361 -6.59975,-0.38977 z m -549.44947,-46.07316 c -0.9746,-1.17427 -0.6826,-2.60487 1.4798,-7.25 1.4816,-3.18289 3.8047,-8.26207 5.1625,-11.28707 1.3577,-3.025 3.5087,-7.525 4.7801,-10 1.2713,-2.475 2.62308,-5.625 3.00386,-7 0.38078,-1.375 3.18174,-7.675 6.22436,-14 5.22356,-10.85874 7.23161,-15.15243 13.79642,-29.5 1.50993,-3.3 4.04512,-8.8125 5.63375,-12.25 1.58862,-3.4375 4.28569,-9.2875 5.99348,-13 1.70778,-3.7125 3.59057,-7.65 4.18396,-8.75 0.59339,-1.1 1.69965,-3.35 2.45835,-5 2.55185,-5.54972 2.94604,-5.999 5.53622,-6.30993 5.2693,-0.63254 5.93805,6.4101 1.2164,12.80993 -1.31739,1.78562 -2.68797,4.57934 -3.04574,6.20827 -0.35778,1.62894 -1.95635,5.44415 -3.55238,8.47826 -1.59603,3.03411 -2.90188,6.07612 -2.90188,6.76003 0,0.6839 -0.87449,2.03487 -1.94332,3.00214 -1.06883,0.96728 -2.24837,3.17452 -2.62121,4.90499 -0.37284,1.73047 -1.70423,4.94631 -2.95864,7.14631 -1.25441,2.2 -2.57879,5.43141 -2.94307,7.1809 -0.36427,1.7495 -1.28471,3.69744 -2.04541,4.32877 -0.76071,0.63133 -2.16587,3.24992 -3.1226,5.8191 -0.95673,2.56918 -2.55541,5.74442 -3.55263,7.05609 -0.99721,1.31167 -1.81312,3.13582 -1.81312,4.05365 0,0.91784 -1.16372,4.11966 -2.58604,7.11515 -1.42233,2.99549 -4.08924,8.59634 -5.92648,12.44634 -1.83724,3.85 -3.65756,8.125 -4.04515,9.5 -0.3876,1.375 -1.48322,3.625 -2.43472,5 -0.95151,1.375 -2.27501,4.18046 -2.94121,6.23436 -2.007,6.18796 -8.1969,9.72316 -11.0356,6.30271 z m 665.11773,-11.38854 c -1.02126,-1.02126 -2.14499,-4.0642 -2.50607,-6.78617 -0.36004,-2.71408 -1.34059,-5.91406 -2.17899,-7.11106 -0.83841,-1.19699 -2.59093,-5.23072 -3.89448,-8.96383 -1.30355,-3.73311 -3.79838,-10.61247 -5.54407,-15.28747 -1.74569,-4.675 -3.99865,-11.26455 -5.00658,-14.64345 -1.00793,-3.3789 -2.50465,-7.2039 -3.32605,-8.5 -0.82139,-1.2961 -1.99259,-4.76178 -2.60267,-7.70151 -0.61008,-2.93973 -1.77982,-6.30236 -2.59943,-7.47251 -2.97426,-4.24635 -0.71487,-8.45771 3.91423,-7.29588 2.99174,0.75088 5.93801,5.49276 7.52636,12.11335 0.65976,2.75 1.82823,5.97072 2.59661,7.15717 0.76839,1.18644 1.93048,4.33644 2.58243,7 0.65195,2.66355 1.95253,6.41783 2.89018,8.34283 0.93765,1.925 2.22123,5.61178 2.85241,8.19285 0.63119,2.58107 1.99781,6.18107 3.03695,8 1.03914,1.81893 2.20306,5.09344 2.58649,7.27667 0.38343,2.18324 1.75008,5.78324 3.037,8 3.27834,5.64704 5.29549,15.85157 3.54931,17.95558 -1.74775,2.10591 -4.64714,1.98992 -6.91363,-0.27657 z m -203.13243,-42.88491 c -1.36614,-0.25522 -5.04463,-2.26027 -8.1744,-4.45569 -4.47421,-3.13847 -6.45477,-5.44604 -9.26611,-10.79603 -4.73407,-9.00896 -4.88292,-14.98346 -0.56148,-22.53656 8.25421,-14.42685 22.06108,-19.91179 34.98264,-13.89726 6.80241,3.16629 8.31274,4.50771 12.86013,11.42192 3.36247,5.11256 3.61426,6.02833 3.57438,13 -0.0521,9.11355 -1.51212,12.24086 -9.39467,20.12341 -7.22039,7.22039 -13.53825,9.0984 -24.02049,7.14021 z m 39.7339,-34.34372 c -1.03227,-0.60124 -1.75,-2.21282 -1.75,-3.92945 0,-2.58701 0.47194,-3.03055 4.25,-3.99423 2.3375,-0.59623 6.275,-1.78448 8.75,-2.64055 2.475,-0.85607 6.75,-2.0079 9.5,-2.55962 2.75,-0.55172 7.925,-2.07083 11.5,-3.37579 3.575,-1.30497 9.0763,-2.81603 12.22511,-3.35791 3.1488,-0.54189 7.11739,-1.70522 8.81907,-2.58519 1.70167,-0.87998 6.4501,-2.24209 10.55205,-3.02692 4.10195,-0.78484 8.74865,-2.09435 10.326,-2.91002 4.31325,-2.23047 16.27817,-4.47895 18.26005,-3.43147 0.92525,0.48902 1.97831,1.82185 2.34013,2.96185 1.08913,3.43155 -1.88263,5.59868 -8.74147,6.37467 -3.3738,0.38171 -8.18862,1.78767 -10.69961,3.12437 -2.65332,1.41247 -6.24737,2.43036 -8.58133,2.43036 -2.38713,0 -5.96147,1.0357 -8.81287,2.55362 -2.63833,1.40449 -7.13475,2.81812 -9.99205,3.1414 -2.85729,0.32327 -6.77008,1.37156 -8.69508,2.32951 -1.925,0.95795 -6.99266,2.46044 -11.26147,3.33885 -4.26881,0.87842 -8.99381,2.22628 -10.5,2.99526 -2.62256,1.33892 -12.02587,3.67456 -14.53775,3.61095 -0.66043,-0.0167 -1.98828,-0.48908 -2.95078,-1.04969 z m -71.50041,-7.45764 c -1.20749,-0.84575 -9.29511,-5.18505 -17.97251,-9.64288 -8.67739,-4.45783 -20.27708,-10.44089 -25.77708,-13.29569 -5.5,-2.8548 -21.97673,-11.2903 -36.61495,-18.74557 -14.63822,-7.45527 -27.88138,-14.39273 -29.42924,-15.41658 -1.54786,-1.02385 -4.59975,-2.53654 -6.78199,-3.36154 -5.07788,-1.91971 -8.16468,-5.90814 -7.28502,-9.41295 0.4071,-1.62201 1.34269,-2.58705 2.50813,-2.58705 2.87552,0 9.21993,2.92927 13.24697,6.11624 2.00415,1.58607 4.53097,2.88376 5.61515,2.88376 1.08418,0 3.04442,0.82715 4.35609,1.83811 2.34215,1.80519 4.83191,3.12624 23.88486,12.67309 5.225,2.61809 11.075,5.56239 13,6.54288 1.925,0.9805 4.625,2.30432 6,2.94184 1.375,0.63751 5.2,2.67235 8.5,4.52186 3.3,1.84951 7.575,4.11957 9.5,5.04457 1.925,0.925 4.4,2.16436 5.5,2.75414 6.50431,3.48735 14.25212,7.57185 23.5,12.38876 18.87551,9.83162 20.00008,10.75633 17.81955,14.65272 -1.17385,2.09754 -6.63917,2.1571 -9.56996,0.10429 z m 184.47651,-7.53745 c -6.28884,-3.77323 -7.0586,-4.63052 -10.75,-11.97234 -2.2152,-4.40581 -3.97575,-9.35724 -3.97531,-11.18027 9.2e-4,-3.83208 4.56679,-13.9415 8.28646,-18.3473 1.42791,-1.69131 5.81967,-4.56089 9.75945,-6.37686 9.441,-4.35164 14.39103,-3.90889 24.36433,2.17922 5.83306,3.56074 7.47898,5.18925 9.87713,9.77274 2.60858,4.98567 2.84655,6.26281 2.54476,13.65706 -0.31153,7.63302 -0.5899,8.5306 -4.33292,13.97117 -5.40032,7.8495 -13.75656,12.37436 -22.83737,12.3663 -5.42314,-0.005 -6.97546,-0.49316 -12.93653,-4.06972 z m -544.7261,-25.8062 c -7.90071,-2.59445 -13.15843,-6.32563 -16.77264,-11.90285 -3.43003,-5.29298 -3.70487,-6.27052 -3.71568,-13.21576 -0.0111,-7.13949 0.18059,-7.7746 3.98832,-13.21289 3.3469,-4.78011 5.11779,-6.22881 10.84608,-8.87275 7.20094,-3.32366 9.91722,-3.45016 18.93125,-0.88161 12.84939,3.66143 19.78977,22.0077 13.22577,34.96112 -4.68028,9.23609 -18.10294,15.88319 -26.5031,13.12474 z m 36.94868,-27.75359 c -0.76152,-2.00296 -0.63013,-3.20225 0.5478,-5 0.8523,-1.30076 1.65175,-2.3845 1.77657,-2.40831 0.12482,-0.0238 6.07695,-0.42463 13.22695,-0.89069 7.15,-0.46607 15.475,-1.54625 18.5,-2.4004 3.025,-0.85416 11.35,-2.04374 18.5,-2.64352 7.15,-0.59978 17.5,-1.96057 23,-3.02399 5.5,-1.06342 18.325,-2.63323 28.5,-3.48847 10.175,-0.85524 20.41688,-1.81746 22.75974,-2.13828 8.47916,-1.16106 12.28704,1.82725 7.72082,6.05908 -2.79137,2.58695 -4.98585,3.05004 -21.48056,4.53285 -6.325,0.5686 -14.425,1.48074 -18,2.02698 -19.15901,2.9274 -27.35748,3.97562 -35.5,4.53886 -4.95,0.3424 -13.275,1.46685 -18.5,2.49878 -8.08917,1.59758 -34.33013,4.97209 -38.66418,4.97209 -0.76193,0 -1.83614,-1.18574 -2.38714,-2.63498 z m 161.68256,0.167 c -5.57398,-1.58606 -9.65572,-5.08042 -13.47045,-11.53202 -2.26564,-3.83171 -2.6525,-5.61382 -2.60497,-12 0.0619,-8.3164 1.57106,-12.27115 6.80613,-17.83532 4.45111,-4.73093 7.82058,-6.21251 15.61476,-6.86595 7.66615,-0.6427 12.29276,0.97955 19.29415,6.76519 5.79033,4.78488 7.1632,8.16942 7.08271,17.46109 -0.0792,9.14244 -1.25815,12.11052 -7.02115,17.67616 -6.74093,6.51008 -16.56598,8.93023 -25.70118,6.33085 z"
       id="path41"
       inkscape:connector-curvature="0" />
    <path
       style="fill:#adc6e5"
       d="m -989.6553,7.02404 c -2.75,-1.11448 -6.91958,-3.7056 -9.26573,-5.75806 -3.53647,-3.09381 -4.60507,-4.92837 -6.25097,-10.73174 -3.3345,-11.75696 -0.3992,-21.14874 8.80337,-28.1678 7.15598,-5.45805 17.85934,-7.00214 25.0622,-3.61553 4.33618,2.03877 12.89552,10.51055 14.33093,14.18434 1.5715,4.02207 1.24168,17.39061 -0.51139,20.72807 -1.98005,3.76961 -9.29385,10.71321 -13.53093,12.84604 -5.30087,2.66833 -12.81151,2.87574 -18.63748,0.51468 z M -1110.9826,-97.0255 c -4.0428,-1.62071 -11.2327,-8.14806 -12.6124,-11.45016 -0.7301,-1.74735 -1.821,-5.47854 -2.4243,-8.29155 -2.4152,-11.26161 5.8923,-25.45742 16.4542,-28.11694 6.6018,-1.66236 15.3488,-1.29242 20.064,0.84857 4.8877,2.21929 11.8075,10.47063 13.3061,15.86644 1.6767,6.03715 1.2088,12.29829 -1.3259,17.74148 -2.7391,5.88223 -10.2646,12.93794 -14.7578,13.83658 -4.5652,0.91305 -16.0055,0.64733 -18.7039,-0.43442 z m 226.02106,-10.7883 c -5.91045,-1.84006 -11.95039,-7.12301 -14.88595,-13.02025 -1.29045,-2.59239 -1.80781,-5.92114 -1.80781,-11.63171 0,-7.38808 0.24695,-8.3556 3.22852,-12.64896 1.77569,-2.55693 5.13233,-6.15693 7.45921,-8 4.13039,-3.27161 4.45682,-3.35104 13.77147,-3.35104 10.56566,0 13.16565,0.91495 18.88841,6.64697 4.46655,4.47377 8.37725,14.11991 7.84603,19.35303 -1.09996,10.83573 -8.99901,20.43075 -19.01485,23.09743 -6.42216,1.70988 -8.77973,1.64205 -15.48503,-0.44547 z m -106.01708,-17.70478 c 0.45227,-2.17211 2.22702,-2.30502 2.63295,-0.19718 0.2108,1.0946 -0.27967,1.75 -1.30963,1.75 -0.96073,0 -1.51197,-0.64684 -1.32332,-1.55282 z m -22.67098,-105.609 c -6.7347,-4.51035 -12.3629,-12.83685 -13.1459,-19.44827 -1.2778,-10.78906 7.6725,-23.41842 19.3587,-27.31595 7.9815,-2.66198 8.6201,-2.6294 15.7815,0.80527 9.88538,4.7411 17.5,15.0163 17.5,23.61455 0,6.0996 -5.32766,15.93913 -11.34972,20.96154 -4.78643,3.99189 -4.96922,4.04909 -14.00497,4.38286 -8.96291,0.33108 -9.25991,0.26807 -14.13961,-3 z m 529.52274,-164.91045 c -7.09243,-3.21719 -11.06199,-6.8035 -13.62628,-12.3107 -3.54682,-7.61732 -3.28224,-14.72617 0.84784,-22.77966 3.0276,-5.90369 3.72809,-6.57118 10.23635,-9.75404 8.88422,-4.34481 13.03866,-4.39514 21.19875,-0.2568 9.4819,4.80869 14.3149,12.29158 14.3149,22.16365 0,9.93687 -4.90684,17.10588 -15.31116,22.36999 -6.2817,3.17824 -11.53301,3.34701 -17.6604,0.56756 z m -548.40364,-50.39684 c -7.6387,-2.7228 -14.6248,-12.25052 -14.6248,-19.94549 0,-5.26123 2.6125,-10.28142 8.1971,-15.75138 6.0955,-5.97043 9.9238,-7.28276 17.2787,-5.92312 5.9751,1.10455 13.7155,5.70944 15.6392,9.30405 0.6298,1.17672 1.748,4.72386 2.4848,7.88251 1.1516,4.93647 1.128,6.45614 -0.1682,10.82077 -3.6006,12.12461 -16.2337,18.09436 -28.8068,13.61266 z m 695.73339,-4.43734 c -4.68967,-1.1892 -9.56353,-4.52123 -13.16056,-8.99725 -4.28112,-5.32728 -5.20174,-8.06858 -5.17567,-15.4114 0.026,-7.3252 2.26191,-12.78625 7.12831,-17.41045 3.6445,-3.46312 13.21188,-7.27495 18.25628,-7.27366 4.6869,10e-4 14.821,5.23874 18.29787,9.45678 5.61508,6.81208 6.39795,18.64242 1.81955,27.49608 -1.63827,3.16807 -7.26096,8.34186 -11.38109,10.47246 -3.57847,1.8505 -11.68553,2.7069 -15.78469,1.66744 z m -94.35819,-72.09355 c 0,-1.33333 0.66667,-2 2,-2 1.33333,0 2,0.66667 2,2 0,1.33333 -0.66667,2 -2,2 -1.33333,0 -2,-0.66667 -2,-2 z m -124,-33.53141 c -6.57178,-3.82224 -8.99546,-6.35584 -11.56565,-12.09016 -3.85011,-8.58999 -3.9831,-11.40557 -0.86667,-18.34989 3.26794,-7.28194 9.02917,-12.77171 16.04092,-15.2851 5.9919,-2.14781 7.09381,-2.16025 13.02353,-0.14706 8.43687,2.86439 12.07585,6.03381 15.9667,13.90642 3.12628,6.32559 3.48056,7.78495 2.87319,11.83521 -0.97245,6.48478 -6.04087,14.38849 -11.92712,18.59921 -4.37687,3.13099 -5.7772,3.57987 -12,3.84663 -6.10511,0.26172 -7.6452,-0.0471 -11.5449,-2.31526 z m 160.49204,-45.08395 c -7.24109,-3.79364 -10.06977,-6.86109 -12.94104,-14.03339 -3.14856,-7.86497 -3.18854,-11.44023 -0.19969,-17.85853 5.81346,-12.4839 21.02848,-18.85721 31.93853,-13.3785 10.31723,5.18102 14.53744,10.88944 15.44431,20.89061 0.91416,10.08149 -4.85294,19.24389 -15.19115,24.13474 -7.61108,3.60069 -12.52529,3.6639 -19.05096,0.24507 z m -549.60976,-28.71999 c -10.42978,-3.85748 -16.30629,-11.66949 -16.33377,-21.71348 -0.0126,-4.60972 0.555,-6.43738 3.35375,-10.79885 3.3865,-5.27741 6.75126,-7.637 14.43654,-10.12385 3.23415,-1.04653 4.80925,-0.97286 10,0.46771 7.05765,1.95869 8.88922,3.3304 12.36407,9.25978 2.25251,3.84362 2.46157,5.12425 2.14636,13.14768 -0.39461,10.04425 -0.7992,10.76949 -9.2181,16.52346 -5.94195,4.06108 -11.57706,5.15034 -16.74885,3.23755 z m 200.92412,-26.82474 c -4.98811,-1.36656 -12.30533,-9.26535 -13.83063,-14.92988 -2.16994,-8.05855 0.64487,-16.30536 7.99033,-23.41003 4.04886,-3.91614 4.28707,-4 11.36206,-4 10.39141,0 15.83048,2.94791 20.31626,11.01115 4.36052,7.83811 4.38271,12.15948 0.10558,20.56714 -2.69489,5.2974 -4.01862,6.7641 -7.75,8.58701 -5.39802,2.63712 -13.13142,3.56146 -18.1936,2.17461 z"
       id="path39"
       inkscape:connector-curvature="0" />
    <path
       style="fill:#f9a85f"
       d="m -989.83234,4.39628 c -5.4251,-1.92229 -11.85236,-8.90085 -13.36236,-14.50838 -1.4955,-5.55402 -0.4265,-15.35287 2.1262,-19.48943 1.0643,-1.72468 4.40632,-4.83775 7.42666,-6.91794 7.15268,-4.92624 14.13409,-5.76351 20.8697,-2.50285 10.31362,4.99274 14.88162,11.56641 14.84133,21.35771 -0.032,7.77064 -1.11241,10.53707 -6.32302,16.18991 -6.38698,6.92906 -16.22172,9.18641 -25.57851,5.87098 z m -120.82296,-103.7385 c -1.65,-0.76883 -4.9452,-3.41154 -7.3227,-5.87268 -3.8404,-3.97547 -4.44,-5.24342 -5.3728,-11.36283 -1.5057,-9.87725 -0.053,-14.49672 6.5957,-20.97515 3.2507,-3.16732 6.4718,-5.33728 8.5354,-5.75 6.3724,-1.27448 13.3373,-0.70917 17.7841,1.44346 4.8116,2.32925 10.531,9.09313 12.3503,14.60571 2.6971,8.1722 -1.2919,19.12671 -9.265,25.44344 -3.8974,3.08771 -4.839,3.36453 -12.2633,3.60522 -5.2918,0.17156 -9.0676,-0.2173 -11.0417,-1.13717 z m 225.13726,-11.08835 c -5.06614,-1.80603 -8.76765,-5.46282 -12.00362,-11.8586 -4.63187,-9.15472 -2.77261,-18.51409 5.24074,-26.3815 4.78516,-4.69802 8.83056,-6.29976 15.8435,-6.27313 10.3688,0.0394 18.47571,5.80787 21.65153,15.40618 2.03602,6.15346 2.05847,10.10574 0.0892,15.69613 -1.9383,5.50243 -8.80281,12.59878 -13.43091,13.88454 -4.93397,1.37072 -12.81919,1.15597 -17.39042,-0.47362 z m -127.13726,-123.29269 c -4.8104,-3.14411 -6.57,-5.06298 -8.8749,-9.6786 -3.5697,-7.14851 -3.6378,-12.63185 -0.2401,-19.33697 5.6745,-11.19799 16.3705,-16.24537 27.1951,-12.8332 6.81109,2.147 11.77922,6.40844 15.0914,12.94472 4.96117,9.7904 1.41724,21.892 -8.49845,29.01999 -3.69556,2.65659 -5.37363,3.16119 -11.5,3.45807 -6.91365,0.33503 -7.39005,0.20576 -13.17305,-3.57401 z m 528.52844,-162.31477 c -7.09243,-3.21719 -11.06199,-6.8035 -13.62628,-12.3107 -3.54682,-7.61732 -3.28224,-14.72617 0.84784,-22.77966 3.0276,-5.90369 3.72809,-6.57118 10.23635,-9.75404 8.88422,-4.34481 13.03866,-4.39514 21.19875,-0.2568 9.4819,4.80869 14.3149,12.29158 14.3149,22.16365 0,9.93687 -4.90684,17.10588 -15.31116,22.36999 -6.2817,3.17824 -11.53301,3.34701 -17.6604,0.56756 z m 147.32975,-54.83418 c -4.68967,-1.1892 -9.56353,-4.52123 -13.16056,-8.99725 -4.28112,-5.32728 -5.20174,-8.06858 -5.17567,-15.4114 0.026,-7.3252 2.26191,-12.78625 7.12831,-17.41045 3.6445,-3.46312 13.21188,-7.27495 18.25628,-7.27366 4.6869,10e-4 14.821,5.23874 18.29787,9.45678 5.61508,6.81208 6.39795,18.64242 1.81955,27.49608 -1.63827,3.16807 -7.26096,8.34186 -11.38109,10.47246 -3.57847,1.8505 -11.68553,2.7069 -15.78469,1.66744 z M -555.1553,-556.49717 c -6.57178,-3.82224 -8.99546,-6.35584 -11.56565,-12.09016 -3.85011,-8.58999 -3.9831,-11.40557 -0.86667,-18.34989 3.26794,-7.28194 9.02917,-12.77171 16.04092,-15.2851 5.9919,-2.14781 7.09381,-2.16025 13.02353,-0.14706 8.43687,2.86439 12.07585,6.03381 15.9667,13.90642 3.12628,6.32559 3.48056,7.78495 2.87319,11.83521 -0.97245,6.48478 -6.04087,14.38849 -11.92712,18.59921 -4.37687,3.13099 -5.7772,3.57987 -12,3.84663 -6.10511,0.26172 -7.6452,-0.0471 -11.5449,-2.31526 z m 160.49204,-45.08395 c -7.24109,-3.79364 -10.06977,-6.86109 -12.94104,-14.03339 -3.14856,-7.86497 -3.18854,-11.44023 -0.19969,-17.85853 5.81346,-12.4839 21.02848,-18.85721 31.93853,-13.3785 10.31723,5.18102 14.53744,10.88944 15.44431,20.89061 0.91416,10.08149 -4.85294,19.24389 -15.19115,24.13474 -7.61108,3.60069 -12.52529,3.6639 -19.05096,0.24507 z"
       id="path37"
       inkscape:connector-curvature="0" />
    <path
       style="fill:#5496c2"
       d="m -989.83234,4.39628 c -5.4251,-1.92229 -11.85236,-8.90085 -13.36236,-14.50838 -1.4955,-5.55402 -0.4265,-15.35287 2.1262,-19.48943 1.0643,-1.72468 4.40632,-4.83775 7.42666,-6.91794 7.15268,-4.92624 14.13409,-5.76351 20.8697,-2.50285 10.31362,4.99274 14.88162,11.56641 14.84133,21.35771 -0.032,7.77064 -1.11241,10.53707 -6.32302,16.18991 -6.38698,6.92906 -16.22172,9.18641 -25.57851,5.87098 z m -120.82296,-103.7385 c -1.65,-0.76883 -4.9452,-3.41154 -7.3227,-5.87268 -3.8404,-3.97547 -4.44,-5.24342 -5.3728,-11.36283 -1.5057,-9.87725 -0.053,-14.49672 6.5957,-20.97515 3.2507,-3.16732 6.4718,-5.33728 8.5354,-5.75 6.3724,-1.27448 13.3373,-0.70917 17.7841,1.44346 4.8116,2.32925 10.531,9.09313 12.3503,14.60571 2.6971,8.1722 -1.2919,19.12671 -9.265,25.44344 -3.8974,3.08771 -4.839,3.36453 -12.2633,3.60522 -5.2918,0.17156 -9.0676,-0.2173 -11.0417,-1.13717 z m 225.13726,-11.08835 c -5.06614,-1.80603 -8.76765,-5.46282 -12.00362,-11.8586 -4.63187,-9.15472 -2.77261,-18.51409 5.24074,-26.3815 4.78516,-4.69802 8.83056,-6.29976 15.8435,-6.27313 10.3688,0.0394 18.47571,5.80787 21.65153,15.40618 2.03602,6.15346 2.05847,10.10574 0.0892,15.69613 -1.9383,5.50243 -8.80281,12.59878 -13.43091,13.88454 -4.93397,1.37072 -12.81919,1.15597 -17.39042,-0.47362 z m -127.13726,-123.29269 c -4.8104,-3.14411 -6.57,-5.06298 -8.8749,-9.6786 -3.5697,-7.14851 -3.6378,-12.63185 -0.2401,-19.33697 5.6745,-11.19799 16.3705,-16.24537 27.1951,-12.8332 6.81109,2.147 11.77922,6.40844 15.0914,12.94472 4.96117,9.7904 1.41724,21.892 -8.49845,29.01999 -3.69556,2.65659 -5.37363,3.16119 -11.5,3.45807 -6.91365,0.33503 -7.39005,0.20576 -13.17305,-3.57401 z m 530.76786,-165.19776 c -7.66225,-2.75774 -10.87166,-5.44147 -12.92429,-10.80738 -2.69058,-7.0336 -2.29079,-14.94534 1.04263,-20.63338 3.16065,-5.39324 5.1119,-6.79624 12.7216,-9.14714 5.34542,-1.65138 5.87485,-1.64844 11.31527,0.0628 7.58601,2.38609 9.45643,4.0356 13.45735,11.86793 4.1107,8.04721 3.8677,11.40605 -1.399,19.33828 -2.90227,4.37113 -4.78471,5.97564 -9.78741,8.34232 -7.23679,3.42359 -7.56544,3.44584 -14.42615,0.97659 z m 142.17848,-56.52113 c -7.67648,-3.84322 -13.32398,-12.2946 -13.38049,-20.02361 -0.0592,-8.10587 7.55328,-17.46129 16.27034,-19.9954 8.34127,-2.42488 14.42511,-0.82808 21.09811,5.53751 4.81102,4.58939 4.96858,4.92122 5.37616,11.32221 0.81051,12.72875 -1.71631,17.54017 -11.91542,22.68866 -7.12099,3.59467 -10.99977,3.69929 -17.4487,0.47063 z m -213.97918,-103.8673 c -6.4472,-3.01225 -10.00922,-7.29379 -11.37803,-13.67634 -1.4391,-6.71026 -1.3825,-8.15907 0.51608,-13.20973 4.8817,-12.98651 21.98775,-17.64332 33.26179,-9.05491 4.71734,3.5936 8.47077,12.35983 7.89075,18.429 -1.40301,14.68048 -17.02295,23.71088 -30.29059,17.51198 z m 158.71468,-46.25298 c -6.24254,-3.11079 -9.95301,-8.67563 -10.85334,-16.27746 -1.26483,-10.6795 4.06209,-19.17894 14.09964,-22.49687 6.7903,-2.24454 9.36324,-2.06007 15.63568,1.121 13.58777,6.89105 16.83812,21.69783 7.12741,32.46847 -7.20389,7.9902 -16.61502,9.86627 -26.00939,5.18486 z"
       id="path35"
       inkscape:connector-curvature="0" />
    <path
       style="fill:#f98822"
       d="m -989.1553,1.43994 c -4.15705,-1.80063 -8.63255,-5.86056 -10.58928,-9.60604 -2.00282,-3.83377 -1.80952,-14.49551 0.34083,-18.79786 2.55743,-5.11678 11.72802,-11.09568 17.35271,-11.31337 14.21842,-0.55027 26.66014,17.19755 20.46048,29.18638 -4.98327,9.63657 -18.07892,14.63966 -27.56474,10.53089 z m -119.5,-102.80456 c -1.65,-0.79263 -4.8686,-3.21858 -7.1525,-5.39098 -3.9597,-3.76647 -4.1857,-4.30435 -4.8682,-11.58754 -0.8887,-9.48422 0.1121,-12.17086 6.761,-18.14876 4.0443,-3.63613 5.7516,-4.50751 9.1179,-4.65356 11.2375,-0.48754 16.1785,1.73901 21.7144,9.78519 4.3949,6.38775 4.4916,13.12433 0.2868,19.96644 -4.6221,7.52109 -8.701,10.2402 -16.3594,10.90562 -4.6018,0.39983 -7.3761,0.1439 -9.5,-0.87641 z m 231.5,-10.15339 c -0.825,-0.17301 -3.17425,-0.58744 -5.22056,-0.92095 -5.009,-0.81637 -9.30777,-4.65361 -12.30064,-10.98002 -3.1413,-6.64018 -3.13147,-11.08302 0.0385,-17.39429 4.47447,-8.90848 13.52178,-13.62064 22.40531,-11.66949 4.08289,0.89675 12.89406,7.91842 14.21528,11.32821 1.45864,3.76447 1.3978,16.31932 -0.0926,19.10412 -1.16427,2.17544 -6.95483,7.82982 -9.42819,9.20644 -1.527,0.8499 -7.77772,1.71173 -9.61713,1.32598 z m -132.8807,-124.0899 c -5.5115,-3.18483 -6.7205,-4.42937 -8.8757,-9.13695 -1.9782,-4.3209 -2.3779,-6.43868 -1.9298,-10.22286 0.8296,-7.00446 2.9953,-11.36931 7.2523,-14.61622 3.5278,-2.69081 4.3851,-2.88182 12.9339,-2.88182 8.54884,0 9.40611,0.19101 12.93395,2.88182 4.81722,3.67427 6.56605,7.92618 6.56605,15.96394 0,9.01712 -1.91161,12.91116 -8.47867,17.27144 -7.9376,5.27027 -12.28973,5.42827 -20.40203,0.74065 z m 528.14856,-163.31311 c -7.66225,-2.75774 -10.87166,-5.44147 -12.92429,-10.80738 -2.69058,-7.0336 -2.29079,-14.94534 1.04263,-20.63338 3.16065,-5.39324 5.1119,-6.79624 12.7216,-9.14714 5.34542,-1.65138 5.87485,-1.64844 11.31527,0.0628 7.58601,2.38609 9.45643,4.0356 13.45735,11.86793 4.1107,8.04721 3.8677,11.40605 -1.399,19.33828 -2.90227,4.37113 -4.78471,5.97564 -9.78741,8.34232 -7.23679,3.42359 -7.56544,3.44584 -14.42615,0.97659 z m 142.17848,-56.52113 c -7.67648,-3.84322 -13.32398,-12.2946 -13.38049,-20.02361 -0.0592,-8.10587 7.55328,-17.46129 16.27034,-19.9954 8.34127,-2.42488 14.42511,-0.82808 21.09811,5.53751 4.81102,4.58939 4.96858,4.92122 5.37616,11.32221 0.81051,12.72875 -1.71631,17.54017 -11.91542,22.68866 -7.12099,3.59467 -10.99977,3.69929 -17.4487,0.47063 z m -213.97918,-103.8673 c -6.4472,-3.01225 -10.00922,-7.29379 -11.37803,-13.67634 -1.4391,-6.71026 -1.3825,-8.15907 0.51608,-13.20973 4.8817,-12.98651 21.98775,-17.64332 33.26179,-9.05491 4.71734,3.5936 8.47077,12.35983 7.89075,18.429 -1.40301,14.68048 -17.02295,23.71088 -30.29059,17.51198 z m 158.71468,-46.25298 c -6.24254,-3.11079 -9.95301,-8.67563 -10.85334,-16.27746 -1.26483,-10.6795 4.06209,-19.17894 14.09964,-22.49687 6.7903,-2.24454 9.36324,-2.06007 15.63568,1.121 13.58777,6.89105 16.83812,21.69783 7.12741,32.46847 -7.20389,7.9902 -16.61502,9.86627 -26.00939,5.18486 z"
       id="path33"
       inkscape:connector-curvature="0" />
    <path
       style="fill:#f97a09"
       d="m -989.1553,1.43994 c -4.15705,-1.80063 -8.63255,-5.86056 -10.58928,-9.60604 -2.00282,-3.83377 -1.80952,-14.49551 0.34083,-18.79786 2.55743,-5.11678 11.72802,-11.09568 17.35271,-11.31337 14.21842,-0.55027 26.66014,17.19755 20.46048,29.18638 -4.98327,9.63657 -18.07892,14.63966 -27.56474,10.53089 z m -119.5,-102.80456 c -1.65,-0.79263 -4.8686,-3.21858 -7.1525,-5.39098 -3.9597,-3.76647 -4.1857,-4.30435 -4.8682,-11.58754 -0.8887,-9.48422 0.1121,-12.17086 6.761,-18.14876 4.0443,-3.63613 5.7516,-4.50751 9.1179,-4.65356 11.2375,-0.48754 16.1785,1.73901 21.7144,9.78519 4.3949,6.38775 4.4916,13.12433 0.2868,19.96644 -4.6221,7.52109 -8.701,10.2402 -16.3594,10.90562 -4.6018,0.39983 -7.3761,0.1439 -9.5,-0.87641 z m 231.5,-10.15339 c -0.825,-0.17301 -3.17425,-0.58744 -5.22056,-0.92095 -5.009,-0.81637 -9.30777,-4.65361 -12.30064,-10.98002 -3.1413,-6.64018 -3.13147,-11.08302 0.0385,-17.39429 4.47447,-8.90848 13.52178,-13.62064 22.40531,-11.66949 4.08289,0.89675 12.89406,7.91842 14.21528,11.32821 1.45864,3.76447 1.3978,16.31932 -0.0926,19.10412 -1.16427,2.17544 -6.95483,7.82982 -9.42819,9.20644 -1.527,0.8499 -7.77772,1.71173 -9.61713,1.32598 z m -132.8807,-124.0899 c -5.5115,-3.18483 -6.7205,-4.42937 -8.8757,-9.13695 -1.9782,-4.3209 -2.3779,-6.43868 -1.9298,-10.22286 0.8296,-7.00446 2.9953,-11.36931 7.2523,-14.61622 3.5278,-2.69081 4.3851,-2.88182 12.9339,-2.88182 8.54884,0 9.40611,0.19101 12.93395,2.88182 4.81722,3.67427 6.56605,7.92618 6.56605,15.96394 0,9.01712 -1.91161,12.91116 -8.47867,17.27144 -7.9376,5.27027 -12.28973,5.42827 -20.40203,0.74065 z m 531.3807,-165.58395 c -2.2,-0.53137 -5.07016,-1.17091 -6.37813,-1.42122 -1.30798,-0.25031 -3.62454,-1.7015 -5.14791,-3.22487 -2.34929,-2.34929 -2.87728,-3.91703 -3.47793,-10.32692 -0.81956,-8.74587 -0.31546,-10.92003 3.72152,-16.05089 2.25711,-2.86872 3.66727,-3.75 6.00046,-3.75 1.67747,0 4.67716,-0.48527 6.66597,-1.07838 2.9251,-0.87233 4.66691,-0.72902 9.11602,0.75 4.69293,1.56008 5.79348,2.42125 7.5,5.86865 1.1,2.22215 2.7875,5.13478 3.75,6.47251 2.7158,3.77456 2.11633,6.9625 -2.64346,14.05769 -4.38232,6.53249 -5.21482,7.0913 -13.96063,9.37086 -0.63025,0.16427 -2.94591,-0.13607 -5.14591,-0.66743 z m 15.94423,-17.68366 c 1.80183,-2.91542 -2.92153,-5.34205 -6.26812,-3.22024 -1.06935,0.67798 -1.00755,1.15571 0.32143,2.48468 1.78807,1.78807 5.04706,2.19118 5.94669,0.73556 z m 123.35936,-38.62873 c -6.08911,-3.17054 -10.97965,-10.1134 -11.53688,-16.37834 -0.34213,-3.84662 0.12598,-5.45396 2.91283,-10.00167 4.15242,-6.77613 7.34622,-9.16101 13.14338,-9.81443 8.19177,-0.92333 13.38914,0.46552 18.00204,4.81056 l 4.17504,3.9326 v 9.43934 c 0,9.40525 -0.0124,9.45219 -3.44617,12.99489 -1.89539,1.95555 -3.93774,3.55554 -4.53855,3.55554 -0.60082,0 -2.85769,0.9 -5.01528,2 -5.0597,2.57958 -7.92435,2.46696 -13.69641,-0.53849 z m 4.19641,-9.46151 c 0,-0.55 -0.45,-1 -1,-1 -0.55,0 -1,0.45 -1,1 0,0.55 0.45,1 1,1 0.55,0 1,-0.45 1,-1 z m -216.67652,-94.25799 c -2.55807,-0.60953 -5.46441,-2.32563 -7.5,-4.42851 -3.31262,-3.42211 -3.32281,-3.46321 -3.11894,-12.57405 0.2197,-9.81811 1.13073,-12.0341 6.63775,-16.14569 2.09952,-1.56751 4.36298,-2.05512 9.93821,-2.14094 3.97073,-0.0611 8.3445,0.29061 9.7195,0.78164 3.59684,1.28447 7.99897,5.79463 8.00616,8.20263 0.003,1.1346 0.70167,3.39672 1.55174,5.02694 2.83758,5.44177 -1.04476,16.22883 -7.05846,19.61187 -3.8009,2.13823 -12.75135,2.95867 -18.17596,1.66611 z m 166.67652,-45.70222 c -1.375,-0.41847 -3.7136,-0.54714 -5.1969,-0.28594 -3.37734,0.59473 -9.31893,-2.91688 -11.2484,-6.64807 -0.87101,-1.68434 -1.39681,-5.86797 -1.39681,-11.11398 v -8.41285 l 4.17106,-4.13773 c 3.71276,-3.6831 4.83892,-4.20569 10.24956,-4.75622 10.22986,-1.04089 16.63567,1.89419 20.44939,9.36969 3.06947,6.01665 2.68761,13.6575 -0.93228,18.65462 -3.2116,4.43347 -8.80539,8.34505 -11.71365,8.19101 -1.03509,-0.0548 -3.00697,-0.44206 -4.38197,-0.86053 z"
       id="path31"
       inkscape:connector-curvature="0" />
    <path
       style="fill:#1b74b0"
       d="m -989.1553,1.43994 c -4.15705,-1.80063 -8.63255,-5.86056 -10.58928,-9.60604 -2.00282,-3.83377 -1.80952,-14.49551 0.34083,-18.79786 2.55743,-5.11678 11.72802,-11.09568 17.35271,-11.31337 14.21842,-0.55027 26.66014,17.19755 20.46048,29.18638 -4.98327,9.63657 -18.07892,14.63966 -27.56474,10.53089 z m -119.5,-102.80456 c -1.65,-0.79263 -4.8686,-3.21858 -7.1525,-5.39098 -3.9597,-3.76647 -4.1857,-4.30435 -4.8682,-11.58754 -0.8887,-9.48422 0.1121,-12.17086 6.761,-18.14876 4.0443,-3.63613 5.7516,-4.50751 9.1179,-4.65356 11.2375,-0.48754 16.1785,1.73901 21.7144,9.78519 4.3949,6.38775 4.4916,13.12433 0.2868,19.96644 -4.6221,7.52109 -8.701,10.2402 -16.3594,10.90562 -4.6018,0.39983 -7.3761,0.1439 -9.5,-0.87641 z m 231.5,-10.15339 c -0.825,-0.17301 -3.17425,-0.58744 -5.22056,-0.92095 -5.009,-0.81637 -9.30777,-4.65361 -12.30064,-10.98002 -3.1413,-6.64018 -3.13147,-11.08302 0.0385,-17.39429 4.47447,-8.90848 13.52178,-13.62064 22.40531,-11.66949 4.08289,0.89675 12.89406,7.91842 14.21528,11.32821 1.45864,3.76447 1.3978,16.31932 -0.0926,19.10412 -1.16427,2.17544 -6.95483,7.82982 -9.42819,9.20644 -1.527,0.8499 -7.77772,1.71173 -9.61713,1.32598 z m -132.8807,-124.0899 c -5.5115,-3.18483 -6.7205,-4.42937 -8.8757,-9.13695 -1.9782,-4.3209 -2.3779,-6.43868 -1.9298,-10.22286 0.8296,-7.00446 2.9953,-11.36931 7.2523,-14.61622 3.5278,-2.69081 4.3851,-2.88182 12.9339,-2.88182 8.54884,0 9.40611,0.19101 12.93395,2.88182 4.81722,3.67427 6.56605,7.92618 6.56605,15.96394 0,9.01712 -1.91161,12.91116 -8.47867,17.27144 -7.9376,5.27027 -12.28973,5.42827 -20.40203,0.74065 z"
       id="path29"
       inkscape:connector-curvature="0" />
  </g>
</svg>
